# Blender v3.0.0 OBJ File: ''
# www.blender.org
mtllib Cabin-I-b.mtl
o Cabin-I
v 1.379596 4.037820 -1.379767
v 1.379596 6.172812 -1.379767
v 1.379596 4.037820 1.379801
v 1.379596 6.172812 1.379801
v -1.379971 4.037820 -1.379767
v -1.379971 6.172812 -1.379767
v -1.379971 4.037820 1.379801
v -1.379971 6.172812 1.379801
v 1.277935 6.172812 -1.278105
v 1.277935 6.172812 1.278139
v -1.278310 6.172812 1.278139
v -1.278310 6.172812 -1.278105
v 1.277935 4.097105 -1.278105
v 1.277935 4.097105 1.278139
v -1.278310 4.097105 1.278139
v -1.278310 4.097105 -1.278105
v -1.292925 6.171478 -1.365152
v -1.292925 8.498491 -1.365152
v -1.292925 6.171478 -1.292721
v -1.292925 8.498491 -1.292721
v -1.365356 6.171478 -1.365152
v -1.365356 8.498491 -1.365152
v -1.365356 6.171478 -1.292721
v -1.365356 8.498491 -1.292721
v 1.365012 6.171478 -1.365152
v 1.365012 7.981835 -1.365152
v 1.365012 6.171478 -1.292721
v 1.365012 7.981835 -1.292721
v 1.292581 6.171478 -1.365152
v 1.292581 7.981835 -1.365152
v 1.292581 6.171478 -1.292721
v 1.292581 7.981835 -1.292721
v -1.292925 6.171478 1.293107
v -1.292925 8.498491 1.293106
v -1.292925 6.171478 1.365538
v -1.292925 8.498491 1.365538
v -1.365356 6.171478 1.293107
v -1.365356 8.498491 1.293106
v -1.365356 6.171478 1.365538
v -1.365356 8.498491 1.365538
v 1.365012 6.171478 1.293107
v 1.365012 7.981835 1.293107
v 1.365012 6.171478 1.365538
v 1.365012 7.981835 1.365538
v 1.292581 6.171478 1.293107
v 1.292581 7.981835 1.293107
v 1.292581 6.171478 1.365538
v 1.292581 7.981835 1.365538
v 1.400483 7.754840 -1.400462
v 1.400483 8.208830 -1.400462
v 1.400483 7.754840 1.400848
v 1.400483 8.208830 1.400848
v -1.400827 8.271498 -1.400462
v -1.400827 8.725487 -1.400462
v -1.400827 8.271498 1.400848
v -1.400827 8.725487 1.400848
v 1.279843 7.754840 1.280207
v 1.279843 7.754840 -1.279822
v -1.280186 8.271498 1.280207
v -1.280186 8.271498 -1.279822
v 1.279843 8.148620 1.280207
v 1.279843 8.148620 -1.279822
v -1.280186 8.665276 1.280207
v -1.280186 8.665276 -1.279822
v -1.379971 3.701901 -1.379766
v -1.379971 3.701901 1.379801
v 1.379596 3.701901 -1.379766
v 1.379596 3.701901 1.379801
v 1.379596 6.062699 -1.379767
v 1.379596 6.062699 1.379801
v -1.379971 6.062699 1.379801
v -1.379971 6.062699 -1.379767
v 1.312494 3.702046 -1.301929
v 1.312494 3.702047 1.299483
v -1.298844 3.702046 -1.301929
v -1.298844 3.702047 1.299483
v -1.298844 -0.000000 -1.301929
v -1.298844 0.000000 1.299484
v 1.312494 -0.000000 -1.301929
v 1.312494 0.000000 1.299484
v 1.312494 0.000000 1.299484
v 1.312494 -0.000000 -1.301929
v -1.298844 0.000000 1.299484
v -1.298844 -0.000000 -1.301929
v -1.298844 3.702047 1.299483
v -1.298844 3.702046 -1.301929
v 1.312494 3.702047 1.299483
v 1.312494 3.702046 -1.301929
v 1.071700 3.701901 -1.082798
v -1.072075 3.701901 -1.082798
v -1.072075 3.701901 1.082772
v 1.071700 3.701901 1.082772
v 1.071700 3.903123 -1.082798
v -1.072075 3.903123 -1.082798
v -1.072075 3.903123 1.082772
v 1.071700 3.903123 1.082772
v 1.321530 8.223392 -1.321508
v 1.321530 8.223392 1.321894
v -1.321873 8.710925 1.321894
v -1.321873 8.710925 -1.321508
vt 0.385330 0.284939
vt 0.385330 0.289566
vt 0.173631 0.289566
vt 0.173631 0.284939
vt 0.234939 0.284939
vt 0.234939 0.289566
vt 0.023240 0.289566
vt 0.023240 0.284939
vt 0.385330 0.284939
vt 0.385330 0.289566
vt 0.173631 0.289566
vt 0.173631 0.284939
vt 0.330177 0.549025
vt 0.139890 0.549025
vt 0.139890 0.518771
vt 0.330177 0.518771
vt 0.385330 0.289566
vt 0.173631 0.289566
vt 0.173631 0.284939
vt 0.385330 0.284939
vt 0.231033 0.289566
vt 0.019334 0.289566
vt 0.019334 0.284939
vt 0.231033 0.284939
vt 0.385330 0.289566
vt 0.173631 0.289566
vt 0.173631 0.284939
vt 0.385330 0.284939
vt 0.916917 0.614104
vt 0.982509 0.614104
vt 0.982509 0.679696
vt 0.916917 0.679696
vt 0.916917 0.614104
vt 0.982509 0.614104
vt 0.982509 0.679696
vt 0.916917 0.679696
vt 0.916917 0.614104
vt 0.982509 0.614104
vt 0.982509 0.679696
vt 0.916917 0.614104
vt 0.982509 0.614104
vt 0.916917 0.679696
vt 0.136717 0.939213
vt 0.398600 0.939213
vt 0.398600 0.954066
vt 0.136717 0.954066
vt 0.096837 0.939213
vt 0.335882 0.939213
vt 0.335882 0.954066
vt 0.096837 0.954066
vt 0.136717 0.939213
vt 0.398600 0.939213
vt 0.398600 0.954066
vt 0.136717 0.954066
vt 0.098099 0.939213
vt 0.313059 0.939213
vt 0.313059 0.954066
vt 0.098099 0.954066
vt 0.136717 0.939213
vt 0.398600 0.939213
vt 0.398600 0.954066
vt 0.136717 0.954066
vt 0.096837 0.939213
vt 0.335882 0.939213
vt 0.335882 0.954066
vt 0.096837 0.954066
vt 0.136717 0.939213
vt 0.398600 0.939213
vt 0.398600 0.954066
vt 0.136717 0.954066
vt 0.098099 0.939213
vt 0.313059 0.939213
vt 0.313059 0.954066
vt 0.098099 0.954066
vt 0.136717 0.939213
vt 0.398600 0.939213
vt 0.398600 0.954066
vt 0.136717 0.954066
vt 0.096837 0.939213
vt 0.335882 0.939213
vt 0.335882 0.954066
vt 0.096837 0.954066
vt 0.136717 0.939213
vt 0.398600 0.939213
vt 0.398600 0.954066
vt 0.136717 0.954066
vt 0.098099 0.939213
vt 0.313059 0.939213
vt 0.313059 0.954066
vt 0.098099 0.954066
vt 0.136717 0.939213
vt 0.398600 0.939213
vt 0.398600 0.954066
vt 0.136717 0.954066
vt 0.096837 0.939213
vt 0.335882 0.939213
vt 0.335882 0.954066
vt 0.096837 0.954066
vt 0.136717 0.939213
vt 0.398600 0.939213
vt 0.398600 0.954066
vt 0.136717 0.954066
vt 0.098099 0.939213
vt 0.313059 0.939213
vt 0.313059 0.954066
vt 0.098099 0.954066
vt 0.989114 0.922397
vt 0.989114 0.998532
vt 0.619930 0.998532
vt 0.619930 0.922397
vt 0.989114 0.922397
vt 0.989114 0.998532
vt 0.619930 0.998532
vt 0.619930 0.922397
vt 0.989114 0.922397
vt 0.989114 0.998532
vt 0.619930 0.998532
vt 0.619930 0.922397
vt 0.989114 0.922397
vt 0.989114 0.998532
vt 0.619930 0.998532
vt 0.619930 0.922397
vt 0.155907 0.374377
vt 0.066423 0.374377
vt 0.070081 0.359645
vt 0.152232 0.359645
vt 0.007615 0.284939
vt 0.219314 0.284939
vt 0.219314 0.289566
vt 0.007615 0.289566
vt 0.098354 0.374542
vt 0.014758 0.374383
vt 0.011240 0.360968
vt 0.094836 0.361001
vt 0.161631 0.374377
vt 0.064747 0.374377
vt 0.068920 0.359645
vt 0.157459 0.359645
vt 0.067124 0.359645
vt 0.160778 0.359645
vt 0.156744 0.374377
vt 0.071157 0.374377
vt 0.065754 0.359645
vt 0.162637 0.359645
vt 0.158677 0.374377
vt 0.069732 0.374377
vt 0.924681 0.613667
vt 0.993337 0.613667
vt 0.993337 0.680398
vt 0.924681 0.680398
vt 0.159154 0.374607
vt 0.075558 0.374574
vt 0.072040 0.361033
vt 0.155636 0.361066
vt 0.179800 0.374574
vt 0.176282 0.361033
vt 0.240600 0.374639
vt 0.237081 0.361099
vt 0.330177 0.549025
vt 0.139890 0.549025
vt 0.139890 0.518771
vt 0.330177 0.518771
vt 0.330177 0.549025
vt 0.139890 0.549025
vt 0.139890 0.518771
vt 0.330177 0.518771
vt 0.330177 0.549025
vt 0.139890 0.549025
vt 0.139890 0.518771
vt 0.330177 0.518771
vt 0.331519 0.549025
vt 0.138547 0.549025
vt 0.158401 0.518771
vt 0.311665 0.518771
vt 0.914627 0.682909
vt 0.914627 0.760718
vt 0.702927 0.760718
vt 0.702927 0.682909
vt 0.914627 0.682909
vt 0.914627 0.760718
vt 0.702927 0.760718
vt 0.702927 0.682909
vt 0.914627 0.682909
vt 0.914627 0.760718
vt 0.702927 0.760718
vt 0.702927 0.682909
vt 0.174634 0.518771
vt 0.295756 0.518771
vt 0.295756 0.549025
vt 0.174634 0.549025
vt 0.331519 0.549025
vt 0.138547 0.549025
vt 0.168655 0.518771
vt 0.301412 0.518771
vt 0.331519 0.549025
vt 0.138547 0.549025
vt 0.165007 0.518771
vt 0.305059 0.518771
vt 0.331519 0.549025
vt 0.138547 0.549025
vt 0.158890 0.518771
vt 0.311177 0.518771
vt 0.907009 0.615511
vt 0.972001 0.615511
vt 0.972001 0.680503
vt 0.907009 0.680503
vt 0.174634 0.518771
vt 0.295756 0.518771
vt 0.295756 0.549025
vt 0.174634 0.549025
vt 0.290875 0.518771
vt 0.411996 0.518771
vt 0.411996 0.549025
vt 0.290875 0.549025
vt 0.290875 0.518771
vt 0.411996 0.518771
vt 0.411996 0.549025
vt 0.290875 0.549025
vt 0.974158 0.617302
vt 0.974158 0.680323
vt 0.912623 0.680323
vt 0.912623 0.617302
vt 0.173631 0.284939
vt 0.385330 0.284939
vt 0.385330 0.289566
vt 0.173631 0.289566
vt 0.173631 0.284939
vt 0.385330 0.284939
vt 0.385330 0.289566
vt 0.173631 0.289566
vt 0.007615 0.284939
vt 0.219314 0.284939
vt 0.219314 0.289566
vt 0.007615 0.289566
vt 0.914627 0.760718
vt 0.702927 0.760718
vt 0.702927 0.682909
vt 0.914627 0.682909
vt 0.231033 0.289566
vt 0.019334 0.289566
vt 0.019334 0.284939
vt 0.231033 0.284939
vt 0.916917 0.614104
vt 0.982509 0.614104
vt 0.982509 0.679696
vt 0.916917 0.679696
vt 0.307205 0.289566
vt 0.095506 0.289566
vt 0.095506 0.284939
vt 0.307205 0.284939
vt 0.408641 0.724058
vt 0.408641 0.912081
vt 0.000000 0.912081
vt -0.000000 0.724058
vt 0.408641 0.724058
vt 0.408641 0.912081
vt 0.000000 0.912081
vt -0.000000 0.724058
vt 0.408641 0.724058
vt 0.408641 0.912081
vt 0.000000 0.912081
vt -0.000000 0.724058
vt 0.408641 0.724058
vt 0.408641 0.912081
vt 0.000000 0.912081
vt -0.000000 0.724058
vt 0.408641 0.724058
vt -0.000000 0.724058
vt 0.000000 0.912081
vt 0.408641 0.912081
vt 0.408641 0.724058
vt -0.000000 0.724058
vt 0.000000 0.912081
vt 0.408641 0.912081
vt 0.408641 0.724058
vt -0.000000 0.724058
vt 0.000000 0.912081
vt 0.408641 0.912081
vt 0.408641 0.724058
vt -0.000000 0.724058
vt 0.000000 0.912081
vt 0.408641 0.912081
vn 1.0000 -0.0000 0.0000
vn 0.0000 0.0000 1.0000
vn -1.0000 0.0000 0.0000
vn 0.0000 1.0000 0.0000
vn 0.0000 -0.0000 -1.0000
vn -0.1893 -0.9819 -0.0000
vn 0.1814 0.9834 0.0000
vn 0.0000 -1.0000 0.0000
vn -0.1978 -0.9802 0.0000
usemtl Atlas-01
s 1
f 69/1/1 2/2/1 4/3/1 70/4/1
f 70/5/2 4/6/2 8/7/2 71/8/2
f 71/9/3 8/10/3 6/11/3 72/12/3
f 7/13/3 5/14/3 65/15/3 66/16/3
f 4/17/4 2/18/4 9/19/4 10/20/4
f 8/21/4 4/22/4 10/23/4 11/24/4
f 6/25/4 8/26/4 11/27/4 12/28/4
f 15/29/4 14/30/4 13/31/4 16/32/4
f 11/33/5 10/34/5 14/35/5 15/36/5
f 12/37/1 11/38/1 15/39/1 16/32/1
f 10/40/3 9/41/3 13/31/3 14/42/3
f 17/43/1 18/44/1 20/45/1 19/46/1
f 19/47/2 20/48/2 24/49/2 23/50/2
f 23/51/3 24/52/3 22/53/3 21/54/3
f 21/55/5 22/56/5 18/57/5 17/58/5
f 25/59/1 26/60/1 28/61/1 27/62/1
f 27/63/2 28/64/2 32/65/2 31/66/2
f 31/67/3 32/68/3 30/69/3 29/70/3
f 29/71/5 30/72/5 26/73/5 25/74/5
f 33/75/1 34/76/1 36/77/1 35/78/1
f 35/79/2 36/80/2 40/81/2 39/82/2
f 39/83/3 40/84/3 38/85/3 37/86/3
f 37/87/5 38/88/5 34/89/5 33/90/5
f 41/91/1 42/92/1 44/93/1 43/94/1
f 43/95/2 44/96/2 48/97/2 47/98/2
f 47/99/3 48/100/3 46/101/3 45/102/3
f 45/103/5 46/104/5 42/105/5 41/106/5
f 49/107/1 50/108/1 52/109/1 51/110/1
f 51/111/2 52/112/2 56/113/2 55/114/2
f 55/115/3 56/116/3 54/117/3 53/118/3
f 53/119/5 54/120/5 50/121/5 49/122/5
f 51/123/6 55/124/6 59/125/6 57/126/6
f 56/127/7 52/128/7 98/129/7 99/130/7
f 60/131/2 58/132/2 62/133/2 64/134/2
f 49/135/8 51/136/8 57/137/8 58/138/8
f 55/139/8 53/140/8 60/141/8 59/142/8
f 53/143/6 49/144/6 58/145/6 60/146/6
f 61/147/9 63/148/9 64/149/9 62/150/9
f 57/151/5 59/152/5 63/153/5 61/154/5
f 59/155/1 60/131/1 64/134/1 63/156/1
f 58/157/3 57/151/3 61/154/3 62/158/3
f 1/159/1 3/160/1 68/161/1 67/162/1
f 3/163/2 7/164/2 66/165/2 68/166/2
f 5/167/5 1/168/5 67/169/5 65/170/5
f 68/171/8 66/172/8 91/173/8 92/174/8
f 7/175/3 71/176/3 72/177/3 5/178/3
f 3/179/2 70/180/2 71/181/2 7/182/2
f 1/183/1 69/184/1 70/185/1 3/186/1
f 89/187/3 92/188/3 96/189/3 93/190/3
f 65/191/8 67/192/8 89/193/8 90/194/8
f 67/195/8 68/196/8 92/197/8 89/198/8
f 66/199/8 65/200/8 90/201/8 91/202/8
f 96/203/8 95/204/8 94/205/8 93/206/8
f 91/207/1 90/208/1 94/209/1 95/210/1
f 92/211/5 91/212/5 95/213/5 96/214/5
f 90/215/2 89/216/2 93/217/2 94/218/2
f 99/219/7 98/220/7 97/221/7 100/222/7
f 54/223/7 56/224/7 99/225/7 100/226/7
f 52/227/7 50/228/7 97/229/7 98/230/7
f 50/231/7 54/232/7 100/233/7 97/234/7
f 72/235/5 69/236/5 1/237/5 5/238/5
f 2/239/4 6/240/4 12/241/4 9/242/4
f 9/243/2 12/244/2 16/245/2 13/246/2
f 6/247/5 2/248/5 69/249/5 72/250/5
usemtl Atlas-02
f 76/251/3 75/252/3 77/253/3 78/254/3
f 73/255/1 74/256/1 80/257/1 79/258/1
f 74/259/2 76/260/2 78/261/2 80/262/2
f 75/263/5 73/264/5 79/265/5 77/266/5
f 86/267/2 84/268/2 82/269/2 88/270/2
f 87/271/5 81/272/5 83/273/5 85/274/5
f 88/275/3 82/276/3 81/277/3 87/278/3
f 85/279/1 83/280/1 84/281/1 86/282/1
