# Blender v3.0.0 OBJ File: ''
# www.blender.org
mtllib Containers.mtl
o Containers
v -6.200000 2.900000 1.500000
v -6.200000 0.000000 1.500000
v -6.200000 2.900000 -1.500000
v -6.200000 -0.000000 -1.500000
v 6.200000 2.900000 1.500000
v 6.200000 0.000000 1.500000
v 6.200000 2.900000 -1.500000
v 6.200000 -0.000000 -1.500000
v -6.212407 5.802861 1.344032
v -6.212407 2.902861 1.344032
v -6.187476 5.802861 -1.655865
v -6.187476 2.902861 -1.655864
v 6.187165 5.802861 1.447082
v 6.187165 2.902861 1.447082
v 6.212096 5.802861 -1.552815
v 6.212096 2.902861 -1.552814
vt 0.000048 0.511891
vt 0.699271 0.511891
vt 0.699271 0.748354
vt 0.000048 0.748354
vt 0.000048 0.511891
vt 0.699271 0.511891
vt 0.699271 0.748354
vt 0.000048 0.748354
vt 0.699271 0.511891
vt 0.699271 0.748354
vt 0.000048 0.748354
vt 0.000048 0.511891
vt 0.932177 0.512456
vt 0.932177 0.750226
vt 0.698028 0.750226
vt 0.698028 0.512457
vt 0.699271 0.511891
vt 0.699271 0.748354
vt 0.000048 0.748354
vt 0.000048 0.511891
vt 0.932177 0.512456
vt 0.932177 0.750226
vt 0.698028 0.750226
vt 0.698028 0.512457
vt 0.000048 0.511891
vt 0.699271 0.511891
vt 0.699271 0.748354
vt 0.000048 0.748354
vt 0.000048 0.511891
vt 0.699271 0.511891
vt 0.699271 0.748354
vt 0.000048 0.748354
vt 0.699271 0.511891
vt 0.699271 0.748354
vt 0.000048 0.748354
vt 0.000048 0.511891
vt 0.932177 0.512456
vt 0.932177 0.750226
vt 0.698028 0.750226
vt 0.698028 0.512457
vt 0.699271 0.511891
vt 0.699271 0.748354
vt 0.000048 0.748354
vt 0.000048 0.511891
vt 0.932177 0.512456
vt 0.932177 0.750226
vt 0.698028 0.750226
vt 0.698028 0.512457
vn 0.0000 1.0000 -0.0000
vn 0.0000 -1.0000 0.0000
vn 0.0000 -0.0000 -1.0000
vn -1.0000 -0.0000 0.0000
vn 0.0000 0.0000 1.0000
vn 1.0000 0.0000 0.0000
vn 0.0083 -0.0000 -1.0000
vn -1.0000 -0.0000 -0.0083
vn -0.0083 0.0000 1.0000
vn 1.0000 0.0000 0.0083
usemtl Crane
s 1
f 1/1/1 5/2/1 7/3/1 3/4/1
f 6/5/2 2/6/2 4/7/2 8/8/2
f 4/9/3 3/10/3 7/11/3 8/12/3
f 2/13/4 1/14/4 3/15/4 4/16/4
f 6/17/5 5/18/5 1/19/5 2/20/5
f 8/21/6 7/22/6 5/23/6 6/24/6
f 9/25/1 13/26/1 15/27/1 11/28/1
f 14/29/2 10/30/2 12/31/2 16/32/2
f 12/33/7 11/34/7 15/35/7 16/36/7
f 10/37/8 9/38/8 11/39/8 12/40/8
f 14/41/9 13/42/9 9/43/9 10/44/9
f 16/45/10 15/46/10 13/47/10 14/48/10
