# Blender v3.0.0 OBJ File: ''
# www.blender.org
mtllib Footbridge-C-02.mtl
o footbridge_footbridge.001
v 22.275202 4.980395 -2.088278
v 22.275209 7.380395 -2.088278
v 22.275202 4.980396 2.088276
v 22.275202 7.380395 2.088276
v 22.471132 7.380395 1.826821
v 22.471132 7.380395 -1.826822
v 22.471132 5.653418 1.826821
v 22.471132 5.653418 -1.826823
v 26.099655 7.380395 -2.088278
v 26.099655 7.380395 1.826820
v 26.256891 4.980396 2.088276
v 26.256891 7.380395 2.088275
v 26.099655 5.653418 1.826820
v 26.256891 4.980395 -2.088278
v 26.256891 7.380395 -2.088279
v 26.099653 1.693641 -14.716088
v 26.099653 -0.000003 -14.716115
v 26.256891 -0.000003 -14.716088
v 26.256891 1.693641 -14.716088
v 26.256891 -0.000003 -13.583529
v 22.275208 -0.000003 -14.716088
v 22.275208 1.693638 -14.716088
v 22.471130 1.693638 -14.716088
v 22.471130 0.000781 -14.716088
v 22.275208 -0.000003 -13.583529
v 22.275202 -0.000002 2.088276
v 26.256891 -0.000002 2.088275
v 22.275202 4.980396 1.406947
v 22.275202 4.980396 0.354751
v 22.275202 4.980396 -0.354753
v 22.275202 4.980396 -1.406948
v 22.275202 4.600822 -2.088278
v 22.275202 4.600822 -1.406948
v 22.275202 4.600822 2.088276
v 22.275202 4.600822 1.406947
v 22.275202 4.600822 0.354751
v 22.275202 4.600822 -0.354753
v 26.099655 5.653418 -1.826823
v 22.471130 -0.000003 -14.716088
v 26.099653 2.055815 -10.810276
v 26.099655 3.768945 -6.123253
v 22.471130 2.055815 -10.810257
v 22.471130 3.768945 -6.123244
v 26.099655 4.111605 -6.123261
v 26.099655 4.111576 -5.342084
v 26.099655 4.454236 -5.342092
v 26.099655 4.454207 -4.560916
v 26.099655 4.796867 -4.560923
v 26.099655 4.796839 -3.779746
v 26.099655 5.190402 -3.779753
v 26.099655 5.190373 -2.998577
v 26.099655 5.641595 -2.998584
v 26.099655 5.641566 -2.217407
v 22.471130 4.111605 -6.123252
v 22.471130 4.111576 -5.342076
v 22.471130 4.454236 -5.342084
v 22.471130 4.454207 -4.560909
v 22.471130 4.796867 -4.560917
v 22.471130 4.796839 -3.779741
v 22.471130 5.190402 -3.779749
v 22.471130 5.190373 -2.998574
v 22.471130 5.641595 -2.998582
v 22.471130 5.641566 -2.217407
v 26.099653 0.342657 -14.716123
v 26.099653 0.342629 -13.934946
v 26.099653 0.685289 -13.934952
v 26.099653 0.685260 -13.153775
v 26.099653 1.027920 -13.153783
v 26.099653 1.027892 -12.372606
v 26.099653 1.370552 -12.372613
v 26.099653 1.370524 -11.591437
v 26.099653 1.713183 -11.591445
v 26.099653 1.713155 -10.810268
v 26.099653 2.055787 -10.029099
v 26.099653 2.398447 -10.029106
v 26.099653 2.398418 -9.247930
v 26.099653 2.741078 -9.247936
v 26.099653 2.741050 -8.466760
v 26.099653 3.083709 -8.466768
v 26.099653 3.083681 -7.685592
v 26.099653 3.426341 -7.685598
v 26.099653 3.426313 -6.904422
v 26.099655 3.768973 -6.904429
v 22.471130 0.342657 -14.716097
v 22.471130 0.342629 -13.934921
v 22.471130 0.685289 -13.934929
v 22.471130 0.685260 -13.153753
v 22.471130 1.027920 -13.153761
v 22.471130 1.027892 -12.372585
v 22.471130 1.370552 -12.372593
v 22.471130 1.370524 -11.591417
v 22.471130 1.713183 -11.591424
v 22.471130 1.713155 -10.810248
v 22.471130 2.055787 -10.029081
v 22.471130 2.398447 -10.029090
v 22.471130 2.398418 -9.247914
v 22.471130 2.741078 -9.247922
v 22.471130 2.741050 -8.466746
v 22.471130 3.083709 -8.466755
v 22.471130 3.083681 -7.685579
v 22.471130 3.426341 -7.685587
v 22.471130 3.426313 -6.904412
v 22.471130 3.768973 -6.904419
v 0.000000 7.380395 2.088276
v 0.000000 4.980395 -2.088276
v 0.000000 4.980396 0.354752
v 0.000000 4.980396 -0.354752
v 0.000000 4.980396 -1.406947
v 0.000000 4.600822 -2.088276
v 0.000000 4.600822 2.088276
v 0.000000 4.600822 -1.406947
v 0.000000 4.600822 0.354752
v 0.000000 4.600822 -0.354752
v -22.275202 4.980395 -2.088278
v -22.275209 7.380395 -2.088278
v -22.275202 4.980396 2.088276
v -22.275202 7.380395 2.088276
v -22.471132 7.380395 1.826821
v -22.471132 7.380395 -1.826822
v -22.471132 5.653418 1.826821
v -22.471132 5.653418 -1.826823
v -26.099655 7.380395 -2.088278
v -26.099655 7.380395 1.826820
v -26.256891 4.980396 2.088276
v -26.256891 7.380395 2.088275
v -26.099655 5.653418 1.826820
v -26.099655 5.653418 -1.826823
v -26.256891 4.980395 -2.088278
v -26.256891 7.380395 -2.088279
v -26.099653 1.693641 -14.716088
v -26.099653 -0.000003 -14.716115
v -26.256891 -0.000003 -14.716088
v -26.256891 1.693641 -14.716088
v -26.256891 -0.000003 -13.583529
v -22.275208 -0.000003 -14.716088
v -22.275208 1.693638 -14.716088
v -22.471130 1.693638 -14.716088
v -22.471130 0.000781 -14.716088
v -22.275208 -0.000003 -13.583529
v 0.000000 4.980396 2.088276
v 0.000000 7.380395 -2.088276
v -22.275202 -0.000002 2.088276
v -26.256891 -0.000002 2.088275
v 0.000000 7.380395 1.826821
v 0.000000 7.380395 -1.826821
v 0.000000 5.653418 1.826821
v 0.000000 5.653418 -1.826821
v -22.275202 4.980396 1.406947
v -22.275202 4.980396 0.354751
v -22.275202 4.980396 -0.354753
v -22.275202 4.980396 -1.406948
v 0.000000 4.980396 1.406947
v -22.275202 4.600822 -2.088278
v -22.275202 4.600822 -1.406948
v -22.275202 4.600822 2.088276
v -22.275202 4.600822 1.406947
v -22.275202 4.600822 0.354751
v -22.275202 4.600822 -0.354753
v 0.000000 4.600822 1.406947
v -22.471130 -0.000003 -14.716088
v -26.099653 2.055815 -10.810276
v -26.099655 3.768945 -6.123253
v -22.471130 2.055815 -10.810257
v -22.471130 3.768945 -6.123244
v -26.099655 4.111605 -6.123261
v -26.099655 4.111576 -5.342084
v -26.099655 4.454236 -5.342092
v -26.099655 4.454207 -4.560916
v -26.099655 4.796867 -4.560923
v -26.099655 4.796839 -3.779746
v -26.099655 5.190402 -3.779753
v -26.099655 5.190373 -2.998577
v -26.099655 5.641595 -2.998584
v -26.099655 5.641566 -2.217407
v -22.471130 4.111605 -6.123252
v -22.471130 4.111576 -5.342076
v -22.471130 4.454236 -5.342084
v -22.471130 4.454207 -4.560909
v -22.471130 4.796867 -4.560917
v -22.471130 4.796839 -3.779741
v -22.471130 5.190402 -3.779749
v -22.471130 5.190373 -2.998574
v -22.471130 5.641595 -2.998582
v -22.471130 5.641566 -2.217407
v -26.099653 0.342657 -14.716123
v -26.099653 0.342629 -13.934946
v -26.099653 0.685289 -13.934952
v -26.099653 0.685260 -13.153775
v -26.099653 1.027920 -13.153783
v -26.099653 1.027892 -12.372606
v -26.099653 1.370552 -12.372613
v -26.099653 1.370524 -11.591437
v -26.099653 1.713183 -11.591445
v -26.099653 1.713155 -10.810268
v -26.099653 2.055787 -10.029099
v -26.099653 2.398447 -10.029106
v -26.099653 2.398418 -9.247930
v -26.099653 2.741078 -9.247936
v -26.099653 2.741050 -8.466760
v -26.099653 3.083709 -8.466768
v -26.099653 3.083681 -7.685592
v -26.099653 3.426341 -7.685598
v -26.099653 3.426313 -6.904422
v -26.099655 3.768973 -6.904429
v -22.471130 0.342657 -14.716097
v -22.471130 0.342629 -13.934921
v -22.471130 0.685289 -13.934929
v -22.471130 0.685260 -13.153753
v -22.471130 1.027920 -13.153761
v -22.471130 1.027892 -12.372585
v -22.471130 1.370552 -12.372593
v -22.471130 1.370524 -11.591417
v -22.471130 1.713183 -11.591424
v -22.471130 1.713155 -10.810248
v -22.471130 2.055787 -10.029081
v -22.471130 2.398447 -10.029090
v -22.471130 2.398418 -9.247914
v -22.471130 2.741078 -9.247922
v -22.471130 2.741050 -8.466746
v -22.471130 3.083709 -8.466755
v -22.471130 3.083681 -7.685579
v -22.471130 3.426341 -7.685587
v -22.471130 3.426313 -6.904412
v -22.471130 3.768973 -6.904419
vt 0.108153 0.680359
vt 0.000321 0.680348
vt 0.005860 0.673494
vt 0.100966 0.673504
vt 0.304391 0.673495
vt 0.314776 0.704358
vt 0.220774 0.735514
vt 0.216667 0.702568
vt 0.000311 0.673492
vt 0.103992 0.673492
vt 0.103992 0.735514
vt 0.000311 0.735514
vt 0.052034 0.734295
vt 0.000316 0.734295
vt 0.000316 0.715828
vt 0.052034 0.715828
vt 0.170662 0.712253
vt 0.072582 0.712253
vt 0.072582 0.707367
vt 0.164522 0.707367
vt 0.000017 0.673490
vt 0.109092 0.673490
vt 0.109092 0.735514
vt 0.000017 0.735514
vt 0.010514 0.703762
vt 0.000328 0.673495
vt 0.439689 0.711005
vt 0.191016 0.711004
vt 0.191016 0.704846
vt 0.439689 0.704846
vt 0.028475 0.673495
vt 0.386173 0.673490
vt 0.415662 0.691748
vt 0.395803 0.735514
vt 0.000334 0.735514
vt 0.380465 0.724261
vt 0.084671 0.723481
vt 0.084723 0.684745
vt 0.380905 0.684745
vt 0.411494 0.735514
vt 0.019384 0.729816
vt 0.000334 0.686138
vt 0.029764 0.673495
vt 0.384499 0.673617
vt 0.407360 0.696725
vt 0.164560 0.696046
vt 0.164560 0.688455
vt 0.400795 0.688455
vt 0.062372 0.675363
vt 0.062372 0.733643
vt 0.000306 0.733643
vt 0.000306 0.675364
vt 0.156029 0.735514
vt 0.041314 0.675509
vt 0.197709 0.675509
vt 0.197709 0.735514
vt 0.190909 0.735514
vt 0.180409 0.735514
vt 0.173329 0.735514
vt 0.162829 0.735514
vt 0.047899 0.673493
vt 0.047899 0.735514
vt 0.037584 0.735514
vt 0.037584 0.673493
vt 0.000319 0.735514
vt 0.000319 0.673522
vt 0.013702 0.673493
vt 0.013702 0.735514
vt 0.000317 0.734312
vt 0.000317 0.713714
vt 0.499999 0.713714
vt 0.499999 0.734312
vt 0.611328 0.683734
vt 1.000000 0.683734
vt 1.000000 0.759758
vt 0.611328 0.759758
vt 0.476288 0.673496
vt 0.476219 0.681736
vt 0.000474 0.681736
vt 0.000543 0.673496
vt 0.499999 0.715828
vt 0.499999 0.734295
vt 0.499999 0.673546
vt 0.499999 0.680337
vt 0.000321 0.687586
vt 0.004035 0.680367
vt 0.420823 0.680368
vt 0.420758 0.687586
vt 0.611328 0.762306
vt 1.000000 0.762306
vt 1.000000 0.839746
vt 0.611328 0.839746
vt 0.000337 0.733325
vt 0.000337 0.675226
vt 0.499999 0.675226
vt 0.499999 0.733325
vt 0.221984 0.733502
vt 0.221984 0.675505
vt 0.271948 0.675505
vt 0.271948 0.733502
vt 0.000320 0.733387
vt 0.000320 0.675620
vt 0.196963 0.675620
vt 0.052726 0.733387
vt 0.000406 0.700377
vt 0.000474 0.692137
vt 0.476219 0.692138
vt 0.476151 0.700377
vt 0.476210 0.708629
vt 0.000474 0.708629
vt 0.000474 0.692567
vt 0.476210 0.692567
vt 0.476151 0.716440
vt 0.000406 0.716440
vt 0.476142 0.727271
vt 0.000406 0.727270
vt 0.000406 0.716869
vt 0.476142 0.716869
vt 0.476082 0.734165
vt 0.000337 0.734165
vt 0.000337 0.723334
vt 0.476082 0.723334
vt 0.000337 0.735514
vt 0.476073 0.735514
vt 0.000543 0.684327
vt 0.476279 0.684327
vt 0.476082 0.724680
vt 0.000337 0.724680
vt 0.004858 0.733435
vt 0.000321 0.733436
vt 0.000322 0.675571
vt 0.004858 0.675571
vt 0.104664 0.733435
vt 0.100127 0.733436
vt 0.100127 0.675571
vt 0.104664 0.675571
vt 0.054761 0.733435
vt 0.050224 0.733436
vt 0.050224 0.675571
vt 0.054761 0.675571
vt 0.095590 0.733436
vt 0.095591 0.675571
vt 0.091054 0.733436
vt 0.091054 0.675571
vt 0.086517 0.733436
vt 0.086517 0.675571
vt 0.081980 0.733436
vt 0.081981 0.675571
vt 0.077444 0.733435
vt 0.077444 0.675571
vt 0.072907 0.733436
vt 0.072907 0.675571
vt 0.068371 0.733436
vt 0.068371 0.675571
vt 0.063834 0.733436
vt 0.063834 0.675571
vt 0.059297 0.733435
vt 0.059298 0.675571
vt 0.150030 0.733436
vt 0.145493 0.733436
vt 0.145493 0.675571
vt 0.150030 0.675571
vt 0.140957 0.733436
vt 0.140957 0.675571
vt 0.136420 0.733436
vt 0.136420 0.675571
vt 0.131883 0.733436
vt 0.131883 0.675571
vt 0.127347 0.733435
vt 0.127347 0.675571
vt 0.122810 0.733436
vt 0.122810 0.675571
vt 0.118274 0.733436
vt 0.118274 0.675571
vt 0.113737 0.733436
vt 0.113737 0.675571
vt 0.109200 0.733435
vt 0.109200 0.675571
vt 0.045687 0.733436
vt 0.045688 0.675571
vt 0.041151 0.733436
vt 0.041151 0.675571
vt 0.036614 0.733436
vt 0.036614 0.675571
vt 0.032077 0.733436
vt 0.032078 0.675571
vt 0.027541 0.733435
vt 0.027541 0.675571
vt 0.023004 0.733436
vt 0.023005 0.675571
vt 0.018468 0.733436
vt 0.018468 0.675571
vt 0.013931 0.733436
vt 0.013931 0.675571
vt 0.009394 0.733435
vt 0.009395 0.675571
vt 0.108153 0.680359
vt 0.100966 0.673504
vt 0.005860 0.673494
vt 0.000321 0.680348
vt 0.304391 0.673495
vt 0.216667 0.702568
vt 0.220774 0.735514
vt 0.314776 0.704358
vt 0.000311 0.673492
vt 0.000311 0.735514
vt 0.103992 0.735514
vt 0.103992 0.673492
vt 0.052034 0.734295
vt 0.052034 0.715828
vt 0.000316 0.715828
vt 0.000316 0.734295
vt 0.170662 0.712253
vt 0.164522 0.707367
vt 0.072582 0.707367
vt 0.072582 0.712253
vt 0.000017 0.673490
vt 0.000017 0.735514
vt 0.109092 0.735514
vt 0.109092 0.673490
vt 0.000328 0.673495
vt 0.010514 0.703762
vt 0.439689 0.711005
vt 0.439689 0.704846
vt 0.191016 0.704846
vt 0.191016 0.711004
vt 0.028475 0.673495
vt 0.000334 0.735514
vt 0.395803 0.735514
vt 0.415662 0.691748
vt 0.386173 0.673490
vt 0.380465 0.724261
vt 0.380905 0.684745
vt 0.084723 0.684745
vt 0.084671 0.723481
vt 0.411494 0.735514
vt 0.384499 0.673617
vt 0.029764 0.673495
vt 0.000334 0.686138
vt 0.019384 0.729816
vt 0.407360 0.696725
vt 0.400795 0.688455
vt 0.164560 0.688455
vt 0.164560 0.696046
vt 0.062372 0.675363
vt 0.000306 0.675364
vt 0.000306 0.733643
vt 0.062372 0.733643
vt 0.156029 0.735514
vt 0.162829 0.735514
vt 0.173329 0.735514
vt 0.180409 0.735514
vt 0.190909 0.735514
vt 0.197709 0.735514
vt 0.197709 0.675509
vt 0.041314 0.675509
vt 0.047899 0.673493
vt 0.037584 0.673493
vt 0.037584 0.735514
vt 0.047899 0.735514
vt 0.000319 0.735514
vt 0.013702 0.735514
vt 0.013702 0.673493
vt 0.000319 0.673522
vt 0.499999 0.734312
vt 0.499999 0.713714
vt 1.000000 0.683734
vt 1.000000 0.759758
vt 0.611328 0.759758
vt 0.611328 0.683734
vt 0.000543 0.673496
vt 0.000474 0.681736
vt 0.000321 0.687586
vt 0.004035 0.680367
vt 1.000000 0.762306
vt 1.000000 0.839746
vt 0.611328 0.839746
vt 0.611328 0.762306
vt 0.000337 0.733325
vt 0.000337 0.675226
vt 0.221984 0.733502
vt 0.271948 0.733502
vt 0.271948 0.675505
vt 0.221984 0.675505
vt 0.000320 0.733387
vt 0.052726 0.733387
vt 0.196963 0.675620
vt 0.000320 0.675620
vt 0.000406 0.700377
vt 0.000474 0.692137
vt 0.000474 0.692567
vt 0.000474 0.708629
vt 0.000406 0.716440
vt 0.000406 0.716869
vt 0.000406 0.727270
vt 0.000337 0.723334
vt 0.000337 0.734165
vt 0.000337 0.735514
vt 0.000543 0.684327
vt 0.000337 0.724680
vt 0.004858 0.733435
vt 0.004858 0.675571
vt 0.000322 0.675571
vt 0.000321 0.733436
vt 0.104664 0.733435
vt 0.104664 0.675571
vt 0.100127 0.675571
vt 0.100127 0.733436
vt 0.054761 0.733435
vt 0.054761 0.675571
vt 0.050224 0.675571
vt 0.050224 0.733436
vt 0.095591 0.675571
vt 0.095590 0.733436
vt 0.091054 0.675571
vt 0.091054 0.733436
vt 0.086517 0.675571
vt 0.086517 0.733436
vt 0.081981 0.675571
vt 0.081980 0.733436
vt 0.077444 0.675571
vt 0.077444 0.733435
vt 0.072907 0.675571
vt 0.072907 0.733436
vt 0.068371 0.675571
vt 0.068371 0.733436
vt 0.063834 0.675571
vt 0.063834 0.733436
vt 0.059298 0.675571
vt 0.059297 0.733435
vt 0.150030 0.733436
vt 0.150030 0.675571
vt 0.145493 0.675571
vt 0.145493 0.733436
vt 0.140957 0.675571
vt 0.140957 0.733436
vt 0.136420 0.675571
vt 0.136420 0.733436
vt 0.131883 0.675571
vt 0.131883 0.733436
vt 0.127347 0.675571
vt 0.127347 0.733435
vt 0.122810 0.675571
vt 0.122810 0.733436
vt 0.118274 0.675571
vt 0.118274 0.733436
vt 0.113737 0.675571
vt 0.113737 0.733436
vt 0.109200 0.675571
vt 0.109200 0.733435
vt 0.045688 0.675571
vt 0.045687 0.733436
vt 0.041151 0.675571
vt 0.041151 0.733436
vt 0.036614 0.675571
vt 0.036614 0.733436
vt 0.032078 0.675571
vt 0.032077 0.733436
vt 0.027541 0.675571
vt 0.027541 0.733435
vt 0.023005 0.675571
vt 0.023004 0.733436
vt 0.018468 0.675571
vt 0.018468 0.733436
vt 0.013931 0.675571
vt 0.013931 0.733436
vt 0.009395 0.675571
vt 0.009394 0.733435
vn 0.0000 1.0000 0.0000
vn -1.0000 -0.0000 0.0000
vn 0.0000 0.0000 1.0000
vn -0.0000 0.0000 -1.0000
vn 1.0000 0.0000 0.0000
vn 0.0000 0.9118 -0.4106
vn 0.2621 0.8814 -0.3929
vn 0.0001 0.0000 -1.0000
vn 0.0000 -1.0000 0.0000
vn -0.0000 0.9995 -0.0303
vn -0.2621 0.8814 -0.3929
vn -0.0001 0.0000 -1.0000
usemtl Atlas-01.015
s 1
f 4/1/1 12/2/1 10/3/1 5/4/1
f 13/5/2 10/6/2 9/7/2 38/8/2
f 3/9/3 11/10/3 12/11/3 4/12/3
f 5/13/4 10/14/4 13/15/4 7/16/4
f 12/17/1 15/18/1 9/19/1 10/20/1
f 11/21/5 14/22/5 15/23/5 12/24/5
f 9/7/2 16/25/2 17/26/2 38/8/2
f 15/27/6 19/28/6 16/29/6 9/30/6
f 14/31/5 20/32/5 18/33/5 19/34/5 15/35/5
f 8/36/5 24/37/5 23/38/5 6/39/5
f 2/40/2 22/41/2 21/42/2 25/43/2 1/44/2
f 6/45/7 23/46/7 22/47/7 2/48/7
f 8/49/1 7/50/1 13/51/1 38/52/1
f 1/53/2 25/54/2 26/55/2 3/56/2 28/57/2 29/58/2 30/59/2 31/60/2
f 17/61/8 16/62/8 19/63/8 18/64/8
f 23/65/4 24/66/4 21/67/4 22/68/4
f 145/69/3 147/70/3 8/71/3 6/72/3
f 140/73/3 3/74/3 4/75/3 104/76/3
f 140/77/3 110/78/3 34/79/3 3/80/3
f 5/13/4 7/16/4 146/81/4 144/82/4
f 4/1/1 5/4/1 144/83/1 104/84/1
f 6/85/1 2/86/1 141/87/1 145/88/1
f 1/89/4 105/90/4 141/91/4 2/92/4
f 7/93/1 8/94/1 147/95/1 146/96/1
f 3/97/3 26/98/3 27/99/3 11/100/3
f 11/101/5 27/102/5 20/103/5 14/104/5
f 28/105/4 35/106/4 159/107/4 152/108/4
f 108/109/9 31/110/9 30/111/9 107/112/9
f 106/113/9 29/114/9 28/105/9 152/108/9
f 159/107/9 35/106/9 34/79/9 110/78/9
f 109/115/9 32/116/9 33/117/9 111/118/9
f 113/119/9 37/120/9 36/121/9 112/122/9
f 1/123/4 32/116/4 109/115/4 105/124/4
f 108/109/3 111/118/3 33/117/3 31/110/3
f 30/111/4 37/125/4 113/126/4 107/112/4
f 106/113/3 112/127/3 36/128/3 29/114/3
f 64/129/4 17/130/4 39/131/4 84/132/4
f 44/133/4 41/134/4 43/135/4 54/136/4
f 74/137/1 40/138/1 42/139/1 94/140/1
f 41/134/1 83/141/1 103/142/1 43/135/1
f 83/141/4 82/143/4 102/144/4 103/142/4
f 82/143/1 81/145/1 101/146/1 102/144/1
f 81/145/4 80/147/4 100/148/4 101/146/4
f 80/147/1 79/149/1 99/150/1 100/148/1
f 79/149/4 78/151/4 98/152/4 99/150/4
f 78/151/1 77/153/1 97/154/1 98/152/1
f 77/153/4 76/155/4 96/156/4 97/154/4
f 76/155/1 75/157/1 95/158/1 96/156/1
f 75/157/4 74/137/4 94/140/4 95/158/4
f 38/159/10 53/160/10 63/161/10 8/162/10
f 53/160/1 52/163/1 62/164/1 63/161/1
f 52/163/4 51/165/4 61/166/4 62/164/4
f 51/165/1 50/167/1 60/168/1 61/166/1
f 50/167/4 49/169/4 59/170/4 60/168/4
f 49/169/1 48/171/1 58/172/1 59/170/1
f 48/171/4 47/173/4 57/174/4 58/172/4
f 47/173/1 46/175/1 56/176/1 57/174/1
f 46/175/4 45/177/4 55/178/4 56/176/4
f 45/177/1 44/133/1 54/136/1 55/178/1
f 40/138/4 73/179/4 93/180/4 42/139/4
f 73/179/1 72/181/1 92/182/1 93/180/1
f 72/181/4 71/183/4 91/184/4 92/182/4
f 71/183/1 70/185/1 90/186/1 91/184/1
f 70/185/4 69/187/4 89/188/4 90/186/4
f 69/187/1 68/189/1 88/190/1 89/188/1
f 68/189/4 67/191/4 87/192/4 88/190/4
f 67/191/1 66/193/1 86/194/1 87/192/1
f 66/193/4 65/195/4 85/196/4 86/194/4
f 65/195/1 64/129/1 84/132/1 85/196/1
f 117/197/1 118/198/1 123/199/1 125/200/1
f 126/201/5 127/202/5 122/203/5 123/204/5
f 116/205/3 117/206/3 125/207/3 124/208/3
f 118/209/4 120/210/4 126/211/4 123/212/4
f 125/213/1 123/214/1 122/215/1 129/216/1
f 124/217/2 125/218/2 129/219/2 128/220/2
f 122/203/5 127/202/5 131/221/5 130/222/5
f 129/223/6 122/224/6 130/225/6 133/226/6
f 128/227/2 129/228/2 133/229/2 132/230/2 134/231/2
f 121/232/2 119/233/2 137/234/2 138/235/2
f 115/236/5 114/237/5 139/238/5 135/239/5 136/240/5
f 119/241/11 115/242/11 136/243/11 137/244/11
f 121/245/1 127/246/1 126/247/1 120/248/1
f 114/249/5 151/250/5 150/251/5 149/252/5 148/253/5 116/254/5 142/255/5 139/256/5
f 131/257/12 132/258/12 133/259/12 130/260/12
f 137/261/4 136/262/4 135/263/4 138/264/4
f 145/69/3 119/265/3 121/266/3 147/70/3
f 140/267/3 104/268/3 117/269/3 116/270/3
f 140/77/3 116/271/3 155/272/3 110/78/3
f 118/209/4 144/82/4 146/81/4 120/210/4
f 117/197/1 104/84/1 144/83/1 118/198/1
f 119/273/1 145/88/1 141/87/1 115/274/1
f 114/275/4 115/276/4 141/277/4 105/278/4
f 120/279/1 146/96/1 147/95/1 121/280/1
f 116/281/3 124/282/3 143/283/3 142/284/3
f 124/285/2 128/286/2 134/287/2 143/288/2
f 148/289/4 152/108/4 159/107/4 156/290/4
f 108/109/9 107/112/9 150/291/9 151/292/9
f 106/113/9 152/108/9 148/289/9 149/293/9
f 159/107/9 110/78/9 155/272/9 156/290/9
f 109/115/9 111/118/9 154/294/9 153/295/9
f 113/119/9 112/122/9 157/296/9 158/297/9
f 114/298/4 105/124/4 109/115/4 153/295/4
f 108/109/3 151/292/3 154/294/3 111/118/3
f 150/291/4 107/112/4 113/126/4 158/299/4
f 106/113/3 149/293/3 157/300/3 112/127/3
f 185/301/4 205/302/4 160/303/4 131/304/4
f 165/305/4 175/306/4 164/307/4 162/308/4
f 195/309/1 215/310/1 163/311/1 161/312/1
f 162/308/1 164/307/1 224/313/1 204/314/1
f 204/314/4 224/313/4 223/315/4 203/316/4
f 203/316/1 223/315/1 222/317/1 202/318/1
f 202/318/4 222/317/4 221/319/4 201/320/4
f 201/320/1 221/319/1 220/321/1 200/322/1
f 200/322/4 220/321/4 219/323/4 199/324/4
f 199/324/1 219/323/1 218/325/1 198/326/1
f 198/326/4 218/325/4 217/327/4 197/328/4
f 197/328/1 217/327/1 216/329/1 196/330/1
f 196/330/4 216/329/4 215/310/4 195/309/4
f 127/331/10 121/332/10 184/333/10 174/334/10
f 174/334/1 184/333/1 183/335/1 173/336/1
f 173/336/4 183/335/4 182/337/4 172/338/4
f 172/338/1 182/337/1 181/339/1 171/340/1
f 171/340/4 181/339/4 180/341/4 170/342/4
f 170/342/1 180/341/1 179/343/1 169/344/1
f 169/344/4 179/343/4 178/345/4 168/346/4
f 168/346/1 178/345/1 177/347/1 167/348/1
f 167/348/4 177/347/4 176/349/4 166/350/4
f 166/350/1 176/349/1 175/306/1 165/305/1
f 161/312/4 163/311/4 214/351/4 194/352/4
f 194/352/1 214/351/1 213/353/1 193/354/1
f 193/354/4 213/353/4 212/355/4 192/356/4
f 192/356/1 212/355/1 211/357/1 191/358/1
f 191/358/4 211/357/4 210/359/4 190/360/4
f 190/360/1 210/359/1 209/361/1 189/362/1
f 189/362/4 209/361/4 208/363/4 188/364/4
f 188/364/1 208/363/1 207/365/1 187/366/1
f 187/366/4 207/365/4 206/367/4 186/368/4
f 186/368/1 206/367/1 205/302/1 185/301/1
