# Blender v3.0.0 OBJ File: ''
# www.blender.org
mtllib Light-06.mtl
o Light-02_Cylinder
v -0.000001 6.482173 0.050255
v 0.000001 -1.470362 0.050256
v 0.056757 6.482173 0.026745
v 0.056759 -1.470362 0.026746
v 0.080267 6.482173 -0.030013
v 0.080269 -1.470362 -0.030012
v 0.056757 6.482173 -0.086771
v 0.056759 -1.470362 -0.086770
v -0.000001 6.482173 -0.110281
v 0.000001 -1.470362 -0.110280
v -0.056759 6.482173 -0.086771
v -0.056757 -1.470362 -0.086770
v -0.080269 6.482173 -0.030013
v -0.080267 -1.470362 -0.030012
v -0.056759 6.482173 0.026745
v -0.056757 -1.470362 0.026746
v 0.028192 6.951454 0.026745
v -0.054506 7.382494 0.026745
v -0.186807 7.775047 0.026745
v -0.364074 8.128788 0.026745
v -0.581558 8.443417 0.026745
v -0.834430 8.718716 0.026745
v -1.117836 8.954573 0.026744
v -1.426942 9.150969 0.026744
v -1.756969 9.307949 0.026744
v -2.103198 9.425587 0.026744
v -2.718102 9.550320 0.026749
v -5.384058 9.947729 0.026741
v 0.051518 6.954389 -0.030013
v -0.031769 7.388476 -0.030013
v -0.165105 7.784091 -0.030013
v -0.343845 8.140768 -0.030013
v -0.563188 8.458088 -0.030013
v -0.818218 8.735743 -0.030014
v -1.103984 8.973572 -0.030014
v -1.415567 9.171545 -0.030014
v -1.748123 9.329733 -0.030014
v -2.096891 9.448238 -0.030014
v -2.714547 9.573547 -0.030009
v -5.382800 9.971205 -0.030017
v 0.028192 6.951454 -0.086771
v -0.054506 7.382495 -0.086771
v -0.186807 7.775047 -0.086771
v -0.364074 8.128790 -0.086771
v -0.581558 8.443419 -0.086772
v -0.834430 8.718716 -0.086772
v -1.117836 8.954575 -0.086772
v -1.426942 9.150970 -0.086772
v -1.756969 9.307949 -0.086772
v -2.103198 9.425589 -0.086772
v -2.718102 9.550322 -0.086768
v -5.384058 9.947729 -0.086775
v -0.028122 6.944369 -0.110281
v -0.109395 7.368052 -0.110281
v -0.239199 7.753217 -0.110281
v -0.412911 8.099865 -0.110281
v -0.625909 8.407999 -0.110281
v -0.873571 8.677612 -0.110282
v -1.151276 8.908712 -0.110282
v -1.454401 9.101295 -0.110282
v -1.778324 9.255362 -0.110282
v -2.118424 9.370911 -0.110282
v -2.726684 9.494243 -0.110277
v -5.387093 9.891052 -0.110285
v -0.084436 6.937285 -0.086771
v -0.164285 7.353611 -0.086771
v -0.291591 7.731387 -0.086771
v -0.461747 8.070944 -0.086771
v -0.670259 8.372580 -0.086772
v -0.912711 8.636509 -0.086772
v -1.184715 8.862852 -0.086772
v -1.481859 9.051620 -0.086772
v -1.799679 9.202774 -0.086772
v -2.133650 9.316235 -0.086772
v -2.735265 9.438162 -0.086767
v -5.390129 9.834375 -0.086775
v -0.107762 6.934353 -0.030013
v -0.187021 7.347630 -0.030013
v -0.313293 7.722345 -0.030013
v -0.481976 8.058966 -0.030013
v -0.688630 8.357910 -0.030013
v -0.928924 8.619483 -0.030014
v -1.198567 8.843855 -0.030014
v -1.493234 9.031046 -0.030014
v -1.808525 9.180992 -0.030014
v -2.139957 9.293585 -0.030014
v -2.738821 9.414934 -0.030009
v -5.391387 9.810900 -0.030017
v -0.084436 6.937285 0.026745
v -0.164285 7.353610 0.026745
v -0.291591 7.731387 0.026745
v -0.461747 8.070944 0.026745
v -0.670259 8.372580 0.026745
v -0.912711 8.636511 0.026745
v -1.184715 8.862852 0.026744
v -1.481859 9.051622 0.026744
v -1.799679 9.202774 0.026744
v -2.133650 9.316235 0.026744
v -2.735265 9.438162 0.026749
v -5.390129 9.834375 0.026741
v -3.932519 9.699698 0.050278
v -3.938585 9.643347 0.026768
v -3.941098 9.620008 -0.029990
v -3.938585 9.643347 -0.086748
v -3.932518 9.699698 -0.110258
v -3.926453 9.756049 -0.086748
v -3.923940 9.779387 -0.029990
v -3.926452 9.756048 0.026768
v -5.387094 9.891052 0.050251
v -2.726684 9.494243 0.050259
v -2.118424 9.370911 0.050254
v -1.778324 9.255363 0.050254
v -1.454401 9.101295 0.050254
v -1.151276 8.908712 0.050254
v -0.873571 8.677612 0.050254
v -0.625909 8.407999 0.050255
v -0.412911 8.099867 0.050255
v -0.239199 7.753217 0.050255
v -0.109395 7.368054 0.050255
v -0.028122 6.944372 0.050255
v -5.354166 9.807942 -0.198392
v -5.354166 9.807942 0.138358
v -5.587146 9.804616 -0.270747
v -5.587146 9.804616 0.210712
v -5.433545 9.798616 0.176719
v -5.507316 9.801181 0.193715
v -5.507316 9.801181 -0.253750
v -5.433545 9.798616 -0.236753
v -6.477776 9.929106 -0.139889
v -6.348177 9.910991 -0.270747
v -6.460413 9.926679 -0.205318
v -6.412977 9.920048 -0.253215
v -6.348177 9.910991 0.210712
v -6.477776 9.929106 0.079854
v -6.412977 9.920048 0.193180
v -6.460413 9.926679 0.145283
v -6.485734 9.930218 -0.030017
v -5.372051 9.960947 -0.186668
v -5.372051 9.960947 0.126633
v -5.582263 10.039086 -0.253984
v -5.582263 10.039086 0.193949
v -5.444916 9.993732 0.162323
v -5.510533 10.017709 0.178136
v -5.510533 10.017709 -0.238171
v -5.444916 9.993732 -0.222357
v -6.410875 10.154908 -0.132238
v -6.290301 10.138054 -0.253984
v -6.394721 10.152650 -0.193111
v -6.350588 10.146481 -0.237673
v -6.290301 10.138054 0.193949
v -6.410875 10.154908 0.072203
v -6.350588 10.146481 0.177638
v -6.394721 10.152650 0.133076
v -6.418278 10.155943 -0.030017
v -5.354166 9.807942 -0.198392
v -5.354166 9.807942 0.138358
v -5.587146 9.804616 -0.270747
v -5.587146 9.804616 0.210712
v -5.433545 9.798616 0.176719
v -5.507316 9.801181 0.193715
v -5.507316 9.801181 -0.253750
v -5.433545 9.798616 -0.236753
v -6.477776 9.929106 -0.139889
v -6.348177 9.910991 -0.270747
v -6.460413 9.926679 -0.205318
v -6.412977 9.920048 -0.253215
v -6.348177 9.910991 0.210712
v -6.477776 9.929106 0.079854
v -6.412977 9.920048 0.193180
v -6.460413 9.926679 0.145283
v -6.485734 9.930218 -0.030017
v -5.372051 9.960947 -0.186668
v -5.372051 9.960947 0.126633
v -5.582263 10.039086 -0.253984
v -5.582263 10.039086 0.193949
v -5.444916 9.993732 0.162323
v -5.510533 10.017709 0.178136
v -5.510533 10.017709 -0.238171
v -5.444916 9.993732 -0.222357
v -6.410875 10.154908 -0.132238
v -6.290301 10.138054 -0.253984
v -6.394721 10.152650 -0.193111
v -6.350588 10.146481 -0.237673
v -6.290301 10.138054 0.193949
v -6.410875 10.154908 0.072203
v -6.350588 10.146481 0.177638
v -6.394721 10.152650 0.133076
v -6.418278 10.155943 -0.030017
vt 0.004949 0.712581
vt 0.994710 0.712581
vt 0.994710 0.739253
vt 0.004949 0.739253
vt 0.004949 0.525870
vt 0.994710 0.525870
vt 0.994710 0.552544
vt 0.004949 0.552544
vt 0.994710 0.579218
vt 0.004949 0.579218
vt 0.994710 0.605890
vt 0.004949 0.605890
vt 0.994710 0.632562
vt 0.004949 0.632562
vt 0.994710 0.659236
vt 0.004949 0.659236
vt 0.994710 0.685909
vt 0.004949 0.685909
vt 0.273386 0.525870
vt 0.273386 0.552544
vt 0.191911 0.552544
vt 0.191911 0.525870
vt 0.410438 0.525870
vt 0.410438 0.552544
vt 0.386474 0.552544
vt 0.386474 0.525870
vt 0.434350 0.525870
vt 0.434350 0.552544
vt 0.458228 0.525870
vt 0.458228 0.552544
vt 0.482136 0.525870
vt 0.482136 0.552544
vt 0.506187 0.525870
vt 0.506187 0.552544
vt 0.530558 0.525870
vt 0.530558 0.552544
vt 0.555494 0.525870
vt 0.555494 0.552544
vt 0.581306 0.525870
vt 0.581306 0.552544
vt 0.608363 0.525870
vt 0.608363 0.552544
vt 0.637082 0.552544
vt 0.637082 0.525870
vt 0.667908 0.552544
vt 0.667908 0.525870
vt 0.273386 0.579218
vt 0.191911 0.579218
vt 0.410438 0.579218
vt 0.386474 0.579218
vt 0.434350 0.579218
vt 0.458228 0.579218
vt 0.482136 0.579218
vt 0.506187 0.579218
vt 0.530558 0.579218
vt 0.555494 0.579218
vt 0.581306 0.579218
vt 0.608363 0.579218
vt 0.637082 0.579218
vt 0.667908 0.579218
vt 0.273386 0.605890
vt 0.191911 0.605890
vt 0.410438 0.605890
vt 0.386474 0.605890
vt 0.434350 0.605890
vt 0.458228 0.605890
vt 0.482136 0.605890
vt 0.506187 0.605890
vt 0.530558 0.605890
vt 0.555494 0.605890
vt 0.581306 0.605890
vt 0.608363 0.605890
vt 0.637082 0.605890
vt 0.667908 0.605890
vt 0.273386 0.632562
vt 0.191911 0.632562
vt 0.410438 0.632562
vt 0.386474 0.632562
vt 0.434350 0.632562
vt 0.458228 0.632562
vt 0.482136 0.632562
vt 0.506187 0.632562
vt 0.530558 0.632562
vt 0.555494 0.632562
vt 0.581306 0.632562
vt 0.608363 0.632562
vt 0.637082 0.632562
vt 0.667908 0.632562
vt 0.273386 0.659236
vt 0.191911 0.659236
vt 0.410438 0.659236
vt 0.386474 0.659236
vt 0.434350 0.659236
vt 0.458228 0.659236
vt 0.482136 0.659236
vt 0.506187 0.659236
vt 0.530558 0.659236
vt 0.555494 0.659236
vt 0.581306 0.659236
vt 0.608363 0.659236
vt 0.637082 0.659236
vt 0.667908 0.659236
vt 0.273386 0.685909
vt 0.191911 0.685909
vt 0.410438 0.685909
vt 0.386474 0.685909
vt 0.434350 0.685909
vt 0.458228 0.685909
vt 0.482136 0.685909
vt 0.506187 0.685909
vt 0.530558 0.685909
vt 0.555494 0.685909
vt 0.581306 0.685909
vt 0.608363 0.685909
vt 0.637082 0.685909
vt 0.667908 0.685909
vt 0.273386 0.712581
vt 0.191911 0.712581
vt 0.410438 0.712581
vt 0.386474 0.712581
vt 0.434350 0.712581
vt 0.458228 0.712581
vt 0.482136 0.712581
vt 0.506187 0.712581
vt 0.530558 0.712581
vt 0.555494 0.712581
vt 0.581306 0.712581
vt 0.608363 0.712581
vt 0.637082 0.712581
vt 0.667908 0.712581
vt 0.386474 0.739253
vt 0.273386 0.739253
vt 0.191911 0.739253
vt 0.410438 0.739253
vt 0.434350 0.739253
vt 0.458228 0.739253
vt 0.482136 0.739253
vt 0.506187 0.739253
vt 0.530558 0.739253
vt 0.555494 0.739253
vt 0.581306 0.739253
vt 0.608363 0.739253
vt 0.637082 0.739253
vt 0.667908 0.739253
vt 0.838092 0.079515
vt 0.832228 0.095159
vt 0.832228 0.022049
vt 0.838092 0.035857
vt 0.824528 0.107929
vt 0.813616 0.117283
vt 0.813616 0.002984
vt 0.824528 0.012338
vt 0.813679 0.117600
vt 0.736259 0.117600
vt 0.730595 0.116209
vt 0.723702 0.102025
vt 0.719534 0.086450
vt 0.716933 0.060296
vt 0.719534 0.034141
vt 0.723702 0.018566
vt 0.730595 0.004382
vt 0.736259 0.002991
vt 0.813679 0.002991
vt 0.821731 0.090302
vt 0.817141 0.090300
vt 0.817143 0.075649
vt 0.817310 0.074402
vt 0.817767 0.073489
vt 0.818390 0.073155
vt 0.819438 0.073002
vt 0.820485 0.073155
vt 0.821109 0.073490
vt 0.821565 0.074403
vt 0.821732 0.075651
vt 0.821569 0.091836
vt 0.817303 0.091834
vt 0.817465 0.093266
vt 0.821407 0.093267
vt 0.817627 0.094810
vt 0.821245 0.094811
vt 0.817778 0.099256
vt 0.817778 0.080167
vt 0.822550 0.080167
vt 0.822550 0.099256
vt 0.817778 0.099256
vt 0.817778 0.080167
vt 0.822550 0.080167
vt 0.822550 0.099256
vt 0.817778 0.099256
vt 0.817778 0.080167
vt 0.822550 0.080167
vt 0.822550 0.099256
vt 0.817778 0.099256
vt 0.817778 0.080167
vt 0.822550 0.080167
vt 0.822550 0.099256
vt 0.817778 0.099256
vt 0.817778 0.080167
vt 0.822550 0.080167
vt 0.822550 0.099256
vt 0.817778 0.099256
vt 0.817778 0.080167
vt 0.822550 0.080167
vt 0.822550 0.099256
vt 0.817778 0.099256
vt 0.817778 0.080167
vt 0.822550 0.080167
vt 0.822550 0.099256
vt 0.817778 0.099256
vt 0.817778 0.080167
vt 0.822550 0.080167
vt 0.822550 0.099256
vt 0.817778 0.099256
vt 0.817778 0.080167
vt 0.822550 0.080167
vt 0.822550 0.099256
vt 0.817778 0.099256
vt 0.817778 0.080167
vt 0.822550 0.080167
vt 0.822550 0.099256
vt 0.817778 0.099256
vt 0.817778 0.080167
vt 0.822550 0.080167
vt 0.822550 0.099256
vt 0.817778 0.099256
vt 0.817778 0.080167
vt 0.822550 0.080167
vt 0.822550 0.099256
vt 0.817778 0.099256
vt 0.817778 0.080167
vt 0.822550 0.080167
vt 0.822550 0.099256
vt 0.817778 0.099256
vt 0.817778 0.080167
vt 0.822550 0.080167
vt 0.822550 0.099256
vt 0.817778 0.099256
vt 0.817778 0.080167
vt 0.822550 0.080167
vt 0.822550 0.099256
vt 0.817778 0.099256
vt 0.817778 0.080167
vt 0.822550 0.080167
vt 0.822550 0.099256
vt 0.817778 0.099256
vt 0.817778 0.080167
vt 0.822550 0.080167
vt 0.822550 0.099256
vn 0.0074 0.0005 1.0000
vn -0.0000 0.0000 1.0000
vn 0.7071 0.0000 0.7071
vn 0.7106 0.0216 0.7033
vn 1.0000 0.0000 0.0000
vn 0.9995 0.0302 0.0000
vn 0.7071 0.0000 -0.7071
vn 0.7106 0.0216 -0.7033
vn -0.0000 -0.0000 -1.0000
vn 0.0074 0.0005 -1.0000
vn -0.7071 -0.0000 -0.7071
vn -0.7032 -0.0214 -0.7107
vn -1.0000 -0.0000 0.0000
vn -0.9995 -0.0306 0.0000
vn -0.7071 -0.0000 0.7071
vn -0.7032 -0.0214 0.7107
vn 0.1059 0.7020 0.7043
vn 0.1489 0.9888 0.0000
vn 0.1304 0.9915 -0.0000
vn 0.0935 0.7110 0.6969
vn 0.1864 0.6899 0.6995
vn 0.2609 0.9654 0.0000
vn 0.1832 0.9831 0.0000
vn 0.1301 0.6975 0.7047
vn 0.2687 0.6616 0.7001
vn 0.3763 0.9265 0.0000
vn 0.3456 0.6252 0.6998
vn 0.4838 0.8752 0.0000
vn 0.4211 0.5775 0.6994
vn 0.5892 0.8080 0.0000
vn 0.4931 0.5178 0.6991
vn 0.6896 0.7242 0.0000
vn 0.5590 0.4464 0.6988
vn 0.7814 0.6240 0.0000
vn 0.6156 0.3646 0.6987
vn 0.8604 0.5096 0.0000
vn 0.6604 0.2752 0.6987
vn 0.9231 0.3846 0.0000
vn 0.6916 0.1820 0.6990
vn 0.9671 0.2545 0.0000
vn 0.9922 0.1249 0.0000
vn 0.7092 0.0892 0.6994
vn 0.1059 0.7020 -0.7043
vn 0.0935 0.7110 -0.6969
vn 0.1864 0.6899 -0.6995
vn 0.1301 0.6975 -0.7047
vn 0.2687 0.6616 -0.7001
vn 0.3456 0.6252 -0.6998
vn 0.4211 0.5775 -0.6994
vn 0.4931 0.5178 -0.6991
vn 0.5590 0.4464 -0.6988
vn 0.6156 0.3646 -0.6987
vn 0.6604 0.2752 -0.6987
vn 0.6916 0.1820 -0.6990
vn 0.7092 0.0892 -0.6994
vn 0.0009 0.0046 -1.0000
vn 0.0025 0.0187 -0.9998
vn 0.0039 0.0150 -0.9999
vn 0.0008 0.0037 -1.0000
vn 0.0053 0.0131 -0.9999
vn 0.0072 0.0130 -0.9999
vn 0.0092 0.0126 -0.9999
vn 0.0112 0.0118 -0.9999
vn 0.0131 0.0105 -0.9999
vn 0.0147 0.0087 -0.9999
vn 0.0157 0.0065 -0.9999
vn 0.0160 0.0042 -0.9999
vn 0.0156 0.0020 -0.9999
vn -0.1053 -0.6974 -0.7089
vn -0.0911 -0.6924 -0.7158
vn -0.1822 -0.6750 -0.7150
vn -0.1294 -0.6937 -0.7085
vn -0.2633 -0.6485 -0.7143
vn -0.3384 -0.6122 -0.7146
vn -0.4119 -0.5649 -0.7150
vn -0.4819 -0.5061 -0.7153
vn -0.5458 -0.4359 -0.7156
vn -0.6009 -0.3559 -0.7158
vn -0.6447 -0.2686 -0.7157
vn -0.6757 -0.1778 -0.7155
vn -0.6936 -0.0872 -0.7150
vn -0.1495 -0.9888 0.0000
vn -0.1305 -0.9914 -0.0000
vn -0.2606 -0.9655 -0.0000
vn -0.1835 -0.9830 -0.0000
vn -0.3762 -0.9265 0.0000
vn -0.4838 -0.8752 0.0000
vn -0.5891 -0.8080 0.0000
vn -0.6896 -0.7242 0.0000
vn -0.7814 -0.6241 0.0000
vn -0.8604 -0.5096 0.0000
vn -0.9231 -0.3846 -0.0000
vn -0.9671 -0.2544 -0.0000
vn -0.9922 -0.1248 -0.0000
vn -0.1053 -0.6974 0.7089
vn -0.0911 -0.6924 0.7158
vn -0.1822 -0.6750 0.7150
vn -0.1294 -0.6937 0.7085
vn -0.2633 -0.6485 0.7143
vn -0.3384 -0.6122 0.7146
vn -0.4119 -0.5649 0.7150
vn -0.4819 -0.5061 0.7153
vn -0.5458 -0.4359 0.7156
vn -0.6009 -0.3559 0.7158
vn -0.6447 -0.2686 0.7157
vn -0.6757 -0.1778 0.7155
vn -0.6936 -0.0872 0.7150
vn 0.0009 0.0046 1.0000
vn 0.0024 0.0187 0.9998
vn 0.0039 0.0150 0.9999
vn 0.0008 0.0037 1.0000
vn 0.0053 0.0131 0.9999
vn 0.0072 0.0130 0.9999
vn 0.0092 0.0126 0.9999
vn 0.0112 0.0118 0.9999
vn 0.0131 0.0105 0.9999
vn 0.0147 0.0087 0.9999
vn 0.0157 0.0065 0.9999
vn 0.0160 0.0042 0.9999
vn 0.0156 0.0020 0.9999
vn 0.1167 -0.9932 0.0000
vn -0.0353 -0.9994 0.0000
vn -0.0430 -0.9991 0.0000
vn -0.0347 -0.9994 0.0000
vn -0.1384 -0.9904 0.0000
vn 0.1384 0.9904 -0.0000
vn 0.2856 0.9583 0.0000
vn 0.3432 0.9393 0.0000
vn 0.4103 0.9119 0.0000
vn 0.8328 0.1288 0.5384
vn 0.8328 0.1288 -0.5384
vn 0.8100 0.1281 -0.5723
vn 0.8100 0.1281 0.5723
vn -0.1249 0.1047 -0.9866
vn -0.4851 0.1922 -0.8531
vn -0.4633 0.1871 -0.8662
vn -0.1088 0.1008 -0.9889
vn 0.3471 0.0922 0.9333
vn 0.3214 0.0890 0.9427
vn -0.1249 0.1047 0.9866
vn 0.1209 0.0704 0.9902
vn 0.1036 0.0705 0.9921
vn -0.1088 0.1008 0.9889
vn 0.3471 0.0922 -0.9333
vn 0.2325 0.0741 -0.9698
vn 0.2302 0.0730 -0.9704
vn 0.3214 0.0890 -0.9427
vn -0.9441 0.2853 -0.1651
vn -0.9581 0.2863 0.0000
vn -0.9442 0.2853 -0.1643
vn -0.9441 0.2853 0.1651
vn -0.8292 0.2676 0.4907
vn -0.8250 0.2667 0.4983
vn -0.9442 0.2853 0.1643
vn 0.2325 0.0741 0.9698
vn 0.2302 0.0730 0.9704
vn 0.1209 0.0704 -0.9902
vn 0.1036 0.0705 -0.9921
vn -0.4851 0.1922 0.8531
vn -0.4633 0.1871 0.8662
vn -0.8292 0.2676 -0.4907
vn -0.8250 0.2667 -0.4983
usemtl Metal
s 1
f 1/1/1 2/2/2 4/3/3 3/4/4
f 3/5/4 4/6/3 6/7/5 5/8/6
f 5/8/6 6/7/5 8/9/7 7/10/8
f 7/10/8 8/9/7 10/11/9 9/12/10
f 9/12/10 10/11/9 12/13/11 11/14/12
f 11/14/12 12/13/11 14/15/13 13/16/14
f 13/16/14 14/15/13 16/17/15 15/18/16
f 15/18/16 16/17/15 2/2/2 1/1/1
f 108/19/17 107/20/18 40/21/19 28/22/20
f 26/23/21 38/24/22 39/25/23 27/26/24
f 25/27/25 37/28/26 38/24/22 26/23/21
f 24/29/27 36/30/28 37/28/26 25/27/25
f 23/31/29 35/32/30 36/30/28 24/29/27
f 22/33/31 34/34/32 35/32/30 23/31/29
f 21/35/33 33/36/34 34/34/32 22/33/31
f 20/37/35 32/38/36 33/36/34 21/35/33
f 19/39/37 31/40/38 32/38/36 20/37/35
f 18/41/39 30/42/40 31/40/38 19/39/37
f 29/43/41 30/42/40 18/41/39 17/44/42
f 5/45/6 29/43/41 17/44/42 3/46/4
f 107/20/18 106/47/43 52/48/44 40/21/19
f 38/24/22 50/49/45 51/50/46 39/25/23
f 37/28/26 49/51/47 50/49/45 38/24/22
f 36/30/28 48/52/48 49/51/47 37/28/26
f 35/32/30 47/53/49 48/52/48 36/30/28
f 34/34/32 46/54/50 47/53/49 35/32/30
f 33/36/34 45/55/51 46/54/50 34/34/32
f 32/38/36 44/56/52 45/55/51 33/36/34
f 31/40/38 43/57/53 44/56/52 32/38/36
f 30/42/40 42/58/54 43/57/53 31/40/38
f 41/59/55 42/58/54 30/42/40 29/43/41
f 7/60/8 41/59/55 29/43/41 5/45/6
f 106/47/43 105/61/56 64/62/57 52/48/44
f 50/49/45 62/63/58 63/64/59 51/50/46
f 49/51/47 61/65/60 62/63/58 50/49/45
f 48/52/48 60/66/61 61/65/60 49/51/47
f 47/53/49 59/67/62 60/66/61 48/52/48
f 46/54/50 58/68/63 59/67/62 47/53/49
f 45/55/51 57/69/64 58/68/63 46/54/50
f 44/56/52 56/70/65 57/69/64 45/55/51
f 43/57/53 55/71/66 56/70/65 44/56/52
f 42/58/54 54/72/67 55/71/66 43/57/53
f 53/73/68 54/72/67 42/58/54 41/59/55
f 9/74/10 53/73/68 41/59/55 7/60/8
f 105/61/56 104/75/69 76/76/70 64/62/57
f 62/63/58 74/77/71 75/78/72 63/64/59
f 61/65/60 73/79/73 74/77/71 62/63/58
f 60/66/61 72/80/74 73/79/73 61/65/60
f 59/67/62 71/81/75 72/80/74 60/66/61
f 58/68/63 70/82/76 71/81/75 59/67/62
f 57/69/64 69/83/77 70/82/76 58/68/63
f 56/70/65 68/84/78 69/83/77 57/69/64
f 55/71/66 67/85/79 68/84/78 56/70/65
f 54/72/67 66/86/80 67/85/79 55/71/66
f 65/87/81 66/86/80 54/72/67 53/73/68
f 11/88/12 65/87/81 53/73/68 9/74/10
f 104/75/69 103/89/82 88/90/83 76/76/70
f 74/77/71 86/91/84 87/92/85 75/78/72
f 73/79/73 85/93/86 86/91/84 74/77/71
f 72/80/74 84/94/87 85/93/86 73/79/73
f 71/81/75 83/95/88 84/94/87 72/80/74
f 70/82/76 82/96/89 83/95/88 71/81/75
f 69/83/77 81/97/90 82/96/89 70/82/76
f 68/84/78 80/98/91 81/97/90 69/83/77
f 67/85/79 79/99/92 80/98/91 68/84/78
f 66/86/80 78/100/93 79/99/92 67/85/79
f 77/101/94 78/100/93 66/86/80 65/87/81
f 13/102/14 77/101/94 65/87/81 11/88/12
f 103/89/82 102/103/95 100/104/96 88/90/83
f 86/91/84 98/105/97 99/106/98 87/92/85
f 85/93/86 97/107/99 98/105/97 86/91/84
f 84/94/87 96/108/100 97/107/99 85/93/86
f 83/95/88 95/109/101 96/108/100 84/94/87
f 82/96/89 94/110/102 95/109/101 83/95/88
f 81/97/90 93/111/103 94/110/102 82/96/89
f 80/98/91 92/112/104 93/111/103 81/97/90
f 79/99/92 91/113/105 92/112/104 80/98/91
f 78/100/93 90/114/106 91/113/105 79/99/92
f 89/115/107 90/114/106 78/100/93 77/101/94
f 15/116/16 89/115/107 77/101/94 13/102/14
f 102/103/95 101/117/108 109/118/109 100/104/96
f 98/105/97 111/119/110 110/120/111 99/106/98
f 97/107/99 112/121/112 111/119/110 98/105/97
f 96/108/100 113/122/113 112/121/112 97/107/99
f 95/109/101 114/123/114 113/122/113 96/108/100
f 94/110/102 115/124/115 114/123/114 95/109/101
f 93/111/103 116/125/116 115/124/115 94/110/102
f 92/112/104 117/126/117 116/125/116 93/111/103
f 91/113/105 118/127/118 117/126/117 92/112/104
f 90/114/106 119/128/119 118/127/118 91/113/105
f 120/129/120 119/128/119 90/114/106 89/115/107
f 1/130/1 120/129/120 89/115/107 15/116/16
f 27/26/24 39/25/23 107/20/18 108/19/17
f 39/25/23 51/50/46 106/47/43 107/20/18
f 51/50/46 63/64/59 105/61/56 106/47/43
f 63/64/59 75/78/72 104/75/69 105/61/56
f 75/78/72 87/92/85 103/89/82 104/75/69
f 87/92/85 99/106/98 102/103/95 103/89/82
f 99/106/98 110/120/111 101/117/108 102/103/95
f 110/120/111 27/131/24 108/132/17 101/117/108
f 101/117/108 108/132/17 28/133/20 109/118/109
f 111/119/110 26/134/21 27/131/24 110/120/111
f 112/121/112 25/135/25 26/134/21 111/119/110
f 113/122/113 24/136/27 25/135/25 112/121/112
f 114/123/114 23/137/29 24/136/27 113/122/113
f 115/124/115 22/138/31 23/137/29 114/123/114
f 116/125/116 21/139/33 22/138/31 115/124/115
f 117/126/117 20/140/35 21/139/33 116/125/116
f 118/127/118 19/141/37 20/140/35 117/126/117
f 119/128/119 18/142/39 19/141/37 118/127/118
f 17/143/42 18/142/39 119/128/119 120/129/120
f 3/144/4 17/143/42 120/129/120 1/130/1
f 122/145/121 125/146/121 128/147/121 121/148/121
f 126/149/122 124/150/123 123/151/123 127/152/122
f 125/146/124 126/149/122 127/152/122 128/147/124
f 124/153/125 133/154/125 135/155/125 136/156/125 134/157/125 137/158/125 129/159/125 131/160/125 132/161/125 130/162/125 123/163/125
f 141/164/126 140/165/126 147/166/126 149/167/126 148/168/126 146/169/126 154/170/126 151/171/126 153/172/126 152/173/126 150/174/126
f 143/175/127 144/176/127 140/165/127 141/164/127
f 145/177/128 144/176/128 143/175/128 142/178/128
f 138/179/129 145/177/129 142/178/129 139/180/129
f 156/181/130 155/182/131 172/183/132 173/184/133
f 164/185/134 166/186/135 183/187/136 181/188/137
f 159/189/138 156/190/130 173/191/133 176/192/139
f 167/193/140 158/194/141 175/195/142 184/196/143
f 162/197/144 161/198/145 178/199/146 179/200/147
f 163/201/148 171/202/149 188/203/149 180/204/150
f 168/205/151 170/206/152 187/207/153 185/208/154
f 160/209/155 159/210/138 176/211/139 177/212/156
f 157/213/157 164/214/134 181/215/137 174/216/158
f 170/217/152 169/218/159 186/219/160 187/220/153
f 161/221/145 157/222/157 174/223/158 178/224/146
f 171/225/149 168/226/151 185/227/154 188/228/149
f 169/229/159 167/230/140 184/231/143 186/232/160
f 158/233/141 160/234/155 177/235/156 175/236/142
f 165/237/161 163/238/148 180/239/150 182/240/162
f 155/241/131 162/242/144 179/243/147 172/244/132
f 166/245/135 165/246/161 182/247/162 183/248/136
