# Blender v3.0.0 OBJ File: ''
# www.blender.org
mtllib Light-02.mtl
o Light-02_Cylinder.002
v 0.000000 0.000000 0.060920
v 0.000000 12.952377 0.060918
v -0.064299 0.000000 0.034286
v -0.064299 12.952377 0.034284
v -0.090932 -0.000000 -0.030012
v -0.090932 12.952377 -0.030014
v -0.064299 -0.000000 -0.094311
v -0.064299 12.952377 -0.094313
v 0.000000 -0.000000 -0.120944
v 0.000000 12.952377 -0.120946
v 0.064299 -0.000000 -0.094311
v 0.064299 12.952377 -0.094313
v 0.090932 -0.000000 -0.030012
v 0.090932 12.952377 -0.030014
v 0.064299 0.000000 0.034286
v 0.064299 12.952377 0.034284
v 0.420472 12.745736 -0.730900
v 0.420472 13.238107 -0.935637
v 0.285469 12.938993 0.505592
v 0.285469 13.258181 0.630766
v -0.385011 12.745736 -0.730900
v -0.385011 13.238107 -0.935637
v -0.236699 13.258181 0.630767
v -0.236699 12.938993 0.505592
v 0.705261 12.776861 0.385392
v 0.909997 13.269231 0.385392
v 0.673662 12.790000 -0.420091
v 0.394972 12.809657 0.640635
v 0.705261 12.776861 -0.420091
v 0.909997 13.269231 -0.420091
v 0.878399 13.282369 -0.420091
v -0.346202 12.809657 0.640635
v -0.679229 12.776884 -0.403678
v -0.883966 13.269255 -0.403679
v -0.346202 13.262715 0.829025
v 0.394972 13.262715 0.829025
v -0.679229 12.776884 0.401804
v -0.883966 13.269255 0.401804
v 0.878399 13.282369 0.385392
v 0.673662 12.790000 0.385392
v -0.378356 12.776862 0.664060
v -0.378356 13.269232 0.868797
v -0.385011 12.758874 -0.699301
v -0.385011 13.251245 -0.904038
v 0.427127 12.776862 0.664060
v 0.427127 13.269232 0.868797
v -0.352856 12.778530 -0.707475
v 0.388318 12.778530 -0.707475
v 0.388318 13.231590 -0.895865
v -0.352856 13.231590 -0.895865
v 0.681835 12.809655 -0.387937
v 0.681835 12.809655 0.353237
v 0.870226 13.262714 0.353237
v 0.870226 13.262714 -0.387937
v -0.655804 12.809679 0.369650
v -0.655804 12.809679 -0.371524
v -0.844195 13.262739 -0.371524
v -0.844195 13.262739 0.369650
v 0.427127 12.790002 0.632462
v 0.427127 13.282372 0.837198
v -0.378356 13.282372 0.837198
v -0.378356 12.790002 0.632462
v -0.647631 12.790024 0.401804
v -0.852368 13.282394 0.401804
v -0.852368 13.282394 -0.403679
v 0.420472 13.251245 -0.904038
v -0.647631 12.790024 -0.403678
v 0.420472 12.758874 -0.699302
v 0.278815 12.907865 -0.585241
v 0.278815 13.227056 -0.709087
v -0.243354 13.227056 -0.709087
v -0.243353 12.907865 -0.585241
v 0.546792 12.938992 0.243734
v 0.671967 13.258180 0.243734
v 0.671967 13.258180 -0.278434
v 0.546792 12.938992 -0.278434
v -0.533571 12.939014 -0.262021
v -0.657417 13.258204 -0.262021
v -0.657417 13.258204 0.260147
v -0.533571 12.939014 0.260147
v 0.705098 13.023464 0.005019
v 0.705098 12.974027 0.005019
v 0.705098 13.023464 -0.070107
v 0.705098 12.974027 -0.070107
v -0.661298 13.023464 0.005019
v -0.661298 12.974027 0.005019
v -0.661298 13.023464 -0.070107
v -0.661298 12.974027 -0.070107
v 0.059462 13.023464 -0.715742
v 0.059462 12.974027 -0.715742
v -0.015663 13.023464 -0.715742
v -0.015663 12.974027 -0.715742
v 0.059462 13.023464 0.650654
v 0.059462 12.974027 0.650654
v -0.015663 13.023464 0.650654
v -0.015663 12.974027 0.650654
v 0.109952 12.929951 -0.139966
v 0.180767 12.974567 -0.210781
v 0.109952 12.929951 0.079937
v 0.180767 12.974567 0.150752
v -0.109952 12.929951 -0.139966
v -0.180767 12.974567 -0.210781
v -0.109952 12.929951 0.079937
v -0.180767 12.974567 0.150752
vt 0.004949 0.712579
vt 0.994710 0.712579
vt 0.994710 0.739249
vt 0.004949 0.739249
vt 0.994710 0.765919
vt 0.004949 0.765919
vt 0.994710 0.792589
vt 0.004949 0.792589
vt 0.994710 0.819259
vt 0.004949 0.819259
vt 0.994710 0.845929
vt 0.004949 0.845929
vt 0.994710 0.872599
vt 0.004949 0.872599
vt 0.004949 0.659239
vt 0.994710 0.659239
vt 0.994710 0.685909
vt 0.004949 0.685909
vt 0.571716 0.080189
vt 0.548413 0.078542
vt 0.546948 0.097159
vt 0.570252 0.098806
vt 0.569747 0.079136
vt 0.544652 0.077698
vt 0.543075 0.093955
vt 0.568170 0.095394
vt 0.565692 0.082535
vt 0.540601 0.081017
vt 0.538972 0.097269
vt 0.564063 0.098787
vt 0.447409 0.128560
vt 0.447409 0.002755
vt 0.523724 0.002755
vt 0.523724 0.128559
vt 0.561400 0.080322
vt 0.538985 0.078738
vt 0.537575 0.096645
vt 0.559991 0.098229
vt 0.572615 0.109662
vt 0.570627 0.107726
vt 0.528265 0.107473
vt 0.525962 0.109119
vt 0.525933 0.108552
vt 0.528516 0.107066
vt 0.528720 0.072357
vt 0.526500 0.070592
vt 0.534874 0.110127
vt 0.537268 0.108416
vt 0.537355 0.068669
vt 0.535289 0.066656
vt 0.530518 0.067319
vt 0.532744 0.069076
vt 0.580172 0.069306
vt 0.582751 0.067812
vt 0.447409 0.128560
vt 0.447409 0.002755
vt 0.523724 0.002755
vt 0.523724 0.128559
vt 0.582304 0.105773
vt 0.580078 0.104015
vt 0.532650 0.103785
vt 0.530071 0.105280
vt 0.583790 0.067221
vt 0.581396 0.068933
vt 0.581309 0.108679
vt 0.583376 0.110692
vt 0.578164 0.109212
vt 0.575944 0.107447
vt 0.447409 0.128560
vt 0.447409 0.002755
vt 0.523724 0.002755
vt 0.523724 0.128559
vt 0.528348 0.069241
vt 0.526361 0.067305
vt 0.578732 0.071252
vt 0.576148 0.072738
vt 0.573013 0.067849
vt 0.570711 0.069495
vt 0.447409 0.128560
vt 0.447409 0.002755
vt 0.523724 0.002755
vt 0.523724 0.128559
vt 0.581412 0.068254
vt 0.581412 0.111736
vt 0.523252 0.111551
vt 0.523252 0.068069
vt 0.585561 0.108287
vt 0.527400 0.108287
vt 0.527261 0.064805
vt 0.585423 0.064805
vt 0.575523 0.112431
vt 0.523575 0.112431
vt 0.523452 0.064537
vt 0.575399 0.064537
vt 0.586399 0.113571
vt 0.532393 0.113571
vt 0.532265 0.063778
vt 0.586271 0.063778
vt 0.439401 0.502952
vt 0.446826 0.502952
vt 0.446826 0.523990
vt 0.439401 0.523990
vt 0.648023 0.362607
vt 0.648023 0.374927
vt 0.550036 0.374927
vt 0.550036 0.362607
vt 0.439401 0.523990
vt 0.446826 0.523990
vt 0.446826 0.545027
vt 0.439401 0.545027
vt 0.550036 0.343886
vt 0.648023 0.343886
vt 0.648023 0.393648
vt 0.550036 0.393648
vt 0.550036 0.331567
vt 0.648023 0.331567
vt 0.439401 0.502952
vt 0.446826 0.502952
vt 0.446826 0.523990
vt 0.439401 0.523990
vt 0.394953 0.362607
vt 0.394953 0.374948
vt 0.257552 0.374948
vt 0.257552 0.362607
vt 0.439401 0.523990
vt 0.446826 0.523990
vt 0.446826 0.545027
vt 0.439401 0.545027
vt 0.257552 0.343854
vt 0.394953 0.343854
vt 0.394953 0.393701
vt 0.257552 0.393701
vt 0.257552 0.331514
vt 0.394953 0.331513
vt 0.419428 0.768364
vt 0.391308 0.822184
vt 0.391308 0.571466
vt 0.418216 0.627884
vt 0.516621 0.572508
vt 0.488500 0.626329
vt 0.516620 0.823226
vt 0.489712 0.766810
vt 0.785002 0.826802
vt 0.692548 0.826802
vt 0.692548 0.641894
vt 0.785002 0.641894
vn 0.0000 0.0000 1.0000
vn -0.7071 0.0000 0.7071
vn -1.0000 -0.0000 -0.0000
vn -0.7071 -0.0000 -0.7071
vn 0.0000 -0.0000 -1.0000
vn 0.7071 -0.0000 -0.7071
vn 1.0000 -0.0000 -0.0000
vn 0.7071 0.0000 0.7071
vn 0.0000 0.3651 -0.9310
vn 0.9323 0.3617 -0.0000
vn -0.9310 0.3651 -0.0000
vn -0.0000 -0.3839 -0.9234
vn 0.0000 0.3617 0.9323
vn -0.0000 0.3840 0.9234
vn -0.9234 0.3840 0.0000
vn -0.9233 0.3840 0.0000
vn -0.9234 0.3839 0.0000
vn 0.0000 0.3839 -0.9234
vn 0.9234 0.3839 -0.0000
vn 0.9234 -0.3839 0.0000
vn 0.9234 0.3840 0.0000
vn -0.9234 -0.3839 0.0000
vn 0.0000 0.3839 0.9234
vn 0.0000 -0.3839 0.9234
vn -0.6917 -0.7222 0.0000
vn -0.0000 -0.7222 -0.6917
vn -0.4857 0.1972 -0.8516
vn 0.8516 0.1972 -0.4857
vn -0.3840 0.9233 0.0000
vn 0.3840 -0.9233 0.0000
vn -0.0000 0.9234 -0.3839
vn 0.0000 -0.9234 0.3839
vn 0.0000 0.9233 0.3840
vn -0.0000 -0.9234 -0.3839
vn 0.3839 0.9234 0.0000
vn -0.3839 -0.9234 0.0000
vn 0.8357 0.2059 0.5091
vn -0.0229 0.9997 0.0000
vn -0.0000 0.9997 -0.0229
vn 0.5091 0.2059 -0.8357
vn -0.8357 0.2059 0.5091
vn 0.5091 0.2059 0.8357
vn 0.0000 -0.6869 0.7268
vn 0.7268 -0.6869 0.0000
vn 0.0000 0.9997 0.0243
vn -0.8516 0.1972 -0.4857
vn 0.0243 0.9997 0.0000
vn -0.4857 0.1972 0.8516
vn 0.0000 1.0000 0.0000
vn 0.0000 -1.0000 0.0000
vn 0.5331 -0.8461 0.0000
vn 0.0000 -0.8461 0.5331
vn -0.5331 -0.8461 0.0000
vn 0.0000 -0.8461 -0.5331
usemtl Metal.009
s 1
f 1/1/1 2/2/1 4/3/2 3/4/2
f 3/4/2 4/3/2 6/5/3 5/6/3
f 5/6/3 6/5/3 8/7/4 7/8/4
f 7/8/4 8/7/4 10/9/5 9/10/5
f 9/10/5 10/9/5 12/11/6 11/12/6
f 11/12/6 12/11/6 14/13/7 13/14/7
f 13/15/7 14/16/7 16/17/8 15/18/8
f 15/18/8 16/17/8 2/2/1 1/1/1
f 19/19/9 24/20/9 23/21/9 20/22/9
f 80/23/10 77/24/10 78/25/10 79/26/10
f 76/27/11 73/28/11 74/29/11 75/30/11
f 21/31/12 22/32/12 18/33/12 17/34/12
f 72/35/13 69/36/13 70/37/13 71/38/13
f 44/39/14 50/40/14 49/41/14 66/42/14
f 39/43/15 53/44/16 52/45/17 40/46/17
f 61/47/18 35/48/18 32/49/18 62/50/18
f 67/51/19 56/52/19 55/53/19 63/54/19
f 29/55/20 30/56/20 26/57/20 25/58/20
f 64/59/19 58/60/21 57/61/21 65/62/19
f 59/63/18 28/64/18 36/65/18 60/66/18
f 65/62/19 57/61/21 56/52/19 67/51/19
f 62/50/18 32/49/18 28/64/18 59/63/18
f 31/67/15 54/68/16 53/44/16 39/43/15
f 37/69/22 38/70/22 34/71/22 33/72/22
f 66/42/14 49/41/14 48/73/23 68/74/23
f 27/75/17 51/76/17 54/68/16 31/67/15
f 43/77/23 47/78/23 50/40/14 44/39/14
f 68/74/23 48/73/23 47/78/23 43/77/23
f 60/66/18 36/65/18 35/48/18 61/47/18
f 45/79/24 46/80/24 42/81/24 41/82/24
f 40/46/17 52/45/17 51/76/17 27/75/17
f 63/54/19 55/53/19 58/60/21 64/59/19
f 52/45/25 73/28/25 76/27/25 51/76/25
f 32/49/26 24/20/26 19/19/26 28/64/26
f 51/76/27 76/27/27 75/30/27 54/68/27
f 28/64/28 19/19/28 20/22/28 36/65/28
f 29/83/5 27/75/5 31/67/5 30/84/5
f 26/85/1 39/43/1 40/46/1 25/86/1
f 38/87/29 64/59/29 65/62/29 34/88/29
f 33/89/30 67/51/30 63/54/30 37/90/30
f 22/91/31 44/39/31 66/42/31 18/92/31
f 37/90/1 63/54/1 64/59/1 38/87/1
f 34/88/5 65/62/5 67/51/5 33/89/5
f 17/93/32 68/74/32 43/77/32 21/94/32
f 46/95/33 60/66/33 61/47/33 42/96/33
f 21/94/3 43/77/3 44/39/3 22/91/3
f 41/97/34 62/50/34 59/63/34 45/98/34
f 18/92/7 66/42/7 68/74/7 17/93/7
f 30/84/35 31/67/35 39/43/35 26/85/35
f 45/98/7 59/63/7 60/66/7 46/95/7
f 42/96/3 61/47/3 62/50/3 41/97/3
f 25/86/36 40/46/36 27/75/36 29/83/36
f 49/41/37 70/37/37 69/36/37 48/73/37
f 54/68/38 75/30/38 74/29/38 53/44/38
f 36/65/39 20/22/39 23/21/39 35/48/39
f 57/61/40 78/25/40 77/24/40 56/52/40
f 47/78/41 72/35/41 71/38/41 50/40/41
f 55/53/42 80/23/42 79/26/42 58/60/42
f 48/73/43 69/36/43 72/35/43 47/78/43
f 56/52/44 77/24/44 80/23/44 55/53/44
f 50/40/45 71/38/45 70/37/45 49/41/45
f 35/48/46 23/21/46 24/20/46 32/49/46
f 58/60/47 79/26/47 78/25/47 57/61/47
f 53/44/48 74/29/48 73/28/48 52/45/48
f 81/99/7 82/100/7 84/101/7 83/102/7
f 83/103/5 84/104/5 88/105/5 87/106/5
f 87/107/3 88/108/3 86/109/3 85/110/3
f 83/103/49 87/106/49 85/111/49 81/112/49
f 88/105/50 84/104/50 82/113/50 86/114/50
f 81/112/1 85/111/1 86/115/1 82/116/1
f 89/117/5 90/118/5 92/119/5 91/120/5
f 91/121/3 92/122/3 96/123/3 95/124/3
f 95/125/1 96/126/1 94/127/1 93/128/1
f 91/121/49 95/124/49 93/129/49 89/130/49
f 96/123/50 92/122/50 90/131/50 94/132/50
f 89/130/7 93/129/7 94/133/7 90/134/7
f 97/135/51 98/136/51 100/137/51 99/138/51
f 99/138/52 100/137/52 104/139/52 103/140/52
f 103/140/53 104/139/53 102/141/53 101/142/53
f 101/142/54 102/141/54 98/136/54 97/135/54
f 99/138/50 103/140/50 101/142/50 97/135/50
f 104/143/49 100/144/49 98/145/49 102/146/49
