# Blender v3.0.0 OBJ File: ''
# www.blender.org
mtllib OutDoor-A.mtl
o Outdoor
v 10.202386 2.447304 -0.084026
v 10.202386 6.976502 -0.084026
v 10.202386 2.447304 0.158320
v 10.202386 6.976502 0.158320
v 0.202386 2.447304 -0.084025
v 0.202386 6.976502 -0.084025
v 0.202386 2.447304 0.158320
v 0.202386 6.976502 0.158320
v 9.977984 6.755531 0.158320
v 9.977984 2.668275 0.158320
v 0.426788 6.755531 0.158320
v 0.426788 2.668275 0.158320
v 9.977984 6.755531 0.019657
v 9.977984 2.668275 0.019657
v 0.426788 6.755531 0.019658
v 0.426788 2.668275 0.019658
v 9.977986 4.562786 0.158319
v 0.426786 4.562786 0.158320
v 9.977984 4.783757 0.158319
v 0.426788 4.783757 0.158320
v 9.977984 4.783757 0.019657
v 0.426788 4.783757 0.019658
v 9.977986 4.562786 0.019657
v 0.426786 4.562786 0.019658
v 5.314587 2.668270 0.136530
v 5.314587 6.755529 0.136530
v 5.090185 6.755531 0.136530
v 5.090185 2.668275 0.136530
v 5.090185 6.755531 0.019657
v 5.090185 2.668275 0.019657
v 5.314587 2.668270 0.019657
v 5.314587 6.755529 0.019657
v 7.894302 2.668270 0.136530
v 7.894302 6.755529 0.136530
v 7.669900 6.755531 0.136530
v 7.669900 2.668275 0.136530
v 7.669900 6.755531 0.019657
v 7.669900 2.668275 0.019657
v 7.894302 2.668270 0.019657
v 7.894302 6.755529 0.019657
v 2.734877 2.668270 0.136530
v 2.734877 6.755529 0.136530
v 2.510475 6.755531 0.136530
v 2.510475 2.668275 0.136530
v 2.510475 6.755531 0.019657
v 2.510475 2.668275 0.019657
v 2.734877 2.668270 0.019657
v 2.734877 6.755529 0.019657
v 5.570597 -0.000000 0.012875
v 5.570597 5.122777 0.012874
v 5.570597 -0.000000 0.684084
v 5.570597 4.710669 0.684084
v 4.800751 0.000000 0.012875
v 4.800751 5.122777 0.012874
v 4.800751 -0.000000 0.684084
v 4.800751 4.710669 0.684084
v 20.602377 2.447304 -0.084026
v 20.602377 6.976502 -0.084026
v 20.602377 2.447304 0.158320
v 20.602377 6.976502 0.158320
v 10.602380 2.447304 -0.084025
v 10.602380 6.976502 -0.084025
v 10.602380 2.447304 0.158320
v 10.602380 6.976502 0.158320
v 20.377975 6.755531 0.158320
v 20.377975 2.668275 0.158320
v 10.826782 6.755531 0.158320
v 10.826782 2.668275 0.158320
v 20.377975 6.755531 0.019657
v 20.377975 2.668275 0.019657
v 10.826782 6.755531 0.019658
v 10.826782 2.668275 0.019658
v 20.377979 4.562786 0.158319
v 10.826779 4.562786 0.158320
v 20.377975 4.783757 0.158319
v 10.826782 4.783757 0.158320
v 20.377975 4.783757 0.019657
v 10.826782 4.783757 0.019658
v 20.377979 4.562786 0.019657
v 10.826779 4.562786 0.019658
v 15.714580 2.668270 0.136530
v 15.714580 6.755529 0.136530
v 15.490179 6.755531 0.136530
v 15.490179 2.668275 0.136530
v 15.490179 6.755531 0.019657
v 15.490179 2.668275 0.019657
v 15.714580 2.668270 0.019657
v 15.714580 6.755529 0.019657
v 18.294296 2.668270 0.136530
v 18.294296 6.755529 0.136530
v 18.069893 6.755531 0.136530
v 18.069893 2.668275 0.136530
v 18.069893 6.755531 0.019657
v 18.069893 2.668275 0.019657
v 18.294296 2.668270 0.019657
v 18.294296 6.755529 0.019657
v 13.134871 2.668270 0.136530
v 13.134871 6.755529 0.136530
v 12.910468 6.755531 0.136530
v 12.910468 2.668275 0.136530
v 12.910468 6.755531 0.019657
v 12.910468 2.668275 0.019657
v 13.134871 2.668270 0.019657
v 13.134871 6.755529 0.019657
v 15.970591 -0.000000 0.012875
v 15.970591 5.122777 0.012874
v 15.970591 -0.000000 0.684084
v 15.970591 4.710669 0.684084
v 15.200745 0.000000 0.012875
v 15.200745 5.122777 0.012874
v 15.200745 -0.000000 0.684084
v 15.200745 4.710669 0.684084
v -0.197612 2.447304 -0.084026
v -0.197612 6.976502 -0.084026
v -0.197612 2.447304 0.158320
v -0.197612 6.976502 0.158320
v -10.197611 2.447304 -0.084025
v -10.197611 6.976502 -0.084025
v -10.197611 2.447304 0.158320
v -10.197611 6.976502 0.158320
v -0.422014 6.755531 0.158320
v -0.422014 2.668275 0.158320
v -9.973209 6.755531 0.158320
v -9.973209 2.668275 0.158320
v -0.422014 6.755531 0.019657
v -0.422014 2.668275 0.019657
v -9.973209 6.755531 0.019658
v -9.973209 2.668275 0.019658
v -0.422012 4.562786 0.158319
v -9.973211 4.562786 0.158320
v -0.422014 4.783757 0.158319
v -9.973209 4.783757 0.158320
v -0.422014 4.783757 0.019657
v -9.973209 4.783757 0.019658
v -0.422012 4.562786 0.019657
v -9.973211 4.562786 0.019658
v -5.085411 2.668270 0.136530
v -5.085411 6.755529 0.136530
v -5.309813 6.755531 0.136530
v -5.309813 2.668275 0.136530
v -5.309813 6.755531 0.019657
v -5.309813 2.668275 0.019657
v -5.085411 2.668270 0.019657
v -5.085411 6.755529 0.019657
v -2.505696 2.668270 0.136530
v -2.505696 6.755529 0.136530
v -2.730098 6.755531 0.136530
v -2.730098 2.668275 0.136530
v -2.730098 6.755531 0.019657
v -2.730098 2.668275 0.019657
v -2.505696 2.668270 0.019657
v -2.505696 6.755529 0.019657
v -7.665121 2.668270 0.136530
v -7.665121 6.755529 0.136530
v -7.889523 6.755531 0.136530
v -7.889523 2.668275 0.136530
v -7.889523 6.755531 0.019657
v -7.889523 2.668275 0.019657
v -7.665121 2.668270 0.019657
v -7.665121 6.755529 0.019657
v -4.829401 -0.000000 0.012875
v -4.829401 5.122777 0.012874
v -4.829401 -0.000000 0.684084
v -4.829401 4.710669 0.684084
v -5.599247 0.000000 0.012875
v -5.599247 5.122777 0.012874
v -5.599247 -0.000000 0.684084
v -5.599247 4.710669 0.684084
v -10.597610 2.447304 -0.084026
v -10.597610 6.976502 -0.084026
v -10.597610 2.447304 0.158320
v -10.597610 6.976502 0.158320
v -20.597609 2.447304 -0.084025
v -20.597609 6.976502 -0.084025
v -20.597609 2.447304 0.158320
v -20.597609 6.976502 0.158320
v -10.822013 6.755531 0.158320
v -10.822013 2.668275 0.158320
v -20.373209 6.755531 0.158320
v -20.373209 2.668275 0.158320
v -10.822013 6.755531 0.019657
v -10.822013 2.668275 0.019657
v -20.373209 6.755531 0.019658
v -20.373209 2.668275 0.019658
v -10.822010 4.562786 0.158319
v -20.373211 4.562786 0.158320
v -10.822013 4.783757 0.158319
v -20.373209 4.783757 0.158320
v -10.822013 4.783757 0.019657
v -20.373209 4.783757 0.019658
v -10.822010 4.562786 0.019657
v -20.373211 4.562786 0.019658
v -15.485410 2.668270 0.136530
v -15.485410 6.755529 0.136530
v -15.709810 6.755531 0.136530
v -15.709810 2.668275 0.136530
v -15.709810 6.755531 0.019657
v -15.709810 2.668275 0.019657
v -15.485410 2.668270 0.019657
v -15.485410 6.755529 0.019657
v -12.905696 2.668270 0.136530
v -12.905696 6.755529 0.136530
v -13.130095 6.755531 0.136530
v -13.130095 2.668275 0.136530
v -13.130095 6.755531 0.019657
v -13.130095 2.668275 0.019657
v -12.905696 2.668270 0.019657
v -12.905696 6.755529 0.019657
v -18.065121 2.668270 0.136530
v -18.065121 6.755529 0.136530
v -18.289522 6.755531 0.136530
v -18.289522 2.668275 0.136530
v -18.289522 6.755531 0.019657
v -18.289522 2.668275 0.019657
v -18.065121 2.668270 0.019657
v -18.065121 6.755529 0.019657
v -15.229399 -0.000000 0.012875
v -15.229399 5.122777 0.012874
v -15.229399 -0.000000 0.684084
v -15.229399 4.710669 0.684084
v -15.999246 0.000000 0.012875
v -15.999246 5.122777 0.012874
v -15.999246 -0.000000 0.684084
v -15.999246 4.710669 0.684084
vt 0.002324 0.500566
vt 0.500588 0.500563
vt 0.500588 0.516757
vt 0.002324 0.516757
vt 0.000320 0.500394
vt 0.499629 0.500390
vt 0.499629 0.517640
vt 0.000321 0.517641
vt 0.002324 0.500566
vt 0.500588 0.500563
vt 0.500588 0.516757
vt 0.002324 0.516757
vt 0.930861 0.762566
vt 0.930861 0.840043
vt 0.647130 0.840043
vt 0.647130 0.762566
vt 0.002324 0.500566
vt 0.500588 0.500563
vt 0.500588 0.516757
vt 0.002324 0.516757
vt 0.002324 0.500566
vt 0.500588 0.500563
vt 0.500588 0.516757
vt 0.002324 0.516757
vt 0.000320 0.500394
vt 0.499629 0.500390
vt 0.499629 0.517640
vt 0.000321 0.517641
vt 0.000320 0.500394
vt 0.499629 0.500390
vt 0.499629 0.517640
vt 0.000321 0.517641
vt 0.000320 0.500394
vt 0.499629 0.500390
vt 0.499629 0.517640
vt 0.000321 0.517641
vt 0.000320 0.500394
vt 0.499629 0.500390
vt 0.499629 0.517640
vt 0.000321 0.517641
vt 0.695731 0.681703
vt 0.695731 0.610058
vt 0.934424 0.610058
vt 0.934424 0.681703
vt 0.000320 0.500394
vt 0.499629 0.500390
vt 0.499629 0.517640
vt 0.000321 0.517641
vt 0.000320 0.500394
vt 0.499629 0.500390
vt 0.499629 0.517640
vt 0.000321 0.517641
vt 0.000320 0.500394
vt 0.499629 0.500390
vt 0.499629 0.517640
vt 0.000321 0.517641
vt 0.000320 0.500394
vt 0.499629 0.500390
vt 0.499629 0.517640
vt 0.000321 0.517641
vt 0.000320 0.500394
vt 0.499629 0.500390
vt 0.499629 0.517640
vt 0.000321 0.517641
vt 0.000320 0.500394
vt 0.499629 0.500390
vt 0.499629 0.517640
vt 0.000321 0.517641
vt 0.000320 0.500394
vt 0.499629 0.500390
vt 0.499629 0.517640
vt 0.000321 0.517641
vt 0.000320 0.500394
vt 0.499629 0.500390
vt 0.499629 0.517640
vt 0.000321 0.517641
vt 0.000320 0.500394
vt 0.499629 0.500390
vt 0.499629 0.517640
vt 0.000321 0.517641
vt 0.000320 0.500394
vt 0.499629 0.500390
vt 0.499629 0.517640
vt 0.000321 0.517641
vt 0.000320 0.500394
vt 0.499629 0.500390
vt 0.499629 0.517640
vt 0.000321 0.517641
vt 0.000320 0.500394
vt 0.499629 0.500390
vt 0.499629 0.517640
vt 0.000321 0.517641
vt 0.000320 0.500394
vt 0.499629 0.500390
vt 0.499629 0.517640
vt 0.000321 0.517641
vt 0.000320 0.500394
vt 0.499629 0.500390
vt 0.499629 0.517640
vt 0.000321 0.517641
vt 0.000320 0.500394
vt 0.499629 0.500390
vt 0.499629 0.517640
vt 0.000321 0.517641
vt 0.040181 0.519913
vt 0.258078 0.519913
vt 0.240237 0.548994
vt 0.040182 0.548994
vt 0.111471 0.519266
vt 0.329367 0.519266
vt 0.329367 0.548994
vt 0.111471 0.548994
vt 0.228658 0.519913
vt 0.412375 0.519913
vt 0.428714 0.548994
vt 0.228658 0.548994
vt 0.111471 0.518575
vt 0.329367 0.518575
vt 0.329367 0.548994
vt 0.111471 0.548994
vt 0.197266 0.518778
vt 0.249631 0.518778
vt 0.249631 0.547873
vt 0.197266 0.547873
vt 0.002324 0.500566
vt 0.500588 0.500563
vt 0.500588 0.516757
vt 0.002324 0.516757
vt 0.000320 0.500394
vt 0.499629 0.500390
vt 0.499629 0.517640
vt 0.000321 0.517641
vt 0.002324 0.500566
vt 0.500588 0.500563
vt 0.500588 0.516757
vt 0.002324 0.516757
vt 0.930861 0.683283
vt 0.930861 0.760761
vt 0.647130 0.760761
vt 0.647130 0.683283
vt 0.002324 0.500566
vt 0.500588 0.500563
vt 0.500588 0.516757
vt 0.002324 0.516757
vt 0.002324 0.500566
vt 0.500588 0.500563
vt 0.500588 0.516757
vt 0.002324 0.516757
vt 0.000320 0.500394
vt 0.499629 0.500390
vt 0.499629 0.517640
vt 0.000321 0.517641
vt 0.000320 0.500394
vt 0.499629 0.500390
vt 0.499629 0.517640
vt 0.000321 0.517641
vt 0.000320 0.500394
vt 0.499629 0.500390
vt 0.499629 0.517640
vt 0.000321 0.517641
vt 0.000320 0.500394
vt 0.499629 0.500390
vt 0.499629 0.517640
vt 0.000321 0.517641
vt 0.695731 0.681703
vt 0.695731 0.610058
vt 0.934424 0.610058
vt 0.934424 0.681703
vt 0.000320 0.500394
vt 0.499629 0.500390
vt 0.499629 0.517640
vt 0.000321 0.517641
vt 0.000320 0.500394
vt 0.499629 0.500390
vt 0.499629 0.517640
vt 0.000321 0.517641
vt 0.000320 0.500394
vt 0.499629 0.500390
vt 0.499629 0.517640
vt 0.000321 0.517641
vt 0.000320 0.500394
vt 0.499629 0.500390
vt 0.499629 0.517640
vt 0.000321 0.517641
vt 0.000320 0.500394
vt 0.499629 0.500390
vt 0.499629 0.517640
vt 0.000321 0.517641
vt 0.000320 0.500394
vt 0.499629 0.500390
vt 0.499629 0.517640
vt 0.000321 0.517641
vt 0.000320 0.500394
vt 0.499629 0.500390
vt 0.499629 0.517640
vt 0.000321 0.517641
vt 0.000320 0.500394
vt 0.499629 0.500390
vt 0.499629 0.517640
vt 0.000321 0.517641
vt 0.000320 0.500394
vt 0.499629 0.500390
vt 0.499629 0.517640
vt 0.000321 0.517641
vt 0.000320 0.500394
vt 0.499629 0.500390
vt 0.499629 0.517640
vt 0.000321 0.517641
vt 0.000320 0.500394
vt 0.499629 0.500390
vt 0.499629 0.517640
vt 0.000321 0.517641
vt 0.000320 0.500394
vt 0.499629 0.500390
vt 0.499629 0.517640
vt 0.000321 0.517641
vt 0.000320 0.500394
vt 0.499629 0.500390
vt 0.499629 0.517640
vt 0.000321 0.517641
vt 0.000320 0.500394
vt 0.499629 0.500390
vt 0.499629 0.517640
vt 0.000321 0.517641
vt 0.000320 0.500394
vt 0.499629 0.500390
vt 0.499629 0.517640
vt 0.000321 0.517641
vt 0.040181 0.519913
vt 0.258078 0.519913
vt 0.240237 0.548994
vt 0.040182 0.548994
vt 0.111471 0.519266
vt 0.329367 0.519266
vt 0.329367 0.548994
vt 0.111471 0.548994
vt 0.228658 0.519913
vt 0.412375 0.519913
vt 0.428714 0.548994
vt 0.228658 0.548994
vt 0.111471 0.518575
vt 0.329367 0.518575
vt 0.329367 0.548994
vt 0.111471 0.548994
vt 0.197266 0.518778
vt 0.249631 0.518778
vt 0.249631 0.547873
vt 0.197266 0.547873
vt 0.002324 0.500566
vt 0.500588 0.500563
vt 0.500588 0.516757
vt 0.002324 0.516757
vt 0.000320 0.500394
vt 0.499629 0.500390
vt 0.499629 0.517640
vt 0.000321 0.517641
vt 0.002324 0.500566
vt 0.500588 0.500563
vt 0.500588 0.516757
vt 0.002324 0.516757
vt 0.930861 0.841863
vt 0.930861 0.917603
vt 0.647130 0.917603
vt 0.647130 0.841863
vt 0.002324 0.500566
vt 0.500588 0.500563
vt 0.500588 0.516757
vt 0.002324 0.516757
vt 0.002324 0.500566
vt 0.500588 0.500563
vt 0.500588 0.516757
vt 0.002324 0.516757
vt 0.000320 0.500394
vt 0.499629 0.500390
vt 0.499629 0.517640
vt 0.000321 0.517641
vt 0.000320 0.500394
vt 0.499629 0.500390
vt 0.499629 0.517640
vt 0.000321 0.517641
vt 0.000320 0.500394
vt 0.499629 0.500390
vt 0.499629 0.517640
vt 0.000321 0.517641
vt 0.000320 0.500394
vt 0.499629 0.500390
vt 0.499629 0.517640
vt 0.000321 0.517641
vt 0.695731 0.681703
vt 0.695731 0.610058
vt 0.934424 0.610058
vt 0.934424 0.681703
vt 0.000320 0.500394
vt 0.499629 0.500390
vt 0.499629 0.517640
vt 0.000321 0.517641
vt 0.000320 0.500394
vt 0.499629 0.500390
vt 0.499629 0.517640
vt 0.000321 0.517641
vt 0.000320 0.500394
vt 0.499629 0.500390
vt 0.499629 0.517640
vt 0.000321 0.517641
vt 0.000320 0.500394
vt 0.499629 0.500390
vt 0.499629 0.517640
vt 0.000321 0.517641
vt 0.000320 0.500394
vt 0.499629 0.500390
vt 0.499629 0.517640
vt 0.000321 0.517641
vt 0.000320 0.500394
vt 0.499629 0.500390
vt 0.499629 0.517640
vt 0.000321 0.517641
vt 0.000320 0.500394
vt 0.499629 0.500390
vt 0.499629 0.517640
vt 0.000321 0.517641
vt 0.000320 0.500394
vt 0.499629 0.500390
vt 0.499629 0.517640
vt 0.000321 0.517641
vt 0.000320 0.500394
vt 0.499629 0.500390
vt 0.499629 0.517640
vt 0.000321 0.517641
vt 0.000320 0.500394
vt 0.499629 0.500390
vt 0.499629 0.517640
vt 0.000321 0.517641
vt 0.000320 0.500394
vt 0.499629 0.500390
vt 0.499629 0.517640
vt 0.000321 0.517641
vt 0.000320 0.500394
vt 0.499629 0.500390
vt 0.499629 0.517640
vt 0.000321 0.517641
vt 0.000320 0.500394
vt 0.499629 0.500390
vt 0.499629 0.517640
vt 0.000321 0.517641
vt 0.000320 0.500394
vt 0.499629 0.500390
vt 0.499629 0.517640
vt 0.000321 0.517641
vt 0.000320 0.500394
vt 0.499629 0.500390
vt 0.499629 0.517640
vt 0.000321 0.517641
vt 0.040181 0.519913
vt 0.258078 0.519913
vt 0.240237 0.548994
vt 0.040182 0.548994
vt 0.111471 0.519266
vt 0.329367 0.519266
vt 0.329367 0.548994
vt 0.111471 0.548994
vt 0.228658 0.519913
vt 0.412375 0.519913
vt 0.428714 0.548994
vt 0.228658 0.548994
vt 0.111471 0.518575
vt 0.329367 0.518575
vt 0.329367 0.548994
vt 0.111471 0.548994
vt 0.197266 0.518778
vt 0.249631 0.518778
vt 0.249631 0.547873
vt 0.197266 0.547873
vt 0.002324 0.500566
vt 0.500588 0.500563
vt 0.500588 0.516757
vt 0.002324 0.516757
vt 0.000320 0.500394
vt 0.499629 0.500390
vt 0.499629 0.517640
vt 0.000321 0.517641
vt 0.002324 0.500566
vt 0.500588 0.500563
vt 0.500588 0.516757
vt 0.002324 0.516757
vt 0.930861 0.921565
vt 0.930861 0.999042
vt 0.692039 0.999042
vt 0.692039 0.921565
vt 0.002324 0.500566
vt 0.500588 0.500563
vt 0.500588 0.516757
vt 0.002324 0.516757
vt 0.002324 0.500566
vt 0.500588 0.500563
vt 0.500588 0.516757
vt 0.002324 0.516757
vt 0.000320 0.500394
vt 0.499629 0.500390
vt 0.499629 0.517640
vt 0.000321 0.517641
vt 0.000320 0.500394
vt 0.499629 0.500390
vt 0.499629 0.517640
vt 0.000321 0.517641
vt 0.000320 0.500394
vt 0.499629 0.500390
vt 0.499629 0.517640
vt 0.000321 0.517641
vt 0.000320 0.500394
vt 0.499629 0.500390
vt 0.499629 0.517640
vt 0.000321 0.517641
vt 0.695731 0.681703
vt 0.695731 0.610058
vt 0.934424 0.610058
vt 0.934424 0.681703
vt 0.000320 0.500394
vt 0.499629 0.500390
vt 0.499629 0.517640
vt 0.000321 0.517641
vt 0.000320 0.500394
vt 0.499629 0.500390
vt 0.499629 0.517640
vt 0.000321 0.517641
vt 0.000320 0.500394
vt 0.499629 0.500390
vt 0.499629 0.517640
vt 0.000321 0.517641
vt 0.000320 0.500394
vt 0.499629 0.500390
vt 0.499629 0.517640
vt 0.000321 0.517641
vt 0.000320 0.500394
vt 0.499629 0.500390
vt 0.499629 0.517640
vt 0.000321 0.517641
vt 0.000320 0.500394
vt 0.499629 0.500390
vt 0.499629 0.517640
vt 0.000321 0.517641
vt 0.000320 0.500394
vt 0.499629 0.500390
vt 0.499629 0.517640
vt 0.000321 0.517641
vt 0.000320 0.500394
vt 0.499629 0.500390
vt 0.499629 0.517640
vt 0.000321 0.517641
vt 0.000320 0.500394
vt 0.499629 0.500390
vt 0.499629 0.517640
vt 0.000321 0.517641
vt 0.000320 0.500394
vt 0.499629 0.500390
vt 0.499629 0.517640
vt 0.000321 0.517641
vt 0.000320 0.500394
vt 0.499629 0.500390
vt 0.499629 0.517640
vt 0.000321 0.517641
vt 0.000320 0.500394
vt 0.499629 0.500390
vt 0.499629 0.517640
vt 0.000321 0.517641
vt 0.000320 0.500394
vt 0.499629 0.500390
vt 0.499629 0.517640
vt 0.000321 0.517641
vt 0.000320 0.500394
vt 0.499629 0.500390
vt 0.499629 0.517640
vt 0.000321 0.517641
vt 0.000320 0.500394
vt 0.499629 0.500390
vt 0.499629 0.517640
vt 0.000321 0.517641
vt 0.040181 0.519913
vt 0.258078 0.519913
vt 0.240237 0.548994
vt 0.040182 0.548994
vt 0.111471 0.519266
vt 0.329367 0.519266
vt 0.329367 0.548994
vt 0.111471 0.548994
vt 0.228658 0.519913
vt 0.412375 0.519913
vt 0.428714 0.548994
vt 0.228658 0.548994
vt 0.111471 0.518575
vt 0.329367 0.518575
vt 0.329367 0.548994
vt 0.111471 0.548994
vt 0.197266 0.518778
vt 0.249631 0.518778
vt 0.249631 0.547873
vt 0.197266 0.547873
vn 1.0000 0.0000 0.0000
vn 0.0000 0.0000 1.0000
vn -1.0000 0.0000 0.0000
vn -0.0000 0.0000 -1.0000
vn 0.0000 -1.0000 0.0000
vn 0.0000 1.0000 0.0000
vn 0.0000 0.8522 0.5232
usemtl Atlas-01.002
s 1
f 1/1/1 2/2/1 4/3/1 3/4/1
f 8/5/2 7/6/2 12/7/2 11/8/2
f 7/9/3 8/10/3 6/11/3 5/12/3
f 5/13/4 6/14/4 2/15/4 1/16/4
f 3/17/5 7/18/5 5/19/5 1/20/5
f 8/21/6 4/22/6 2/23/6 6/24/6
f 12/25/6 10/26/6 14/27/6 16/28/6
f 7/29/2 3/30/2 10/31/2 12/32/2
f 4/33/2 8/34/2 11/35/2 9/36/2
f 3/37/2 4/38/2 9/39/2 10/40/2
f 14/41/2 13/42/2 15/43/2 16/44/2
f 9/45/5 11/46/5 15/47/5 13/48/5
f 11/49/1 12/50/1 16/51/1 15/52/1
f 10/53/3 9/54/3 13/55/3 14/56/3
f 20/57/6 19/58/6 21/59/6 22/60/6
f 18/61/2 17/62/2 19/63/2 20/64/2
f 17/65/5 18/66/5 24/67/5 23/68/5
f 25/69/2 26/70/2 27/71/2 28/72/2
f 28/73/3 27/74/3 29/75/3 30/76/3
f 26/77/1 25/78/1 31/79/1 32/80/1
f 33/81/2 34/82/2 35/83/2 36/84/2
f 36/85/3 35/86/3 37/87/3 38/88/3
f 34/89/1 33/90/1 39/91/1 40/92/1
f 41/93/2 42/94/2 43/95/2 44/96/2
f 44/97/3 43/98/3 45/99/3 46/100/3
f 42/101/1 41/102/1 47/103/1 48/104/1
f 49/105/1 50/106/1 52/107/1 51/108/1
f 51/109/2 52/110/2 56/111/2 55/112/2
f 55/113/3 56/114/3 54/115/3 53/116/3
f 53/117/4 54/118/4 50/119/4 49/120/4
f 56/121/7 52/122/7 50/123/7 54/124/7
f 57/125/1 58/126/1 60/127/1 59/128/1
f 64/129/2 63/130/2 68/131/2 67/132/2
f 63/133/3 64/134/3 62/135/3 61/136/3
f 61/137/4 62/138/4 58/139/4 57/140/4
f 59/141/5 63/142/5 61/143/5 57/144/5
f 64/145/6 60/146/6 58/147/6 62/148/6
f 68/149/6 66/150/6 70/151/6 72/152/6
f 63/153/2 59/154/2 66/155/2 68/156/2
f 60/157/2 64/158/2 67/159/2 65/160/2
f 59/161/2 60/162/2 65/163/2 66/164/2
f 70/165/2 69/166/2 71/167/2 72/168/2
f 65/169/5 67/170/5 71/171/5 69/172/5
f 67/173/1 68/174/1 72/175/1 71/176/1
f 66/177/3 65/178/3 69/179/3 70/180/3
f 76/181/6 75/182/6 77/183/6 78/184/6
f 74/185/2 73/186/2 75/187/2 76/188/2
f 73/189/5 74/190/5 80/191/5 79/192/5
f 81/193/2 82/194/2 83/195/2 84/196/2
f 84/197/3 83/198/3 85/199/3 86/200/3
f 82/201/1 81/202/1 87/203/1 88/204/1
f 89/205/2 90/206/2 91/207/2 92/208/2
f 92/209/3 91/210/3 93/211/3 94/212/3
f 90/213/1 89/214/1 95/215/1 96/216/1
f 97/217/2 98/218/2 99/219/2 100/220/2
f 100/221/3 99/222/3 101/223/3 102/224/3
f 98/225/1 97/226/1 103/227/1 104/228/1
f 105/229/1 106/230/1 108/231/1 107/232/1
f 107/233/2 108/234/2 112/235/2 111/236/2
f 111/237/3 112/238/3 110/239/3 109/240/3
f 109/241/4 110/242/4 106/243/4 105/244/4
f 112/245/7 108/246/7 106/247/7 110/248/7
f 113/249/1 114/250/1 116/251/1 115/252/1
f 120/253/2 119/254/2 124/255/2 123/256/2
f 119/257/3 120/258/3 118/259/3 117/260/3
f 117/261/4 118/262/4 114/263/4 113/264/4
f 115/265/5 119/266/5 117/267/5 113/268/5
f 120/269/6 116/270/6 114/271/6 118/272/6
f 124/273/6 122/274/6 126/275/6 128/276/6
f 119/277/2 115/278/2 122/279/2 124/280/2
f 116/281/2 120/282/2 123/283/2 121/284/2
f 115/285/2 116/286/2 121/287/2 122/288/2
f 126/289/2 125/290/2 127/291/2 128/292/2
f 121/293/5 123/294/5 127/295/5 125/296/5
f 123/297/1 124/298/1 128/299/1 127/300/1
f 122/301/3 121/302/3 125/303/3 126/304/3
f 132/305/6 131/306/6 133/307/6 134/308/6
f 130/309/2 129/310/2 131/311/2 132/312/2
f 129/313/5 130/314/5 136/315/5 135/316/5
f 137/317/2 138/318/2 139/319/2 140/320/2
f 140/321/3 139/322/3 141/323/3 142/324/3
f 138/325/1 137/326/1 143/327/1 144/328/1
f 145/329/2 146/330/2 147/331/2 148/332/2
f 148/333/3 147/334/3 149/335/3 150/336/3
f 146/337/1 145/338/1 151/339/1 152/340/1
f 153/341/2 154/342/2 155/343/2 156/344/2
f 156/345/3 155/346/3 157/347/3 158/348/3
f 154/349/1 153/350/1 159/351/1 160/352/1
f 161/353/1 162/354/1 164/355/1 163/356/1
f 163/357/2 164/358/2 168/359/2 167/360/2
f 167/361/3 168/362/3 166/363/3 165/364/3
f 165/365/4 166/366/4 162/367/4 161/368/4
f 168/369/7 164/370/7 162/371/7 166/372/7
f 169/373/1 170/374/1 172/375/1 171/376/1
f 176/377/2 175/378/2 180/379/2 179/380/2
f 175/381/3 176/382/3 174/383/3 173/384/3
f 173/385/4 174/386/4 170/387/4 169/388/4
f 171/389/5 175/390/5 173/391/5 169/392/5
f 176/393/6 172/394/6 170/395/6 174/396/6
f 180/397/6 178/398/6 182/399/6 184/400/6
f 175/401/2 171/402/2 178/403/2 180/404/2
f 172/405/2 176/406/2 179/407/2 177/408/2
f 171/409/2 172/410/2 177/411/2 178/412/2
f 182/413/2 181/414/2 183/415/2 184/416/2
f 177/417/5 179/418/5 183/419/5 181/420/5
f 179/421/1 180/422/1 184/423/1 183/424/1
f 178/425/3 177/426/3 181/427/3 182/428/3
f 188/429/6 187/430/6 189/431/6 190/432/6
f 186/433/2 185/434/2 187/435/2 188/436/2
f 185/437/5 186/438/5 192/439/5 191/440/5
f 193/441/2 194/442/2 195/443/2 196/444/2
f 196/445/3 195/446/3 197/447/3 198/448/3
f 194/449/1 193/450/1 199/451/1 200/452/1
f 201/453/2 202/454/2 203/455/2 204/456/2
f 204/457/3 203/458/3 205/459/3 206/460/3
f 202/461/1 201/462/1 207/463/1 208/464/1
f 209/465/2 210/466/2 211/467/2 212/468/2
f 212/469/3 211/470/3 213/471/3 214/472/3
f 210/473/1 209/474/1 215/475/1 216/476/1
f 217/477/1 218/478/1 220/479/1 219/480/1
f 219/481/2 220/482/2 224/483/2 223/484/2
f 223/485/3 224/486/3 222/487/3 221/488/3
f 221/489/4 222/490/4 218/491/4 217/492/4
f 224/493/7 220/494/7 218/495/7 222/496/7
