# Blender v3.0.0 OBJ File: ''
# www.blender.org
mtllib OutDoor-C2-1.mtl
o Cube_Cube.009
v 3.050715 4.716122 -0.020437
v 3.050715 7.306929 -0.020437
v 3.050715 4.716122 0.114368
v 3.050715 7.306929 0.114368
v -3.050715 4.716122 -0.020437
v -3.050715 7.306929 -0.020437
v -3.050715 4.716122 0.114369
v -3.050715 7.306929 0.114369
v 2.913798 7.180529 0.114368
v 2.913798 4.842523 0.114368
v -2.913797 7.180529 0.114369
v -2.913797 4.842523 0.114369
v 2.913798 7.180529 0.037237
v 2.913798 4.842523 0.037237
v -2.913797 7.180529 0.037237
v -2.913797 4.842523 0.037237
v 2.911715 5.891168 0.114368
v -2.911715 5.891168 0.114369
v 2.911714 6.076299 0.114368
v -2.911714 6.076299 0.114369
v 2.911714 6.076299 0.037237
v -2.911714 6.076299 0.037237
v 2.911715 5.891168 0.037237
v -2.911715 5.891168 0.037237
v 0.062413 4.837618 0.102248
v 0.062413 7.185430 0.102248
v -0.062412 7.185430 0.102248
v -0.062412 4.837621 0.102248
v -0.062412 7.185430 0.037237
v -0.062412 4.837621 0.037237
v 0.062413 4.837618 0.037237
v 0.062413 7.185430 0.037237
v 1.611090 4.837618 0.102248
v 1.611090 7.185430 0.102248
v 1.486266 7.185430 0.102248
v 1.486266 4.837621 0.102248
v 1.486266 7.185430 0.037237
v 1.486266 4.837621 0.037237
v 1.611090 4.837618 0.037237
v 1.611090 7.185430 0.037237
v -1.416767 4.837618 0.102248
v -1.416767 7.185430 0.102248
v -1.541592 7.185430 0.102248
v -1.541592 4.837621 0.102248
v -1.541592 7.185430 0.037237
v -1.541592 4.837621 0.037237
v -1.416767 4.837618 0.037237
v -1.416767 7.185430 0.037237
v -1.325998 -0.583739 0.287981
v -1.325998 8.055573 0.287980
v -1.396087 -0.583739 0.258949
v -1.396087 8.055573 0.258948
v -1.425119 -0.583739 0.188861
v -1.425119 8.055573 0.188859
v -1.396087 -0.583739 0.118772
v -1.396087 8.055573 0.118770
v -1.325998 -0.583739 0.089740
v -1.325998 8.055573 0.089738
v -1.255909 -0.583739 0.118772
v -1.255909 8.055573 0.118770
v -1.226878 -0.583739 0.188861
v -1.226878 8.055573 0.188859
v -1.255909 -0.583739 0.258949
v -1.255909 8.055573 0.258948
v 1.399791 -0.583739 0.287981
v 1.399791 8.055573 0.287980
v 1.329702 -0.583739 0.258949
v 1.329702 8.055573 0.258948
v 1.300670 -0.583739 0.188861
v 1.300670 8.055573 0.188859
v 1.329702 -0.583739 0.118772
v 1.329702 8.055573 0.118770
v 1.399791 -0.583739 0.089740
v 1.399791 8.055573 0.089738
v 1.469880 -0.583739 0.118772
v 1.469880 8.055573 0.118770
v 1.498911 -0.583739 0.188861
v 1.498911 8.055573 0.188859
v 1.469880 -0.583739 0.258949
v 1.469880 8.055573 0.258948
v -1.326984 5.922527 0.311344
v -1.326984 6.054429 0.311344
v -1.397073 5.922527 0.282312
v -1.397073 6.054429 0.282312
v -1.441226 5.920066 0.212223
v -1.441226 6.056891 0.212223
v -1.212742 5.920066 0.212223
v -1.212742 6.056891 0.212223
v -1.256895 5.922527 0.282312
v -1.256895 6.054429 0.282312
v -1.326984 5.922527 0.296686
v -1.326984 6.054429 0.296686
v -1.387086 5.922527 0.275956
v -1.387086 6.054429 0.275956
v -1.424948 5.920066 0.212223
v -1.424948 6.056891 0.212223
v -1.229020 5.920066 0.212223
v -1.229020 6.056891 0.212223
v -1.266882 5.922527 0.275956
v -1.266882 6.054429 0.275956
v -1.441226 5.920066 0.116033
v -1.441226 6.056891 0.116033
v -1.212742 5.920066 0.116033
v -1.212742 6.056891 0.116033
v -1.424948 5.920066 0.116033
v -1.424948 6.056891 0.116033
v -1.229020 5.920066 0.116033
v -1.229020 6.056891 0.116033
v 1.399945 5.922527 0.311344
v 1.399945 6.054429 0.311344
v 1.329856 5.922527 0.282312
v 1.329856 6.054429 0.282312
v 1.285703 5.920066 0.212223
v 1.285703 6.056891 0.212223
v 1.514187 5.920066 0.212223
v 1.514187 6.056891 0.212223
v 1.470034 5.922527 0.282312
v 1.470034 6.054429 0.282312
v 1.399945 5.922527 0.296686
v 1.399945 6.054429 0.296686
v 1.339843 5.922527 0.275956
v 1.339843 6.054429 0.275956
v 1.301981 5.920066 0.212223
v 1.301981 6.056891 0.212223
v 1.497909 5.920066 0.212223
v 1.497909 6.056891 0.212223
v 1.460047 5.922527 0.275956
v 1.460047 6.054429 0.275956
v 1.285703 5.920066 0.116033
v 1.285703 6.056891 0.116033
v 1.514187 5.920066 0.116033
v 1.514187 6.056891 0.116033
v 1.301981 5.920066 0.116033
v 1.301981 6.056891 0.116033
v 1.497909 5.920066 0.116033
v 1.497909 6.056891 0.116033
v 3.050715 1.864582 -0.020437
v 3.050715 4.455389 -0.020437
v 3.050715 1.864582 0.114369
v 3.050715 4.455389 0.114369
v -3.050715 1.864582 -0.020436
v -3.050715 4.455389 -0.020436
v -3.050715 1.864582 0.114369
v -3.050715 4.455389 0.114369
v 2.913798 4.328988 0.114369
v 2.913798 1.990982 0.114369
v -2.913797 4.328988 0.114369
v -2.913797 1.990982 0.114369
v 2.913798 4.328988 0.037237
v 2.913798 1.990982 0.037237
v -2.913797 4.328988 0.037238
v -2.913797 1.990982 0.037238
v 2.911715 3.039627 0.114369
v -2.911715 3.039627 0.114369
v 2.911714 3.224758 0.114369
v -2.911714 3.224758 0.114369
v 2.911714 3.224758 0.037237
v -2.911714 3.224758 0.037238
v 2.911715 3.039627 0.037237
v -2.911715 3.039627 0.037238
v 0.062413 1.986077 0.102248
v 0.062413 4.333889 0.102248
v -0.062412 4.333890 0.102248
v -0.062412 1.986080 0.102248
v -0.062412 4.333890 0.037237
v -0.062412 1.986080 0.037237
v 0.062413 1.986077 0.037237
v 0.062413 4.333889 0.037237
v 1.611090 1.986077 0.102248
v 1.611090 4.333889 0.102248
v 1.486266 4.333890 0.102248
v 1.486266 1.986080 0.102248
v 1.486266 4.333890 0.037237
v 1.486266 1.986080 0.037237
v 1.611090 1.986077 0.037237
v 1.611090 4.333889 0.037237
v -1.416767 1.986077 0.102248
v -1.416767 4.333889 0.102248
v -1.541592 4.333890 0.102248
v -1.541592 1.986080 0.102248
v -1.541592 4.333890 0.037237
v -1.541592 1.986080 0.037237
v -1.416767 1.986077 0.037237
v -1.416767 4.333889 0.037237
v -1.326984 3.070987 0.311344
v -1.326984 3.202888 0.311344
v -1.397073 3.070987 0.282313
v -1.397073 3.202888 0.282313
v -1.441226 3.068525 0.212224
v -1.441226 3.205350 0.212224
v -1.212742 3.068525 0.212224
v -1.212742 3.205350 0.212224
v -1.256895 3.070987 0.282313
v -1.256895 3.202888 0.282313
v -1.326984 3.070987 0.296687
v -1.326984 3.202888 0.296687
v -1.387086 3.070987 0.275956
v -1.387086 3.202888 0.275956
v -1.424948 3.068525 0.212224
v -1.424948 3.205350 0.212224
v -1.229020 3.068525 0.212224
v -1.229020 3.205350 0.212224
v -1.266882 3.070987 0.275956
v -1.266882 3.202888 0.275956
v -1.441226 3.068525 0.116034
v -1.441226 3.205350 0.116034
v -1.212742 3.068525 0.116034
v -1.212742 3.205350 0.116034
v -1.424948 3.068525 0.116034
v -1.424948 3.205350 0.116033
v -1.229020 3.068525 0.116034
v -1.229020 3.205350 0.116033
v 1.399945 3.070987 0.311344
v 1.399945 3.202888 0.311344
v 1.329856 3.070987 0.282313
v 1.329856 3.202888 0.282313
v 1.285703 3.068525 0.212224
v 1.285703 3.205350 0.212224
v 1.514187 3.068525 0.212224
v 1.514187 3.205350 0.212224
v 1.470034 3.070987 0.282313
v 1.470034 3.202888 0.282313
v 1.399945 3.070987 0.296687
v 1.399945 3.202888 0.296687
v 1.339843 3.070987 0.275956
v 1.339843 3.202888 0.275956
v 1.301981 3.068525 0.212224
v 1.301981 3.205350 0.212224
v 1.497909 3.068525 0.212224
v 1.497909 3.205350 0.212224
v 1.460047 3.070987 0.275956
v 1.460047 3.202888 0.275956
v 1.285703 3.068525 0.116034
v 1.285703 3.205350 0.116034
v 1.514187 3.068525 0.116034
v 1.514187 3.205350 0.116034
v 1.301981 3.068525 0.116034
v 1.301981 3.205350 0.116033
v 1.497909 3.068525 0.116034
v 1.497909 3.205350 0.116033
vt 0.001519 0.500536
vt 0.496130 0.500535
vt 0.496130 0.517354
vt 0.001519 0.517354
vt 0.613757 0.624752
vt 0.999764 0.624749
vt 0.999764 0.668504
vt 0.613757 0.668504
vt 0.496130 0.517353
vt 0.001519 0.517354
vt 0.001519 0.500535
vt 0.496130 0.500535
vt 0.922276 0.922020
vt 0.922276 0.997032
vt 0.706297 0.997032
vt 0.706297 0.922020
vt 0.496130 0.517353
vt 0.001519 0.517354
vt 0.001519 0.500535
vt 0.496130 0.500535
vt 0.496130 0.517353
vt 0.001519 0.517354
vt 0.001519 0.500535
vt 0.496130 0.500535
vt 0.613757 0.624752
vt 0.999764 0.624749
vt 0.999764 0.668504
vt 0.613757 0.668504
vt 0.613757 0.624752
vt 0.999764 0.624749
vt 0.999764 0.668504
vt 0.613757 0.668504
vt 0.613757 0.624752
vt 0.999764 0.624749
vt 0.999764 0.668504
vt 0.613757 0.668504
vt 0.613757 0.624752
vt 0.999764 0.624749
vt 0.999764 0.668504
vt 0.613757 0.668504
vt 0.613757 0.624752
vt 0.999764 0.624749
vt 0.999764 0.668504
vt 0.613757 0.668504
vt 0.613757 0.624752
vt 0.999764 0.624749
vt 0.999764 0.668504
vt 0.613757 0.668504
vt 0.613757 0.624752
vt 0.999764 0.624749
vt 0.999764 0.668504
vt 0.613757 0.668504
vt 0.613757 0.624752
vt 0.999764 0.624749
vt 0.999764 0.668504
vt 0.613757 0.668504
vt 0.613757 0.624752
vt 0.999764 0.624749
vt 0.999764 0.668504
vt 0.613757 0.668504
vt 0.613757 0.624752
vt 0.999764 0.624749
vt 0.999764 0.668504
vt 0.613757 0.668504
vt 0.613757 0.624752
vt 0.999764 0.624749
vt 0.999764 0.668504
vt 0.613757 0.668504
vt 0.613757 0.624752
vt 0.999764 0.624749
vt 0.999764 0.668504
vt 0.613757 0.668504
vt 0.613757 0.624752
vt 0.999764 0.624749
vt 0.999764 0.668504
vt 0.613757 0.668504
vt 0.613757 0.624752
vt 0.999764 0.624749
vt 0.999764 0.668504
vt 0.613757 0.668504
vt 0.613757 0.624752
vt 0.999764 0.624749
vt 0.999764 0.668504
vt 0.613757 0.668504
vt 0.613757 0.624752
vt 0.999764 0.624749
vt 0.999764 0.668504
vt 0.613757 0.668504
vt 0.613757 0.624752
vt 0.999764 0.624749
vt 0.999764 0.668504
vt 0.613757 0.668504
vt 0.613757 0.624752
vt 0.999764 0.624749
vt 0.999764 0.668504
vt 0.613757 0.668504
vt 0.613757 0.624752
vt 0.999764 0.624749
vt 0.999764 0.668504
vt 0.613757 0.668504
vt 0.001519 0.500536
vt 0.496130 0.500535
vt 0.496130 0.517354
vt 0.001519 0.517354
vt 0.613757 0.624752
vt 0.999764 0.624749
vt 0.999764 0.668504
vt 0.613757 0.668504
vt 0.496130 0.517353
vt 0.001519 0.517354
vt 0.001519 0.500535
vt 0.496130 0.500535
vt 0.922276 0.842430
vt 0.922276 0.917442
vt 0.706297 0.917442
vt 0.706297 0.842430
vt 0.496130 0.517353
vt 0.001519 0.517354
vt 0.001519 0.500535
vt 0.496130 0.500535
vt 0.496130 0.517353
vt 0.001519 0.517354
vt 0.001519 0.500535
vt 0.496130 0.500535
vt 0.613757 0.624752
vt 0.999764 0.624749
vt 0.999764 0.668504
vt 0.613757 0.668504
vt 0.613757 0.624752
vt 0.999764 0.624749
vt 0.999764 0.668504
vt 0.613757 0.668504
vt 0.613757 0.624752
vt 0.999764 0.624749
vt 0.999764 0.668504
vt 0.613757 0.668504
vt 0.613757 0.624752
vt 0.999764 0.624749
vt 0.999764 0.668504
vt 0.613757 0.668504
vt 0.613757 0.624752
vt 0.999764 0.624749
vt 0.999764 0.668504
vt 0.613757 0.668504
vt 0.613757 0.624752
vt 0.999764 0.624749
vt 0.999764 0.668504
vt 0.613757 0.668504
vt 0.613757 0.624752
vt 0.999764 0.624749
vt 0.999764 0.668504
vt 0.613757 0.668504
vt 0.613757 0.624752
vt 0.999764 0.624749
vt 0.999764 0.668504
vt 0.613757 0.668504
vt 0.613757 0.624752
vt 0.999764 0.624749
vt 0.999764 0.668504
vt 0.613757 0.668504
vt 0.613757 0.624752
vt 0.999764 0.624749
vt 0.999764 0.668504
vt 0.613757 0.668504
vt 0.613757 0.624752
vt 0.999764 0.624749
vt 0.999764 0.668504
vt 0.613757 0.668504
vt 0.613757 0.624752
vt 0.999764 0.624749
vt 0.999764 0.668504
vt 0.613757 0.668504
vt 0.613757 0.624752
vt 0.999764 0.624749
vt 0.999764 0.668504
vt 0.613757 0.668504
vt 0.613757 0.624752
vt 0.999764 0.624749
vt 0.999764 0.668504
vt 0.613757 0.668504
vt 0.613757 0.624752
vt 0.999764 0.624749
vt 0.999764 0.668504
vt 0.613757 0.668504
vt 0.613757 0.624752
vt 0.999764 0.624749
vt 0.999764 0.668504
vt 0.613757 0.668504
vt 0.613757 0.624752
vt 0.999764 0.624749
vt 0.999764 0.668504
vt 0.613757 0.668504
vt 0.613757 0.624752
vt 0.999764 0.624749
vt 0.999764 0.668504
vt 0.613757 0.668504
vt 0.613757 0.624752
vt 0.999764 0.624749
vt 0.999764 0.668504
vt 0.613757 0.668504
vt 0.877415 0.139170
vt 0.877415 0.494720
vt 0.460554 0.494720
vt 0.460554 0.139170
vt 0.004387 0.206126
vt 0.989174 0.206126
vt 0.989261 0.242286
vt 0.004474 0.242286
vt 0.989347 0.278445
vt 0.004560 0.278446
vt 0.989433 0.314605
vt 0.004646 0.314605
vt 0.989519 0.350765
vt 0.004732 0.350765
vt 0.989605 0.386924
vt 0.004819 0.386924
vt 0.989692 0.423084
vt 0.004905 0.423084
vt 0.676016 0.263442
vt 0.676016 0.315030
vt 0.657777 0.351508
vt 0.631983 0.351508
vt 0.613744 0.315030
vt 0.613744 0.263442
vt 0.631983 0.226964
vt 0.657777 0.226964
vt 0.989778 0.459243
vt 0.004991 0.459244
vt 0.004387 0.170096
vt 0.989174 0.170096
vt 0.989261 0.206255
vt 0.004474 0.206256
vt 0.004387 0.206126
vt 0.989174 0.206126
vt 0.989261 0.242286
vt 0.004474 0.242286
vt 0.989347 0.278445
vt 0.004560 0.278446
vt 0.989433 0.314605
vt 0.004646 0.314605
vt 0.989519 0.350765
vt 0.004732 0.350765
vt 0.989605 0.386924
vt 0.004819 0.386924
vt 0.989692 0.423084
vt 0.004905 0.423084
vt 0.738324 0.263442
vt 0.738324 0.315030
vt 0.720085 0.351508
vt 0.694291 0.351508
vt 0.676052 0.315030
vt 0.676052 0.263442
vt 0.694291 0.226964
vt 0.720085 0.226964
vt 0.989778 0.459243
vt 0.004991 0.459244
vt 0.004387 0.170096
vt 0.989174 0.170096
vt 0.989261 0.206255
vt 0.004474 0.206256
vt 0.498178 0.789487
vt 0.501822 0.729910
vt 0.534900 0.728572
vt 0.531829 0.791018
vt 0.571883 0.726206
vt 0.569442 0.793064
vt 0.428117 0.793191
vt 0.430558 0.726333
vt 0.468171 0.728379
vt 0.465100 0.790825
vt 0.433773 0.718893
vt 0.470424 0.723214
vt 0.532700 0.723492
vt 0.568656 0.719101
vt 0.501841 0.723700
vt 0.467300 0.795905
vt 0.431344 0.800296
vt 0.566227 0.800505
vt 0.529576 0.796184
vt 0.498159 0.795697
vt 0.616964 0.800693
vt 0.615520 0.809035
vt 0.384415 0.801344
vt 0.383036 0.718704
vt 0.614106 0.710362
vt 0.615585 0.718053
vt 0.385894 0.809036
vt 0.384480 0.710362
vt 0.498178 0.789487
vt 0.501822 0.729910
vt 0.534900 0.728572
vt 0.531829 0.791018
vt 0.571883 0.726206
vt 0.569442 0.793064
vt 0.428117 0.793191
vt 0.430558 0.726333
vt 0.468171 0.728379
vt 0.465100 0.790825
vt 0.433773 0.718893
vt 0.470424 0.723214
vt 0.532700 0.723492
vt 0.568656 0.719101
vt 0.501841 0.723700
vt 0.467300 0.795905
vt 0.431344 0.800296
vt 0.566227 0.800505
vt 0.529576 0.796184
vt 0.498159 0.795697
vt 0.616964 0.800693
vt 0.615520 0.809035
vt 0.384415 0.801344
vt 0.383036 0.718704
vt 0.614106 0.710362
vt 0.615585 0.718053
vt 0.385894 0.809036
vt 0.384480 0.710362
vt 0.877415 0.139170
vt 0.877415 0.494720
vt 0.460554 0.494720
vt 0.460554 0.139170
vt 0.498178 0.789487
vt 0.501822 0.729910
vt 0.534900 0.728572
vt 0.531829 0.791018
vt 0.571883 0.726206
vt 0.569442 0.793064
vt 0.428117 0.793191
vt 0.430558 0.726333
vt 0.468171 0.728379
vt 0.465100 0.790825
vt 0.433773 0.718893
vt 0.470424 0.723214
vt 0.532700 0.723492
vt 0.568656 0.719101
vt 0.501841 0.723700
vt 0.467300 0.795905
vt 0.431344 0.800296
vt 0.566227 0.800505
vt 0.529576 0.796184
vt 0.498159 0.795697
vt 0.616964 0.800693
vt 0.615520 0.809035
vt 0.384415 0.801344
vt 0.383036 0.718704
vt 0.614106 0.710362
vt 0.615585 0.718053
vt 0.385894 0.809036
vt 0.384480 0.710362
vt 0.498178 0.789487
vt 0.501822 0.729910
vt 0.534900 0.728572
vt 0.531829 0.791018
vt 0.571883 0.726206
vt 0.569442 0.793064
vt 0.428117 0.793191
vt 0.430558 0.726333
vt 0.468171 0.728379
vt 0.465100 0.790825
vt 0.433773 0.718893
vt 0.470424 0.723214
vt 0.532700 0.723492
vt 0.568656 0.719101
vt 0.501841 0.723700
vt 0.467300 0.795905
vt 0.431344 0.800296
vt 0.566227 0.800505
vt 0.529576 0.796184
vt 0.498159 0.795697
vt 0.616964 0.800693
vt 0.615520 0.809035
vt 0.384415 0.801344
vt 0.383036 0.718704
vt 0.614106 0.710362
vt 0.615585 0.718053
vt 0.385894 0.809036
vt 0.384480 0.710362
vn 1.0000 0.0000 0.0000
vn 0.0000 0.0000 1.0000
vn -1.0000 -0.0000 0.0000
vn -0.0000 -0.0000 -1.0000
vn 0.0000 -1.0000 0.0000
vn 0.0000 1.0000 0.0000
vn -0.7071 0.0000 0.7071
vn -0.7071 -0.0000 -0.7071
vn 0.7071 -0.0000 -0.7071
vn 0.7071 0.0000 0.7071
vn 0.0000 -0.6303 0.7764
vn 0.0000 0.6303 0.7764
vn -0.4905 0.6373 0.5943
vn -0.4905 -0.6373 0.5943
vn -0.7259 0.6530 0.2162
vn -0.7259 -0.6530 0.2161
vn 0.7259 -0.6530 0.2161
vn 0.7259 0.6530 0.2162
vn 0.4905 0.6373 0.5943
vn 0.4905 -0.6373 0.5943
vn -0.0044 0.9998 0.0183
vn -0.0032 0.9999 0.0133
vn 0.0032 0.9999 0.0133
vn 0.0044 0.9998 0.0183
vn -0.0032 -0.9999 0.0133
vn -0.0044 -0.9998 0.0183
vn 0.0044 -0.9998 0.0183
vn 0.0032 -0.9999 0.0133
vn -0.7071 -0.7071 0.0000
vn 0.7071 -0.7071 0.0000
vn 0.7071 0.7071 0.0000
vn -0.7071 0.7071 0.0000
vn 0.7259 0.6530 0.2161
vn -0.0032 0.9999 0.0134
vn -0.0032 -0.9999 0.0134
vn -0.7259 0.6530 0.2161
vn 0.7259 -0.6530 0.2162
vn -0.7259 -0.6530 0.2162
usemtl Atlas-01.018
s 1
f 1/1/1 2/2/1 4/3/1 3/4/1
f 8/5/2 7/6/2 12/7/2 11/8/2
f 7/9/3 8/10/3 6/11/3 5/12/3
f 5/13/4 6/14/4 2/15/4 1/16/4
f 3/17/5 7/18/5 5/19/5 1/20/5
f 8/21/6 4/22/6 2/23/6 6/24/6
f 12/25/6 10/26/6 14/27/6 16/28/6
f 7/29/2 3/30/2 10/31/2 12/32/2
f 4/33/2 8/34/2 11/35/2 9/36/2
f 3/37/2 4/38/2 9/39/2 10/40/2
f 9/41/5 11/42/5 15/43/5 13/44/5
f 11/45/1 12/46/1 16/47/1 15/48/1
f 10/49/3 9/50/3 13/51/3 14/52/3
f 20/53/6 19/54/6 21/55/6 22/56/6
f 18/57/2 17/58/2 19/59/2 20/60/2
f 17/61/5 18/62/5 24/63/5 23/64/5
f 25/65/2 26/66/2 27/67/2 28/68/2
f 28/69/3 27/70/3 29/71/3 30/72/3
f 26/73/1 25/74/1 31/75/1 32/76/1
f 33/77/2 34/78/2 35/79/2 36/80/2
f 36/81/3 35/82/3 37/83/3 38/84/3
f 34/85/1 33/86/1 39/87/1 40/88/1
f 41/89/2 42/90/2 43/91/2 44/92/2
f 44/93/3 43/94/3 45/95/3 46/96/3
f 42/97/1 41/98/1 47/99/1 48/100/1
f 137/101/1 138/102/1 140/103/1 139/104/1
f 144/105/2 143/106/2 148/107/2 147/108/2
f 143/109/3 144/110/3 142/111/3 141/112/3
f 141/113/4 142/114/4 138/115/4 137/116/4
f 139/117/5 143/118/5 141/119/5 137/120/5
f 144/121/6 140/122/6 138/123/6 142/124/6
f 148/125/6 146/126/6 150/127/6 152/128/6
f 143/129/2 139/130/2 146/131/2 148/132/2
f 140/133/2 144/134/2 147/135/2 145/136/2
f 139/137/2 140/138/2 145/139/2 146/140/2
f 145/141/5 147/142/5 151/143/5 149/144/5
f 147/145/1 148/146/1 152/147/1 151/148/1
f 146/149/3 145/150/3 149/151/3 150/152/3
f 156/153/6 155/154/6 157/155/6 158/156/6
f 154/157/2 153/158/2 155/159/2 156/160/2
f 153/161/5 154/162/5 160/163/5 159/164/5
f 161/165/2 162/166/2 163/167/2 164/168/2
f 164/169/3 163/170/3 165/171/3 166/172/3
f 162/173/1 161/174/1 167/175/1 168/176/1
f 169/177/2 170/178/2 171/179/2 172/180/2
f 172/181/3 171/182/3 173/183/3 174/184/3
f 170/185/1 169/186/1 175/187/1 176/188/1
f 177/189/2 178/190/2 179/191/2 180/192/2
f 180/193/3 179/194/3 181/195/3 182/196/3
f 178/197/1 177/198/1 183/199/1 184/200/1
usemtl Metal.012
f 14/201/2 13/202/2 15/203/2 16/204/2
f 49/205/2 50/206/2 52/207/7 51/208/7
f 51/208/7 52/207/7 54/209/3 53/210/3
f 53/210/3 54/209/3 56/211/8 55/212/8
f 55/212/8 56/211/8 58/213/4 57/214/4
f 57/214/4 58/213/4 60/215/9 59/216/9
f 59/216/9 60/215/9 62/217/1 61/218/1
f 52/219/6 50/220/6 64/221/6 62/222/6 60/223/6 58/224/6 56/225/6 54/226/6
f 61/218/1 62/217/1 64/227/10 63/228/10
f 63/229/10 64/230/10 50/231/2 49/232/2
f 65/233/2 66/234/2 68/235/7 67/236/7
f 67/236/7 68/235/7 70/237/3 69/238/3
f 69/238/3 70/237/3 72/239/8 71/240/8
f 71/240/8 72/239/8 74/241/4 73/242/4
f 73/242/4 74/241/4 76/243/9 75/244/9
f 75/244/9 76/243/9 78/245/1 77/246/1
f 68/247/6 66/248/6 80/249/6 78/250/6 76/251/6 74/252/6 72/253/6 70/254/6
f 77/246/1 78/245/1 80/255/10 79/256/10
f 79/257/10 80/258/10 66/259/2 65/260/2
f 81/261/11 82/262/12 84/263/13 83/264/14
f 83/264/14 84/263/13 86/265/15 85/266/16
f 87/267/17 88/268/18 90/269/19 89/270/20
f 89/270/20 90/269/19 82/262/12 81/261/11
f 90/269/19 88/268/18 98/271/21 100/272/22
f 86/265/15 84/263/13 94/273/23 96/274/24
f 82/262/12 90/269/19 100/272/22 92/275/6
f 84/263/13 82/262/12 92/275/6 94/273/23
f 87/267/17 89/270/20 99/276/25 97/277/26
f 83/264/14 85/266/16 95/278/27 93/279/28
f 89/270/20 81/261/11 91/280/5 99/276/25
f 81/261/11 83/264/14 93/279/28 91/280/5
f 95/278/27 85/266/16 101/281/29 105/282/5
f 88/268/18 87/267/17 103/283/30 104/284/31
f 86/265/15 96/274/24 106/285/6 102/286/32
f 85/266/16 86/265/15 102/286/32 101/281/29
f 87/267/17 97/277/26 107/287/5 103/283/30
f 98/271/21 88/268/18 104/284/31 108/288/6
f 109/289/11 110/290/12 112/291/13 111/292/14
f 111/292/14 112/291/13 114/293/15 113/294/16
f 115/295/17 116/296/33 118/297/19 117/298/20
f 117/298/20 118/297/19 110/290/12 109/289/11
f 118/297/19 116/296/33 126/299/21 128/300/34
f 114/293/15 112/291/13 122/301/23 124/302/24
f 110/290/12 118/297/19 128/300/34 120/303/6
f 112/291/13 110/290/12 120/303/6 122/301/23
f 115/295/17 117/298/20 127/304/35 125/305/26
f 111/292/14 113/294/16 123/306/27 121/307/28
f 117/298/20 109/289/11 119/308/5 127/304/35
f 109/289/11 111/292/14 121/307/28 119/308/5
f 123/306/27 113/294/16 129/309/29 133/310/5
f 116/296/33 115/295/17 131/311/30 132/312/31
f 114/293/15 124/302/24 134/313/6 130/314/32
f 113/294/16 114/293/15 130/314/32 129/309/29
f 115/295/17 125/305/26 135/315/5 131/311/30
f 126/299/21 116/296/33 132/312/31 136/316/6
f 150/317/2 149/318/2 151/319/2 152/320/2
f 185/321/11 186/322/12 188/323/13 187/324/14
f 187/324/14 188/323/13 190/325/36 189/326/16
f 191/327/37 192/328/33 194/329/19 193/330/20
f 193/330/20 194/329/19 186/322/12 185/321/11
f 194/329/19 192/328/33 202/331/21 204/332/22
f 190/325/36 188/323/13 198/333/23 200/334/24
f 186/322/12 194/329/19 204/332/22 196/335/6
f 188/323/13 186/322/12 196/335/6 198/333/23
f 191/327/37 193/330/20 203/336/25 201/337/26
f 187/324/14 189/326/16 199/338/27 197/339/28
f 193/330/20 185/321/11 195/340/5 203/336/25
f 185/321/11 187/324/14 197/339/28 195/340/5
f 199/338/27 189/326/16 205/341/29 209/342/5
f 192/328/33 191/327/37 207/343/30 208/344/31
f 190/325/36 200/334/24 210/345/6 206/346/32
f 189/326/16 190/325/36 206/346/32 205/341/29
f 191/327/37 201/337/26 211/347/5 207/343/30
f 202/331/21 192/328/33 208/344/31 212/348/6
f 213/349/11 214/350/12 216/351/13 215/352/14
f 215/352/14 216/351/13 218/353/36 217/354/38
f 219/355/37 220/356/33 222/357/19 221/358/20
f 221/358/20 222/357/19 214/350/12 213/349/11
f 222/357/19 220/356/33 230/359/21 232/360/22
f 218/353/36 216/351/13 226/361/23 228/362/24
f 214/350/12 222/357/19 232/360/22 224/363/6
f 216/351/13 214/350/12 224/363/6 226/361/23
f 219/355/37 221/358/20 231/364/25 229/365/26
f 215/352/14 217/354/38 227/366/27 225/367/28
f 221/358/20 213/349/11 223/368/5 231/364/25
f 213/349/11 215/352/14 225/367/28 223/368/5
f 227/366/27 217/354/38 233/369/29 237/370/5
f 220/356/33 219/355/37 235/371/30 236/372/31
f 218/353/36 228/362/24 238/373/6 234/374/32
f 217/354/38 218/353/36 234/374/32 233/369/29
f 219/355/37 229/365/26 239/375/5 235/371/30
f 230/359/21 220/356/33 236/372/31 240/376/6
