# Blender v3.0.0 OBJ File: ''
# www.blender.org
mtllib Outdoor-J.mtl
o Outdoor-J_Outdoor-J.001
v -2.000000 8.909555 0.652838
v -2.000000 8.909555 -0.652841
v 2.000000 8.909555 -0.652841
v 2.000000 8.909555 0.652839
v -2.000000 12.909555 0.652838
v -2.000000 12.909555 -0.652842
v 2.000000 12.909555 -0.652842
v 2.000000 12.909555 0.652838
v -0.001111 0.000500 0.212092
v -0.001111 8.156704 0.212091
v -0.151130 0.000500 0.149952
v -0.151130 8.156704 0.149951
v -0.213270 0.000500 -0.000068
v -0.213270 8.156704 -0.000069
v -0.151130 0.000500 -0.150087
v -0.151130 8.156704 -0.150089
v -0.001111 0.000500 -0.212228
v -0.001111 8.156704 -0.212229
v 0.148909 0.000500 -0.150087
v 0.148909 8.156704 -0.150089
v 0.211049 0.000500 -0.000068
v 0.211049 8.156704 -0.000069
v 0.148909 0.000500 0.149952
v 0.148909 8.156704 0.149951
v 0.280662 8.023363 -0.281842
v 0.280662 8.023363 0.281704
v -0.282883 8.023363 -0.281842
v -0.282883 8.023363 0.281704
v 0.280662 8.089490 -0.281842
v 0.280662 8.089490 0.281704
v -0.282883 8.089490 0.281704
v -0.282883 8.089490 -0.281842
v -0.221049 7.992899 -0.164360
v -0.221049 8.093516 -0.164360
v -0.260815 7.992899 -0.187319
v -0.260815 8.093516 -0.187319
v -0.260815 7.992899 -0.233237
v -0.260815 8.093516 -0.233237
v -0.221049 7.992899 -0.256196
v -0.221049 8.093516 -0.256196
v -0.181283 7.992899 -0.233237
v -0.181283 8.093516 -0.233237
v -0.181283 7.992899 -0.187319
v -0.181283 8.093516 -0.187319
v -0.221049 7.992899 0.255370
v -0.221049 8.093516 0.255370
v -0.260815 7.992899 0.232411
v -0.260815 8.093516 0.232411
v -0.260815 7.992899 0.186494
v -0.260815 8.093516 0.186494
v -0.221049 7.992899 0.163535
v -0.221049 8.093516 0.163535
v -0.181283 7.992899 0.186494
v -0.181283 8.093516 0.186494
v -0.181283 7.992899 0.232411
v -0.181283 8.093516 0.232411
v 0.207561 7.992899 -0.164360
v 0.207561 8.093516 -0.164360
v 0.167795 7.992899 -0.187319
v 0.167795 8.093516 -0.187319
v 0.167795 7.992899 -0.233237
v 0.167795 8.093516 -0.233237
v 0.207561 7.992899 -0.256196
v 0.207561 8.093516 -0.256196
v 0.247326 7.992899 -0.233237
v 0.247326 8.093516 -0.233237
v 0.247326 7.992899 -0.187319
v 0.247326 8.093516 -0.187319
v 0.207561 7.992899 0.255370
v 0.207561 8.093516 0.255370
v 0.167795 7.992899 0.232411
v 0.167795 8.093516 0.232411
v 0.167795 7.992899 0.186494
v 0.167795 8.093516 0.186494
v 0.207561 7.992899 0.163535
v 0.207561 8.093516 0.163535
v 0.247326 7.992899 0.186494
v 0.247326 8.093516 0.186494
v 0.247326 7.992899 0.232411
v 0.247326 8.093516 0.232411
v -2.000000 8.079330 0.480459
v -2.000000 8.079330 -0.480462
v 2.000000 8.079330 0.480459
v 2.000000 8.079330 -0.480462
v -2.000000 11.511786 0.652838
v -2.000000 11.638096 0.652838
v -2.000000 12.761403 0.652838
v 2.000000 11.511786 0.652838
v 2.000000 11.638096 0.652838
v 2.000000 12.761403 0.652838
v -2.000000 12.761403 0.712830
v -2.000000 12.909555 0.712830
v 2.000000 12.761403 0.712831
v 2.000000 12.909555 0.712831
v -2.000000 11.511786 0.712831
v -2.000000 11.638096 0.712831
v 2.000000 11.511786 0.712831
v 2.000000 11.638096 0.712831
v -1.893087 8.843562 0.648231
v 1.893087 8.843562 0.648231
v -1.893087 8.145323 0.485067
v 1.893087 8.145323 0.485067
v -1.893087 8.843562 0.612467
v 1.893087 8.843562 0.612467
v -1.893087 8.145323 0.449303
v 1.893087 8.145323 0.449303
v -2.000000 11.511786 -0.652842
v -2.000000 11.638096 -0.652842
v -2.000000 12.761403 -0.652842
v 2.000000 11.511786 -0.652842
v 2.000000 11.638096 -0.652842
v 2.000000 12.761403 -0.652842
v -2.000000 12.761403 -0.712835
v -2.000000 12.909555 -0.712835
v 2.000000 12.761403 -0.712835
v 2.000000 12.909555 -0.712835
v -2.000000 11.511786 -0.712834
v -2.000000 11.638096 -0.712834
v 2.000000 11.511786 -0.712835
v 2.000000 11.638096 -0.712835
v -1.893087 8.843562 -0.648234
v 1.893087 8.843562 -0.648234
v -1.893087 8.145323 -0.485069
v 1.893087 8.145323 -0.485070
v -1.893087 8.843562 -0.612470
v 1.893087 8.843562 -0.612470
v -1.893087 8.145323 -0.449305
v 1.893087 8.145323 -0.449305
v -1.925750 8.909555 0.652839
v 1.925750 8.909555 0.652839
v -1.925750 11.511786 0.652838
v 1.925750 11.511786 0.652838
v -1.949536 11.511786 -0.652842
v 1.949535 11.511786 -0.652842
v -1.949536 8.909555 -0.652841
v 1.949536 8.909555 -0.652841
vt 0.226390 0.999917
vt 0.009050 0.999917
vt 0.009050 0.955187
vt 0.226390 0.955187
vt 0.406718 0.999400
vt 0.296444 0.999370
vt 0.291091 0.999368
vt 0.237218 1.000106
vt 0.237211 0.999353
vt 0.237230 0.955942
vt 0.406737 0.955989
vt 0.259727 0.955836
vt 0.430808 0.955836
vt 0.430808 0.999772
vt 0.424472 0.999772
vt 0.376428 0.999772
vt 0.371025 0.999772
vt 0.259727 0.999772
vt 0.621133 0.632286
vt 0.995860 0.632286
vt 0.995871 0.639727
vt 0.621144 0.639727
vt 0.995881 0.647168
vt 0.621154 0.647168
vt 0.995892 0.654609
vt 0.621165 0.654609
vt 0.995902 0.662050
vt 0.621175 0.662050
vt 0.995913 0.669491
vt 0.621186 0.669492
vt 0.995923 0.676933
vt 0.621197 0.676933
vt 0.621112 0.617404
vt 0.995839 0.617404
vt 0.995850 0.624845
vt 0.621123 0.624845
vt 0.432440 0.955989
vt 0.432425 0.999408
vt 0.850973 0.625454
vt 0.900559 0.625454
vt 0.900559 0.676905
vt 0.850973 0.676905
vt 0.809346 0.661653
vt 0.809346 0.668801
vt 0.750632 0.668802
vt 0.750632 0.661653
vt 0.796358 0.663711
vt 0.796358 0.669223
vt 0.751081 0.669224
vt 0.751081 0.663711
vt 0.727003 0.678166
vt 0.727003 0.671981
vt 0.777808 0.671981
vt 0.777808 0.678166
vt 0.694831 0.679708
vt 0.694831 0.672710
vt 0.752305 0.672710
vt 0.752305 0.679708
vt 0.873515 0.626506
vt 0.873515 0.667290
vt 0.865155 0.667290
vt 0.865155 0.626506
vt 0.856794 0.667290
vt 0.856794 0.626506
vt 0.848434 0.667290
vt 0.848434 0.626506
vt 0.840073 0.667290
vt 0.840073 0.626506
vt 0.831713 0.667290
vt 0.831713 0.626506
vt 0.881876 0.626506
vt 0.881876 0.667290
vt 0.933385 0.668835
vt 0.929329 0.676126
vt 0.921215 0.676126
vt 0.917158 0.668835
vt 0.921215 0.661544
vt 0.929329 0.661544
vt 0.873515 0.626506
vt 0.873515 0.667290
vt 0.865155 0.667290
vt 0.865155 0.626506
vt 0.856794 0.667290
vt 0.856794 0.626506
vt 0.848434 0.667290
vt 0.848434 0.626506
vt 0.840073 0.667290
vt 0.840073 0.626506
vt 0.831713 0.667290
vt 0.831713 0.626506
vt 0.881876 0.626506
vt 0.881876 0.667290
vt 0.933385 0.668835
vt 0.929329 0.676126
vt 0.921215 0.676126
vt 0.917158 0.668835
vt 0.921215 0.661544
vt 0.929329 0.661544
vt 0.873515 0.626506
vt 0.873515 0.667290
vt 0.865155 0.667290
vt 0.865155 0.626506
vt 0.856794 0.667290
vt 0.856794 0.626506
vt 0.848434 0.667290
vt 0.848434 0.626506
vt 0.840073 0.667290
vt 0.840073 0.626506
vt 0.831713 0.667290
vt 0.831713 0.626506
vt 0.881876 0.626506
vt 0.881876 0.667290
vt 0.933385 0.668835
vt 0.929329 0.676126
vt 0.921215 0.676126
vt 0.917158 0.668835
vt 0.921215 0.661544
vt 0.929329 0.661544
vt 0.873515 0.626506
vt 0.873515 0.667290
vt 0.865155 0.667290
vt 0.865155 0.626506
vt 0.856794 0.667290
vt 0.856794 0.626506
vt 0.848434 0.667290
vt 0.848434 0.626506
vt 0.840073 0.667290
vt 0.840073 0.626506
vt 0.831713 0.667290
vt 0.831713 0.626506
vt 0.881876 0.626506
vt 0.881876 0.667290
vt 0.933385 0.668835
vt 0.929329 0.676126
vt 0.921215 0.676126
vt 0.917158 0.668835
vt 0.921215 0.661544
vt 0.929329 0.661544
vt 0.108939 1.000005
vt 0.108939 0.954901
vt 0.361918 0.954901
vt 0.361918 1.000005
vt 0.224219 0.999867
vt 0.224219 0.955836
vt 0.483667 0.977290
vt 0.162875 0.977290
vt 0.162875 0.969968
vt 0.483667 0.969968
vt 0.317347 0.997262
vt 0.249046 0.997262
vt 0.254309 0.988609
vt 0.312066 0.988620
vt 0.210684 0.938750
vt 0.226086 0.938750
vt 0.226086 0.954151
vt 0.210684 0.954151
vt 0.641521 0.841280
vt 0.641521 0.765230
vt 0.970745 0.765230
vt 0.970745 0.841280
vt 0.201523 0.937593
vt 0.461237 0.937593
vt 0.461238 0.954213
vt 0.201523 0.954213
vt 0.201523 0.954213
vt 0.201523 0.937593
vt 0.461237 0.937593
vt 0.461238 0.954213
vt 0.201523 0.954213
vt 0.201523 0.937593
vt 0.461237 0.937593
vt 0.461238 0.954213
vt 0.201523 0.937593
vt 0.461237 0.937593
vt 0.461238 0.954213
vt 0.201523 0.954213
vt 0.210684 0.938750
vt 0.226086 0.938750
vt 0.226086 0.954151
vt 0.210684 0.954151
vt 0.039959 0.938431
vt 0.126530 0.938428
vt 0.213102 0.938425
vt 0.299673 0.938422
vt 0.299673 0.954122
vt 0.039959 0.954132
vt 0.201523 0.937593
vt 0.461237 0.937593
vt 0.461238 0.954213
vt 0.201523 0.954213
vt 0.210684 0.938750
vt 0.226086 0.938750
vt 0.226086 0.954151
vt 0.210684 0.954151
vt 0.210684 0.938750
vt 0.226086 0.938750
vt 0.226086 0.954151
vt 0.210684 0.954151
vt 0.288992 0.981593
vt 0.190616 0.981593
vt 0.189499 0.976815
vt 0.287876 0.976815
vt 0.411839 0.998158
vt 0.407406 0.998156
vt 0.179176 0.998127
vt 0.174749 0.998158
vt 0.181113 0.988437
vt 0.405456 0.988464
vt 0.221560 0.997709
vt 0.136772 0.997709
vt 0.143305 0.986968
vt 0.215005 0.986981
vt 0.344177 0.997309
vt 0.193528 0.997309
vt 0.197551 0.988741
vt 0.340041 0.988735
vt 1.000000 1.000000
vt 0.612266 1.000000
vt 0.612266 0.923950
vt 1.000000 0.923950
vt 0.116329 0.981284
vt 0.397394 0.981284
vt 0.397424 0.986189
vt 0.116359 0.986189
vt 0.190616 0.967224
vt 0.288992 0.967224
vt 0.287876 0.972002
vt 0.189499 0.972002
vt 0.397424 0.971384
vt 0.116359 0.971380
vt 0.116329 0.966475
vt 0.397394 0.966478
vt 0.259611 0.965532
vt 0.259611 0.955501
vt 0.430446 0.955501
vt 0.430446 0.965532
vt 0.227251 0.957178
vt 0.232531 0.965819
vt 0.290289 0.965830
vt 0.295551 0.957178
vt 0.210684 0.938750
vt 0.226086 0.938750
vt 0.226086 0.954151
vt 0.210684 0.954151
vt 0.966138 0.918945
vt 0.646128 0.918945
vt 0.646128 0.841444
vt 0.966138 0.841444
vt 0.201523 0.937593
vt 0.201523 0.954213
vt 0.461238 0.954213
vt 0.461237 0.937593
vt 0.201523 0.954213
vt 0.461238 0.954213
vt 0.461237 0.937593
vt 0.201523 0.937593
vt 0.201523 0.954213
vt 0.461238 0.954213
vt 0.461237 0.937593
vt 0.201523 0.937593
vt 0.201523 0.937593
vt 0.201523 0.954213
vt 0.461238 0.954213
vt 0.461237 0.937593
vt 0.210684 0.938750
vt 0.226086 0.938750
vt 0.226086 0.954151
vt 0.210684 0.954151
vt 0.112061 0.938255
vt 0.112061 0.953956
vt 0.371776 0.953946
vt 0.371775 0.938246
vt 0.285204 0.938249
vt 0.198632 0.938252
vt 0.106961 0.937593
vt 0.106961 0.954213
vt 0.366676 0.954213
vt 0.366675 0.937593
vt 0.210684 0.938750
vt 0.226086 0.938750
vt 0.226086 0.954151
vt 0.210684 0.954151
vt 0.210684 0.938750
vt 0.226086 0.938750
vt 0.226086 0.954151
vt 0.210684 0.954151
vt 0.298038 0.975129
vt 0.297297 0.978301
vt 0.231990 0.978300
vt 0.232731 0.975129
vt 0.103356 0.956232
vt 0.110988 0.967592
vt 0.238907 0.967588
vt 0.246328 0.956232
vt 0.198671 0.956232
vt 0.151014 0.956232
vt 0.088370 0.956917
vt 0.093976 0.966091
vt 0.155291 0.966102
vt 0.160878 0.956917
vt 0.173571 0.956565
vt 0.180548 0.965140
vt 0.420901 0.965134
vt 0.427686 0.956565
vt 0.612266 0.760221
vt 0.612266 0.683457
vt 1.000000 0.683457
vt 1.000000 0.760221
vt 0.183416 0.971616
vt 0.183442 0.968360
vt 0.370032 0.968360
vt 0.370006 0.971616
vt 0.232731 0.971934
vt 0.231990 0.968762
vt 0.297296 0.968762
vt 0.298037 0.971934
vt 0.370032 0.971636
vt 0.370006 0.974892
vt 0.183416 0.974892
vt 0.183442 0.971636
vt 0.483667 0.984630
vt 0.162875 0.984630
vt 0.162875 0.977308
vt 0.483667 0.977308
vt 0.687249 0.758843
vt 0.687249 0.685254
vt 0.925017 0.685254
vt 0.925017 0.758843
vt 0.406806 0.956279
vt 0.406806 0.963852
vt 0.237129 0.963853
vt 0.237129 0.956279
vt 0.954433 1.000000
vt 0.657834 1.000000
vt 0.657834 0.920232
vt 0.954433 0.920232
vn 0.0000 1.0000 -0.0000
vn -1.0000 0.0000 -0.0000
vn 1.0000 -0.0000 0.0000
vn -0.0000 0.0000 1.0000
vn -0.7071 0.0000 0.7071
vn -0.7071 -0.0000 -0.7071
vn 0.0000 -0.0000 -1.0000
vn 0.7071 -0.0000 -0.7071
vn 0.7071 0.0000 0.7071
vn 0.0000 -1.0000 0.0000
vn -0.5000 0.0000 0.8660
vn -0.5000 0.0000 -0.8660
vn 0.5000 -0.0000 -0.8660
vn 0.5000 0.0000 0.8660
vn 0.0000 -0.2144 0.9767
vn -0.0000 -0.0696 0.9976
vn -0.0000 -0.2275 0.9738
vn 0.0000 -0.2144 -0.9767
vn -0.0000 -0.0696 -0.9976
vn -0.0000 -0.0697 -0.9976
vn -0.0000 -0.2275 -0.9738
usemtl Atlas-01.020
s 1
f 5/1/1 8/2/1 7/3/1 6/4/1
f 1/5/2 85/6/2 86/7/2 87/8/2 5/9/2 6/10/2 2/11/2
f 3/12/3 7/13/3 8/14/3 90/15/3 89/16/3 88/17/3 4/18/3
f 9/19/4 10/20/4 12/21/5 11/22/5
f 11/22/5 12/21/5 14/23/2 13/24/2
f 13/24/2 14/23/2 16/25/6 15/26/6
f 15/26/6 16/25/6 18/27/7 17/28/7
f 17/28/7 18/27/7 20/29/8 19/30/8
f 19/30/8 20/29/8 22/31/3 21/32/3
f 21/33/3 22/34/3 24/35/9 23/36/9
f 23/36/9 24/35/9 10/20/4 9/19/4
f 1/5/2 2/11/2 82/37/2 81/38/2
f 26/39/10 28/40/10 27/41/10 25/42/10
f 27/43/7 32/44/7 29/45/7 25/46/7
f 28/47/2 31/48/2 32/49/2 27/50/2
f 26/51/4 30/52/4 31/53/4 28/54/4
f 25/55/3 29/56/3 30/57/3 26/58/3
f 33/59/11 34/60/11 36/61/11 35/62/11
f 35/62/2 36/61/2 38/63/2 37/64/2
f 37/64/12 38/63/12 40/65/12 39/66/12
f 39/66/13 40/65/13 42/67/13 41/68/13
f 41/68/3 42/67/3 44/69/3 43/70/3
f 43/71/14 44/72/14 34/60/14 33/59/14
f 33/73/10 35/74/10 37/75/10 39/76/10 41/77/10 43/78/10
f 45/79/11 46/80/11 48/81/11 47/82/11
f 47/82/2 48/81/2 50/83/2 49/84/2
f 49/84/12 50/83/12 52/85/12 51/86/12
f 51/86/13 52/85/13 54/87/13 53/88/13
f 53/88/3 54/87/3 56/89/3 55/90/3
f 55/91/14 56/92/14 46/80/14 45/79/14
f 45/93/10 47/94/10 49/95/10 51/96/10 53/97/10 55/98/10
f 57/99/11 58/100/11 60/101/11 59/102/11
f 59/102/2 60/101/2 62/103/2 61/104/2
f 61/104/12 62/103/12 64/105/12 63/106/12
f 63/106/13 64/105/13 66/107/13 65/108/13
f 65/108/3 66/107/3 68/109/3 67/110/3
f 67/111/14 68/112/14 58/100/14 57/99/14
f 57/113/10 59/114/10 61/115/10 63/116/10 65/117/10 67/118/10
f 69/119/11 70/120/11 72/121/11 71/122/11
f 71/122/2 72/121/2 74/123/2 73/124/2
f 73/124/12 74/123/12 76/125/12 75/126/12
f 75/126/13 76/125/13 78/127/13 77/128/13
f 77/128/3 78/127/3 80/129/3 79/130/3
f 79/131/14 80/132/14 70/120/14 69/119/14
f 69/133/10 71/134/10 73/135/10 75/136/10 77/137/10 79/138/10
f 81/139/10 82/140/10 84/141/10 83/142/10
f 3/12/3 4/18/3 83/143/3 84/144/3
f 132/145/4 130/146/4 4/147/4 88/148/4
f 83/149/15 4/150/15 100/151/15 102/152/15
f 90/153/3 8/154/3 94/155/3 93/156/3
f 87/157/4 86/158/4 89/159/4 90/160/4
f 8/161/1 5/162/1 92/163/1 94/164/1
f 92/165/4 91/166/4 93/167/4 94/168/4
f 96/169/4 95/170/4 97/171/4 98/172/4
f 89/173/1 86/174/1 96/175/1 98/176/1
f 86/177/2 85/178/2 95/179/2 96/180/2
f 85/181/10 131/182/10 132/183/10 88/184/10 97/185/10 95/186/10
f 87/187/10 90/188/10 93/189/10 91/190/10
f 88/191/3 89/192/3 98/193/3 97/194/3
f 5/195/2 87/196/2 91/197/2 92/198/2
f 99/199/3 101/200/3 105/201/3 103/202/3
f 4/203/16 130/204/16 129/205/16 1/206/16 99/207/16 100/208/16
f 1/209/15 81/210/15 101/211/15 99/212/15
f 81/213/16 83/214/16 102/215/16 101/216/16
f 104/217/17 103/218/17 105/219/17 106/220/17
f 100/221/10 99/222/10 103/223/10 104/224/10
f 102/225/2 100/226/2 104/227/2 106/228/2
f 101/229/1 102/230/1 106/231/1 105/232/1
f 134/233/7 110/234/7 3/235/7 136/236/7
f 84/237/18 124/238/18 122/239/18 3/240/18
f 112/241/3 115/242/3 116/243/3 7/244/3
f 109/245/7 112/246/7 111/247/7 108/248/7
f 7/249/1 116/250/1 114/251/1 6/252/1
f 114/253/7 116/254/7 115/255/7 113/256/7
f 118/257/7 120/258/7 119/259/7 117/260/7
f 111/261/1 120/262/1 118/263/1 108/264/1
f 108/265/2 118/266/2 117/267/2 107/268/2
f 107/269/10 117/270/10 119/271/10 110/272/10 134/273/10 133/274/10
f 109/275/10 113/276/10 115/277/10 112/278/10
f 110/279/3 119/280/3 120/281/3 111/282/3
f 6/283/2 114/284/2 113/285/2 109/286/2
f 121/287/3 125/288/3 127/289/3 123/290/3
f 3/291/19 122/292/19 121/293/19 2/294/19 135/295/19 136/296/19
f 2/297/18 121/298/18 123/299/18 82/300/18
f 82/301/20 123/302/20 124/303/20 84/304/20
f 126/305/21 128/306/21 127/307/21 125/308/21
f 122/309/10 126/310/10 125/311/10 121/312/10
f 124/313/2 128/314/2 126/315/2 122/316/2
f 123/317/1 127/318/1 128/319/1 124/320/1
f 85/321/4 1/322/4 129/323/4 131/324/4
f 131/325/4 129/326/4 130/327/4 132/328/4
f 107/329/7 133/330/7 135/331/7 2/332/7
f 133/333/7 134/334/7 136/335/7 135/336/7
