# Blender v3.0.0 OBJ File: ''
# www.blender.org
mtllib Stone-01.mtl
o Stone-01
v 1.819515 -0.102524 -0.842695
v 2.199600 1.373191 -1.703660
v 1.129865 -0.098815 3.310906
v 2.308259 2.098084 4.334937
v -2.084513 -0.119431 -1.193915
v -2.427826 1.502652 -1.599251
v -1.998834 -0.105521 4.152816
v -2.397407 1.843559 4.657550
v -2.530142 -0.098815 0.252990
v -2.865000 -0.100723 2.399859
v -3.368593 1.891548 2.605187
v -3.417936 1.828227 0.085267
v 1.492038 -0.098815 2.643963
v 1.673136 -0.112743 0.284977
v 3.155879 1.763773 0.126537
v 3.051367 2.056359 2.783336
v -0.885057 -0.098815 4.167253
v 0.345537 -0.098832 4.003920
v 0.564171 2.008751 4.977658
v -1.002789 2.228173 4.966146
v 0.443967 -0.098816 -1.607383
v -0.912215 -0.098817 -1.786674
v -0.960817 1.828087 -2.208860
v 0.589741 1.618475 -2.671486
v -0.037579 2.788867 1.261579
v -0.031012 2.585582 0.035425
v -0.031095 2.766683 2.614952
v 0.597054 0.903609 -2.027736
v -0.341009 0.864403 -2.573567
v -0.936516 1.014172 -2.426389
v -1.522665 1.003865 -2.177668
v 1.320654 0.637611 -1.620229
v 2.070833 0.999635 4.355652
v -2.663447 0.869019 4.405183
v -2.256169 0.691610 -1.516044
v -3.349418 0.895413 2.502523
v -3.331629 0.864706 0.169129
v 0.498240 0.954959 5.255355
v -0.943923 1.064679 5.348160
v 2.049677 0.634960 -1.458841
v 3.041612 1.004708 0.245899
v 2.855820 0.861594 2.984093
v -0.168922 -0.429727 0.252990
vt 0.267371 0.999376
vt 0.002419 0.712168
vt 0.267371 0.712168
vt 0.681084 0.712168
vt 0.454664 0.999375
vt 0.454664 0.712168
vt 0.998488 0.424961
vt 0.731229 0.712168
vt 0.731229 0.424961
vt 0.675511 0.712168
vt 0.568028 0.999376
vt 0.568028 0.712168
vt 0.463245 0.999375
vt 0.463245 0.712168
vt 0.195261 0.712168
vt 0.463245 0.424961
vt 0.998488 0.712168
vt 0.681084 0.999375
vt 0.568028 0.424961
vt 0.228244 0.424961
vt 0.454664 0.424961
vt 0.099459 0.712168
vt 0.002419 0.999375
vt 0.002419 0.712168
vt 0.890475 0.712168
vt 0.782993 0.424961
vt 0.998488 0.424961
vt 0.691887 0.403118
vt 0.490214 0.987303
vt 0.488820 0.551696
vt 0.268453 0.990193
vt 0.115663 0.892437
vt 0.032242 0.646625
vt 0.072198 0.409536
vt 0.124848 0.185221
vt 0.270337 0.033827
vt 0.692882 0.642715
vt 0.637371 0.909392
vt 0.371932 0.550704
vt 0.266032 0.551709
vt 0.487977 0.041371
vt 0.665234 0.189872
vt 0.228244 0.712168
vt 0.002419 0.424961
vt 0.782993 0.999376
vt 0.782993 0.712168
vt 0.195261 0.999375
vt 0.998488 0.712168
vt 0.998488 0.999375
vt 0.002419 0.999375
vt 0.002419 0.712168
vt 0.002419 0.424961
vt 0.195261 0.424961
vt 0.998488 0.712168
vt 0.731229 0.999375
vt 0.681084 0.424961
vt 0.002419 0.424961
vt 0.267370 0.424961
vt 0.998488 0.424961
vt 0.002419 0.999376
vt 0.998488 0.999375
vt 0.228244 0.999375
vt 0.998488 0.999375
vt 0.548360 0.893583
vt 0.802276 0.353451
vt 0.599893 0.353451
vt 0.422074 0.194447
vt 0.397511 0.353451
vt 0.547362 0.046934
vt 0.388649 0.677294
vt 0.423335 0.845654
vt 0.661274 0.917104
vt 0.797391 0.914991
vt 0.830961 0.662613
vt 0.763978 0.111395
vt 0.663602 0.032540
vn 0.8368 0.4844 -0.2553
vn 0.8207 -0.5112 0.2552
vn 0.8833 -0.4524 -0.1234
vn 0.5873 -0.4391 0.6799
vn 0.2346 0.6684 0.7058
vn 0.2708 -0.3043 0.9133
vn -0.3333 -0.8371 0.4339
vn -0.9495 -0.2575 0.1792
vn -0.5640 -0.8172 0.1191
vn 0.3098 -0.5198 -0.7961
vn 0.6584 0.2231 -0.7189
vn 0.5327 -0.4997 -0.6831
vn -0.8102 0.5284 -0.2538
vn -0.9013 -0.3558 -0.2473
vn -0.7049 -0.3421 -0.6213
vn -0.4732 -0.8690 -0.1447
vn 0.5266 0.6293 0.5716
vn 0.4291 -0.8541 -0.2938
vn 0.0119 -0.9241 0.3819
vn 0.1922 -0.9053 0.3787
vn -0.4504 -0.1360 -0.8824
vn -0.2085 0.7086 -0.6741
vn -0.3169 -0.0953 -0.9437
vn -0.0144 -0.3003 -0.9537
vn 0.2082 -0.8202 -0.5328
vn -0.1311 -0.8473 -0.5146
vn -0.1250 0.7561 0.6424
vn 0.8084 0.5594 0.1832
vn 0.0076 0.9925 0.1222
vn 0.2763 0.3759 -0.8845
vn -0.6692 0.3513 -0.6548
vn 0.0013 0.9974 -0.0722
vn 0.0426 0.9665 -0.2530
vn -0.8056 0.5688 0.1656
vn -0.5882 0.5076 0.6296
vn -0.1377 -0.2057 0.9689
vn 0.3355 -0.5410 -0.7712
vn -0.7463 -0.2787 0.6044
vn -0.5013 -0.7855 -0.3628
vn 0.2837 -0.9280 0.2414
vn 0.3359 -0.9358 0.1071
vn 0.3876 -0.9215 0.0256
vn -0.0060 -0.9989 -0.0462
usemtl Stone
s 1
f 15/1/1 42/2/2 41/3/3
f 33/4/4 19/5/5 38/6/6
f 7/7/7 36/8/8 10/9/9
f 32/10/10 2/11/11 40/12/12
f 36/8/8 12/13/13 37/14/14
f 35/15/15 9/16/16 37/14/14
f 42/17/2 4/18/17 33/4/4
f 41/3/3 1/19/18 40/12/12
f 38/6/6 17/20/19 18/21/20
f 31/22/21 23/23/22 30/24/23
f 29/25/24 21/26/25 22/27/26
f 20/28/27 16/29/28 27/30/29
f 15/31/1 2/32/11 24/33/30
f 23/34/22 6/35/31 12/36/13
f 15/31/1 24/33/30 23/34/22
f 19/37/5 4/38/17 16/29/28
f 15/31/1 25/39/32 16/29/28
f 23/34/22 26/40/33 15/31/1
f 11/41/34 25/39/32 12/36/13
f 11/41/34 8/42/35 20/28/27
f 20/28/27 19/37/5 16/29/28
f 26/40/33 25/39/32 15/31/1
f 27/30/29 25/39/32 11/41/34
f 23/34/22 12/36/13 26/40/33
f 26/40/33 12/36/13 25/39/32
f 27/30/29 16/29/28 25/39/32
f 20/28/27 27/30/29 11/41/34
f 2/11/11 41/3/3 40/12/12
f 39/43/36 7/44/7 17/20/19
f 24/45/30 32/10/10 28/46/37
f 6/47/31 37/14/14 12/13/13
f 19/5/5 39/43/36 38/6/6
f 6/47/31 23/23/22 31/22/21
f 29/25/24 30/48/23 23/49/22
f 29/25/24 24/45/30 28/46/37
f 23/49/22 24/45/30 29/25/24
f 39/43/36 8/50/35 34/51/38
f 29/25/24 22/27/26 30/48/23
f 21/26/25 29/25/24 28/46/37
f 31/22/21 22/52/26 5/53/39
f 21/26/25 28/46/37 32/10/10
f 21/26/25 32/10/10 1/19/18
f 35/15/15 6/47/31 31/22/21
f 24/45/30 2/11/11 32/10/10
f 34/54/38 11/55/34 36/8/8
f 10/9/9 37/14/14 9/16/16
f 3/56/40 38/6/6 18/21/20
f 5/53/39 35/15/15 31/22/21
f 41/3/3 13/57/41 14/58/42
f 13/59/41 33/4/4 3/56/40
f 1/19/18 32/10/10 40/12/12
f 15/1/1 16/60/28 42/2/2
f 33/4/4 4/18/17 19/5/5
f 7/7/7 34/54/38 36/8/8
f 36/8/8 11/55/34 12/13/13
f 35/15/15 5/53/39 9/16/16
f 42/17/2 16/61/28 4/18/17
f 41/3/3 14/58/42 1/19/18
f 38/6/6 39/43/36 17/20/19
f 2/11/11 15/1/1 41/3/3
f 39/43/36 34/51/38 7/44/7
f 6/47/31 35/15/15 37/14/14
f 19/5/5 20/62/27 39/43/36
f 39/43/36 20/62/27 8/50/35
f 31/22/21 30/24/23 22/52/26
f 34/54/38 8/63/35 11/55/34
f 10/9/9 36/8/8 37/14/14
f 3/56/40 33/4/4 38/6/6
f 41/3/3 42/2/2 13/57/41
f 13/59/41 42/17/2 33/4/4
f 18/64/20 9/65/16 43/66/43
f 1/67/18 14/68/42 21/69/25
f 14/68/42 13/70/41 18/64/20
f 13/70/41 3/71/40 18/64/20
f 18/64/20 17/72/19 9/65/16
f 17/72/19 7/73/7 10/74/9
f 9/65/16 17/72/19 10/74/9
f 9/65/16 5/75/39 22/76/26
f 22/76/26 21/69/25 9/65/16
f 21/69/25 14/68/42 43/66/43
f 9/65/16 21/69/25 43/66/43
f 14/68/42 18/64/20 43/66/43
