# Blender v3.0.0 OBJ File: ''
# www.blender.org
mtllib Stone-03.mtl
o Stone-03
v 2.432919 -0.040026 -1.358297
v 2.785724 1.268299 -2.226585
v 2.415123 -0.055469 3.237554
v 2.919872 1.875651 3.912213
v -2.394457 -0.057662 -1.949382
v -2.809797 1.352720 -2.118504
v -2.865258 -0.061438 3.727132
v -2.772995 1.673414 4.235456
v -2.933579 -0.055470 -0.236132
v -3.338691 -0.057168 1.945659
v -3.947935 1.716129 2.154328
v -4.007630 1.550992 -0.406584
v 2.904698 -0.056485 2.049365
v 2.779622 -0.060738 -0.236132
v 3.559170 1.378122 -0.428749
v 3.536303 1.521985 2.180659
v -0.943357 -0.055469 3.697736
v 0.650406 -0.055485 3.537042
v 0.809917 1.961253 4.428825
v -1.085789 2.022687 4.435960
v 0.664494 -0.081732 -2.399359
v -0.976213 -0.081625 -2.500946
v -1.035012 1.269951 -2.738030
v 0.840851 1.136066 -3.208181
v 0.081920 1.682531 0.788863
v 0.089865 1.497599 -0.457236
v 0.089764 1.992243 2.164252
v 0.840851 1.165029 -2.837559
v 0.849698 0.500181 -2.779733
v -0.276857 0.594553 -3.139321
v -1.005612 0.584057 -2.987561
v -1.714735 0.665735 -2.543620
v 1.725109 0.478475 -2.605501
v 2.667497 0.921509 3.900092
v -3.094851 0.805988 3.983604
v -2.602127 0.649222 -2.033943
v -3.924737 0.829481 2.049994
v -3.903217 0.739473 -0.321358
v 0.730161 0.952123 4.510413
v -1.014573 0.981148 4.616848
v 2.609321 0.619319 -1.981995
v 3.476962 0.779964 -0.332440
v 3.220501 0.651448 2.115012
v -0.076979 -0.350010 -0.236132
vt 0.267371 0.999376
vt 0.002419 0.712168
vt 0.267371 0.712168
vt 0.681084 0.712168
vt 0.454664 0.999375
vt 0.454664 0.712168
vt 0.998488 0.424961
vt 0.731229 0.712168
vt 0.731229 0.424961
vt 0.675511 0.712168
vt 0.568028 0.999376
vt 0.568028 0.712168
vt 0.463245 0.999375
vt 0.463245 0.712168
vt 0.195261 0.712168
vt 0.463245 0.424961
vt 0.998488 0.712168
vt 0.681084 0.999375
vt 0.568028 0.424961
vt 0.228244 0.424961
vt 0.454664 0.424961
vt 0.099459 0.712168
vt 0.002419 0.999375
vt 0.002419 0.712168
vt 0.890475 0.712168
vt 0.782993 0.424961
vt 0.998488 0.424961
vt 0.691887 0.403118
vt 0.490214 0.987303
vt 0.488820 0.551696
vt 0.268453 0.990193
vt 0.115663 0.892437
vt 0.032242 0.646625
vt 0.072198 0.409536
vt 0.124848 0.185221
vt 0.270337 0.033827
vt 0.692882 0.642715
vt 0.637371 0.909392
vt 0.371932 0.550704
vt 0.266032 0.551709
vt 0.487977 0.041371
vt 0.665234 0.189872
vt 0.228244 0.712168
vt 0.002419 0.424961
vt 0.782993 0.999376
vt 0.782993 0.712168
vt 0.195261 0.999375
vt 0.998488 0.712168
vt 0.998488 0.999375
vt 0.782993 0.999376
vt 0.002419 0.999375
vt 0.002419 0.712168
vt 0.002419 0.424961
vt 0.195261 0.424961
vt 0.998488 0.712168
vt 0.731229 0.999375
vt 0.681084 0.424961
vt 0.002419 0.424961
vt 0.267370 0.424961
vt 0.998488 0.424961
vt 0.002419 0.999376
vt 0.998488 0.999375
vt 0.228244 0.999375
vt 0.998488 0.999375
vt 0.548360 0.893583
vt 0.802276 0.353451
vt 0.599893 0.353451
vt 0.422074 0.194447
vt 0.397511 0.353451
vt 0.547362 0.046934
vt 0.388649 0.677294
vt 0.423335 0.845654
vt 0.661274 0.917104
vt 0.797391 0.914991
vt 0.830961 0.662613
vt 0.763978 0.111395
vt 0.663602 0.032540
vn 0.7970 0.5733 -0.1903
vn 0.9080 -0.3675 0.2010
vn 0.9151 -0.3770 -0.1430
vn 0.5977 -0.3440 0.7242
vn 0.1475 0.7537 0.6405
vn 0.1551 -0.3194 0.9348
vn -0.4113 -0.7657 0.4946
vn -0.9409 -0.2905 0.1739
vn -0.4941 -0.8677 0.0544
vn 0.3878 -0.5330 -0.7520
vn 0.6233 0.4974 -0.6034
vn 0.6742 -0.5102 -0.5339
vn -0.7602 0.5814 -0.2900
vn -0.8516 -0.4496 -0.2696
vn -0.6660 -0.3290 -0.6695
vn -0.3823 -0.9127 -0.1442
vn 0.6070 0.6029 0.5178
vn 0.4344 -0.8557 -0.2812
vn 0.0190 -0.9098 0.4145
vn 0.0554 -0.9113 0.4080
vn -0.4218 -0.1621 -0.8921
vn -0.1895 0.7533 -0.6298
vn -0.3566 -0.1521 -0.9218
vn -0.0704 -0.2429 -0.9675
vn 0.1204 -0.8743 -0.4701
vn -0.1525 -0.8632 -0.4813
vn -0.0704 0.7717 0.6321
vn 0.8654 0.4871 0.1173
vn 0.0494 0.9938 -0.1000
vn -0.1389 0.4203 -0.8967
vn -0.5258 0.5205 -0.6728
vn 0.0279 0.9872 -0.1568
vn 0.0250 0.9913 -0.1294
vn -0.7546 0.6396 0.1466
vn -0.4821 0.5110 0.7116
vn -0.0516 -0.2580 0.9648
vn 0.0959 -0.5702 -0.8159
vn 0.0959 -0.5701 -0.8159
vn -0.9999 -0.0132 0.0010
vn -0.1388 0.4204 -0.8967
vn -0.6759 -0.1735 0.7163
vn -0.5066 -0.7346 -0.4512
vn 0.4021 -0.8257 0.3957
vn 0.5610 -0.8188 0.1220
vn 0.4705 -0.8783 -0.0855
vn -0.0175 -0.9995 -0.0250
usemtl Stone.002
s 1
f 15/1/1 43/2/2 42/3/3
f 34/4/4 19/5/5 39/6/6
f 7/7/7 37/8/8 10/9/9
f 33/10/10 2/11/11 41/12/12
f 37/8/8 12/13/13 38/14/14
f 36/15/15 9/16/16 38/14/14
f 43/17/2 4/18/17 34/4/4
f 42/3/3 1/19/18 41/12/12
f 39/6/6 17/20/19 18/21/20
f 32/22/21 23/23/22 31/24/23
f 30/25/24 21/26/25 22/27/26
f 20/28/27 16/29/28 27/30/29
f 15/31/1 2/32/11 24/33/30
f 23/34/22 6/35/31 12/36/13
f 15/31/1 24/33/30 23/34/22
f 19/37/5 4/38/17 16/29/28
f 15/31/1 25/39/32 16/29/28
f 23/34/22 26/40/33 15/31/1
f 11/41/34 25/39/32 12/36/13
f 11/41/34 8/42/35 20/28/27
f 20/28/27 19/37/5 16/29/28
f 26/40/33 25/39/32 15/31/1
f 27/30/29 25/39/32 11/41/34
f 23/34/22 12/36/13 26/40/33
f 26/40/33 12/36/13 25/39/32
f 27/30/29 16/29/28 25/39/32
f 20/28/27 27/30/29 11/41/34
f 2/11/11 42/3/3 41/12/12
f 40/43/36 7/44/7 17/20/19
f 24/45/30 33/10/10 29/46/37
f 6/47/31 38/14/14 12/13/13
f 19/5/5 40/43/36 39/6/6
f 6/47/31 23/23/22 32/22/21
f 30/25/24 31/48/23 23/49/22
f 29/46/38 28/50/39 24/45/40
f 30/25/24 24/45/30 29/46/37
f 23/49/22 24/45/30 30/25/24
f 40/43/36 8/51/35 35/52/41
f 30/25/24 22/27/26 31/48/23
f 21/26/25 30/25/24 29/46/37
f 32/22/21 22/53/26 5/54/42
f 21/26/25 29/46/37 33/10/10
f 21/26/25 33/10/10 1/19/18
f 36/15/15 6/47/31 32/22/21
f 24/45/30 2/11/11 33/10/10
f 35/55/41 11/56/34 37/8/8
f 10/9/9 38/14/14 9/16/16
f 3/57/43 39/6/6 18/21/20
f 5/54/42 36/15/15 32/22/21
f 42/3/3 13/58/44 14/59/45
f 13/60/44 34/4/4 3/57/43
f 1/19/18 33/10/10 41/12/12
f 15/1/1 16/61/28 43/2/2
f 34/4/4 4/18/17 19/5/5
f 7/7/7 35/55/41 37/8/8
f 37/8/8 11/56/34 12/13/13
f 36/15/15 5/54/42 9/16/16
f 43/17/2 16/62/28 4/18/17
f 42/3/3 14/59/45 1/19/18
f 39/6/6 40/43/36 17/20/19
f 2/11/11 15/1/1 42/3/3
f 40/43/36 35/52/41 7/44/7
f 6/47/31 36/15/15 38/14/14
f 19/5/5 20/63/27 40/43/36
f 40/43/36 20/63/27 8/51/35
f 32/22/21 31/24/23 22/53/26
f 35/55/41 8/64/35 11/56/34
f 10/9/9 37/8/8 38/14/14
f 3/57/43 34/4/4 39/6/6
f 42/3/3 43/2/2 13/58/44
f 13/60/44 43/17/2 34/4/4
f 18/65/20 9/66/16 44/67/46
f 1/68/18 14/69/45 21/70/25
f 14/69/45 13/71/44 18/65/20
f 13/71/44 3/72/43 18/65/20
f 18/65/20 17/73/19 9/66/16
f 17/73/19 7/74/7 10/75/9
f 9/66/16 17/73/19 10/75/9
f 9/66/16 5/76/42 22/77/26
f 22/77/26 21/70/25 9/66/16
f 21/70/25 14/69/45 44/67/46
f 9/66/16 21/70/25 44/67/46
f 14/69/45 18/65/20 44/67/46
