# Blender v3.0.0 OBJ File: ''
# www.blender.org
mtllib Stone-02.mtl
o Stone-02
v 1.157513 -0.250619 -0.642110
v 0.908084 0.734021 -0.963067
v 1.148624 -0.250618 2.131415
v 1.121568 0.860029 2.203599
v -1.262596 -0.196115 -0.992827
v -1.248057 0.544752 -1.057948
v -1.511242 -0.254731 2.068070
v -1.195541 0.757591 2.380052
v -1.775614 -0.250618 0.035099
v -1.769188 -0.251788 1.351777
v -1.698385 0.898533 1.590094
v -1.694836 0.758437 0.047120
v 1.393189 -0.250618 1.414361
v 1.330708 -0.250618 0.035099
v 1.207321 0.908556 -0.081142
v 0.871999 1.071154 1.493596
v -0.434942 -0.250618 2.435723
v 0.280922 -0.250629 2.335550
v 0.416136 0.837256 2.904361
v -0.449809 0.822226 2.899700
v 0.274105 -0.253845 -1.270375
v -0.601173 -0.200048 -1.157689
v -0.532472 0.742582 -1.215202
v 0.211433 0.702164 -1.221589
v -0.016918 1.225469 0.653668
v -0.012949 1.161154 -0.098334
v -0.012999 1.213322 1.483694
v 0.343314 0.229075 -1.386161
v -0.314592 0.372149 -1.449279
v -0.652626 0.371033 -1.385516
v -0.933482 0.406580 -1.313847
v 0.803930 0.168364 -1.394779
v 1.274696 0.423063 2.494603
v -1.651631 0.342956 2.184141
v -1.344214 0.248793 -1.046311
v -2.038464 0.359143 1.414741
v -1.989292 0.344897 -0.016662
v 0.443160 0.395663 2.863255
v -0.234008 0.462955 2.920172
v 1.217749 0.209440 -1.009635
v 1.531587 0.449589 -0.023022
v 1.550947 0.338402 1.453979
v -0.096295 -0.453567 0.035099
v 1.157513 -0.250619 -0.642110
v 0.908084 0.734021 -0.963067
v 1.148624 -0.250618 2.131415
v 1.121568 0.860029 2.203599
v -1.262596 -0.196115 -0.992827
v -1.248057 0.544752 -1.057948
v -1.511242 -0.254731 2.068070
v -1.195541 0.757591 2.380052
v -1.775614 -0.250618 0.035099
v -1.769188 -0.251788 1.351777
v -1.698385 0.898533 1.590094
v -1.694836 0.758437 0.047120
v 1.393189 -0.250618 1.414361
v 1.330708 -0.250618 0.035099
v 1.207321 0.908556 -0.081142
v 0.871999 1.071154 1.493596
v -0.434942 -0.250618 2.435723
v 0.280922 -0.250629 2.335550
v 0.416136 0.837256 2.904361
v -0.449809 0.822226 2.899700
v 0.274105 -0.253845 -1.270375
v -0.601173 -0.200048 -1.157689
v -0.532472 0.742582 -1.215202
v 0.211433 0.702164 -1.221589
v -0.016918 1.225469 0.653668
v -0.012949 1.161154 -0.098334
v -0.012999 1.213322 1.483694
v 0.343314 0.229075 -1.386161
v -0.314592 0.372149 -1.449279
v -0.652626 0.371033 -1.385516
v -0.933482 0.406580 -1.313847
v 0.803930 0.168364 -1.394779
v 1.274696 0.423063 2.494603
v -1.651631 0.342956 2.184141
v -1.344214 0.248793 -1.046311
v -2.038464 0.359143 1.414741
v -1.989292 0.344897 -0.016662
v 0.443160 0.395663 2.863255
v -0.234008 0.462955 2.920172
v 1.217749 0.209440 -1.009635
v 1.531587 0.449589 -0.023022
v 1.550947 0.338402 1.453979
v -0.096295 -0.453567 0.035099
vt 0.267371 0.999376
vt 0.002419 0.712168
vt 0.267371 0.712168
vt 0.681084 0.712168
vt 0.454664 0.999375
vt 0.454664 0.712168
vt 0.998488 0.424961
vt 0.731229 0.712168
vt 0.731229 0.424961
vt 0.675511 0.712168
vt 0.568028 0.999376
vt 0.568028 0.712168
vt 0.463245 0.999375
vt 0.463245 0.712168
vt 0.195261 0.712168
vt 0.463245 0.424961
vt 0.998488 0.712168
vt 0.681084 0.999375
vt 0.568028 0.424961
vt 0.228244 0.424961
vt 0.454664 0.424961
vt 0.099459 0.712168
vt 0.002419 0.999375
vt 0.002419 0.712168
vt 0.890475 0.712168
vt 0.782993 0.424961
vt 0.998488 0.424961
vt 0.691887 0.403118
vt 0.490214 0.987303
vt 0.488820 0.551696
vt 0.268453 0.990193
vt 0.115663 0.892437
vt 0.032242 0.646625
vt 0.072198 0.409536
vt 0.124848 0.185221
vt 0.270337 0.033827
vt 0.692882 0.642715
vt 0.637371 0.909392
vt 0.371932 0.550704
vt 0.266032 0.551709
vt 0.487977 0.041371
vt 0.665234 0.189872
vt 0.228244 0.712168
vt 0.002419 0.424961
vt 0.782993 0.999376
vt 0.782993 0.712168
vt 0.195261 0.999375
vt 0.998488 0.712168
vt 0.998488 0.999375
vt 0.002419 0.999375
vt 0.002419 0.712168
vt 0.002419 0.424961
vt 0.195261 0.424961
vt 0.998488 0.712168
vt 0.731229 0.999375
vt 0.681084 0.424961
vt 0.002419 0.424961
vt 0.267370 0.424961
vt 0.998488 0.424961
vt 0.002419 0.999376
vt 0.998488 0.999375
vt 0.228244 0.999375
vt 0.998488 0.999375
vt 0.548360 0.893583
vt 0.802276 0.353451
vt 0.599893 0.353451
vt 0.422074 0.194447
vt 0.397511 0.353451
vt 0.547362 0.046934
vt 0.388649 0.677294
vt 0.423335 0.845654
vt 0.661274 0.917104
vt 0.797391 0.914991
vt 0.830961 0.662613
vt 0.763978 0.111395
vt 0.663602 0.032540
vt 0.267371 0.999376
vt 0.002419 0.712168
vt 0.267371 0.712168
vt 0.681084 0.712168
vt 0.454664 0.999375
vt 0.454664 0.712168
vt 0.998488 0.424961
vt 0.731229 0.712168
vt 0.731229 0.424961
vt 0.675511 0.712168
vt 0.568028 0.999376
vt 0.568028 0.712168
vt 0.463245 0.999375
vt 0.463245 0.712168
vt 0.195261 0.712168
vt 0.463245 0.424961
vt 0.998488 0.712168
vt 0.681084 0.999375
vt 0.568028 0.424961
vt 0.228244 0.424961
vt 0.454664 0.424961
vt 0.099459 0.712168
vt 0.002419 0.999375
vt 0.002419 0.712168
vt 0.890475 0.712168
vt 0.782993 0.424961
vt 0.998488 0.424961
vt 0.691887 0.403118
vt 0.490214 0.987303
vt 0.488820 0.551696
vt 0.268453 0.990193
vt 0.115663 0.892437
vt 0.032242 0.646625
vt 0.072198 0.409536
vt 0.124848 0.185221
vt 0.270337 0.033827
vt 0.692882 0.642715
vt 0.637371 0.909392
vt 0.371932 0.550704
vt 0.266032 0.551709
vt 0.487977 0.041371
vt 0.665234 0.189872
vt 0.228244 0.712168
vt 0.002419 0.424961
vt 0.782993 0.999376
vt 0.782993 0.712168
vt 0.195261 0.999375
vt 0.998488 0.712168
vt 0.998488 0.999375
vt 0.002419 0.999375
vt 0.002419 0.712168
vt 0.002419 0.424961
vt 0.195261 0.424961
vt 0.998488 0.712168
vt 0.731229 0.999375
vt 0.681084 0.424961
vt 0.002419 0.424961
vt 0.267370 0.424961
vt 0.998488 0.424961
vt 0.002419 0.999376
vt 0.998488 0.999375
vt 0.228244 0.999375
vt 0.998488 0.999375
vt 0.548360 0.893583
vt 0.802276 0.353451
vt 0.599893 0.353451
vt 0.422074 0.194447
vt 0.397511 0.353451
vt 0.547362 0.046934
vt 0.388649 0.677294
vt 0.423335 0.845654
vt 0.661274 0.917104
vt 0.797391 0.914991
vt 0.830961 0.662613
vt 0.763978 0.111395
vt 0.663602 0.032540
vn 0.5610 0.8064 -0.1870
vn 0.9787 0.1763 0.1053
vn 0.9701 0.1824 -0.1599
vn 0.7650 0.0227 0.6436
vn 0.2067 0.5914 0.7794
vn 0.2170 -0.3492 0.9116
vn -0.4651 -0.7523 0.4667
vn -0.9835 0.0643 0.1692
vn -0.5772 -0.8115 0.0912
vn 0.4066 -0.0851 -0.9097
vn 0.4155 0.7651 -0.4919
vn 0.8290 -0.0220 -0.5588
vn -0.5689 0.7984 -0.1972
vn -0.9564 0.1198 -0.2663
vn -0.7279 -0.0330 -0.6849
vn -0.6290 -0.7595 -0.1659
vn 0.5949 0.7580 0.2674
vn 0.5498 -0.7946 -0.2575
vn -0.0868 -0.8494 0.5206
vn 0.0803 -0.8957 0.4373
vn -0.3579 0.1401 -0.9232
vn -0.1344 0.7865 -0.6027
vn -0.2159 0.0252 -0.9761
vn -0.0604 0.0914 -0.9940
vn 0.0655 -0.7620 -0.6443
vn -0.1536 -0.7822 -0.6039
vn -0.3158 0.5013 0.8056
vn 0.4128 0.9071 0.0820
vn 0.0041 0.9901 0.1402
vn 0.1109 0.7598 -0.6406
vn -0.5665 0.5738 -0.5915
vn -0.0113 0.9987 -0.0495
vn 0.0063 0.9742 -0.2254
vn -0.5966 0.7779 0.1974
vn -0.5049 0.5390 0.6742
vn -0.1555 -0.2684 0.9507
vn 0.0389 0.0527 -0.9979
vn -0.7321 0.0433 0.6798
vn -0.4621 -0.7009 -0.5434
vn 0.4700 -0.7896 0.3945
vn 0.6371 -0.7665 0.0817
vn 0.6517 -0.7529 -0.0922
vn -0.0074 -0.9994 -0.0330
usemtl Stone.001
s 1
f 15/1/1 42/2/2 41/3/3
f 33/4/4 19/5/5 38/6/6
f 7/7/7 36/8/8 10/9/9
f 32/10/10 2/11/11 40/12/12
f 36/8/8 12/13/13 37/14/14
f 35/15/15 9/16/16 37/14/14
f 42/17/2 4/18/17 33/4/4
f 41/3/3 1/19/18 40/12/12
f 38/6/6 17/20/19 18/21/20
f 31/22/21 23/23/22 30/24/23
f 29/25/24 21/26/25 22/27/26
f 20/28/27 16/29/28 27/30/29
f 15/31/1 2/32/11 24/33/30
f 23/34/22 6/35/31 12/36/13
f 15/31/1 24/33/30 23/34/22
f 19/37/5 4/38/17 16/29/28
f 15/31/1 25/39/32 16/29/28
f 23/34/22 26/40/33 15/31/1
f 11/41/34 25/39/32 12/36/13
f 11/41/34 8/42/35 20/28/27
f 20/28/27 19/37/5 16/29/28
f 26/40/33 25/39/32 15/31/1
f 27/30/29 25/39/32 11/41/34
f 23/34/22 12/36/13 26/40/33
f 26/40/33 12/36/13 25/39/32
f 27/30/29 16/29/28 25/39/32
f 20/28/27 27/30/29 11/41/34
f 2/11/11 41/3/3 40/12/12
f 39/43/36 7/44/7 17/20/19
f 24/45/30 32/10/10 28/46/37
f 6/47/31 37/14/14 12/13/13
f 19/5/5 39/43/36 38/6/6
f 6/47/31 23/23/22 31/22/21
f 29/25/24 30/48/23 23/49/22
f 29/25/24 24/45/30 28/46/37
f 23/49/22 24/45/30 29/25/24
f 39/43/36 8/50/35 34/51/38
f 29/25/24 22/27/26 30/48/23
f 21/26/25 29/25/24 28/46/37
f 31/22/21 22/52/26 5/53/39
f 21/26/25 28/46/37 32/10/10
f 21/26/25 32/10/10 1/19/18
f 35/15/15 6/47/31 31/22/21
f 24/45/30 2/11/11 32/10/10
f 34/54/38 11/55/34 36/8/8
f 10/9/9 37/14/14 9/16/16
f 3/56/40 38/6/6 18/21/20
f 5/53/39 35/15/15 31/22/21
f 41/3/3 13/57/41 14/58/42
f 13/59/41 33/4/4 3/56/40
f 1/19/18 32/10/10 40/12/12
f 15/1/1 16/60/28 42/2/2
f 33/4/4 4/18/17 19/5/5
f 7/7/7 34/54/38 36/8/8
f 36/8/8 11/55/34 12/13/13
f 35/15/15 5/53/39 9/16/16
f 42/17/2 16/61/28 4/18/17
f 41/3/3 14/58/42 1/19/18
f 38/6/6 39/43/36 17/20/19
f 2/11/11 15/1/1 41/3/3
f 39/43/36 34/51/38 7/44/7
f 6/47/31 35/15/15 37/14/14
f 19/5/5 20/62/27 39/43/36
f 39/43/36 20/62/27 8/50/35
f 31/22/21 30/24/23 22/52/26
f 34/54/38 8/63/35 11/55/34
f 10/9/9 36/8/8 37/14/14
f 3/56/40 33/4/4 38/6/6
f 41/3/3 42/2/2 13/57/41
f 13/59/41 42/17/2 33/4/4
f 18/64/20 9/65/16 43/66/43
f 1/67/18 14/68/42 21/69/25
f 14/68/42 13/70/41 18/64/20
f 13/70/41 3/71/40 18/64/20
f 18/64/20 17/72/19 9/65/16
f 17/72/19 7/73/7 10/74/9
f 9/65/16 17/72/19 10/74/9
f 9/65/16 5/75/39 22/76/26
f 22/76/26 21/69/25 9/65/16
f 21/69/25 14/68/42 43/66/43
f 9/65/16 21/69/25 43/66/43
f 14/68/42 18/64/20 43/66/43
f 58/77/1 85/78/2 84/79/3
f 76/80/4 62/81/5 81/82/6
f 50/83/7 79/84/8 53/85/9
f 75/86/10 45/87/11 83/88/12
f 79/84/8 55/89/13 80/90/14
f 78/91/15 52/92/16 80/90/14
f 85/93/2 47/94/17 76/80/4
f 84/79/3 44/95/18 83/88/12
f 81/82/6 60/96/19 61/97/20
f 74/98/21 66/99/22 73/100/23
f 72/101/24 64/102/25 65/103/26
f 63/104/27 59/105/28 70/106/29
f 58/107/1 45/108/11 67/109/30
f 66/110/22 49/111/31 55/112/13
f 58/107/1 67/109/30 66/110/22
f 62/113/5 47/114/17 59/105/28
f 58/107/1 68/115/32 59/105/28
f 66/110/22 69/116/33 58/107/1
f 54/117/34 68/115/32 55/112/13
f 54/117/34 51/118/35 63/104/27
f 63/104/27 62/113/5 59/105/28
f 69/116/33 68/115/32 58/107/1
f 70/106/29 68/115/32 54/117/34
f 66/110/22 55/112/13 69/116/33
f 69/116/33 55/112/13 68/115/32
f 70/106/29 59/105/28 68/115/32
f 63/104/27 70/106/29 54/117/34
f 45/87/11 84/79/3 83/88/12
f 82/119/36 50/120/7 60/96/19
f 67/121/30 75/86/10 71/122/37
f 49/123/31 80/90/14 55/89/13
f 62/81/5 82/119/36 81/82/6
f 49/123/31 66/99/22 74/98/21
f 72/101/24 73/124/23 66/125/22
f 72/101/24 67/121/30 71/122/37
f 66/125/22 67/121/30 72/101/24
f 82/119/36 51/126/35 77/127/38
f 72/101/24 65/103/26 73/124/23
f 64/102/25 72/101/24 71/122/37
f 74/98/21 65/128/26 48/129/39
f 64/102/25 71/122/37 75/86/10
f 64/102/25 75/86/10 44/95/18
f 78/91/15 49/123/31 74/98/21
f 67/121/30 45/87/11 75/86/10
f 77/130/38 54/131/34 79/84/8
f 53/85/9 80/90/14 52/92/16
f 46/132/40 81/82/6 61/97/20
f 48/129/39 78/91/15 74/98/21
f 84/79/3 56/133/41 57/134/42
f 56/135/41 76/80/4 46/132/40
f 44/95/18 75/86/10 83/88/12
f 58/77/1 59/136/28 85/78/2
f 76/80/4 47/94/17 62/81/5
f 50/83/7 77/130/38 79/84/8
f 79/84/8 54/131/34 55/89/13
f 78/91/15 48/129/39 52/92/16
f 85/93/2 59/137/28 47/94/17
f 84/79/3 57/134/42 44/95/18
f 81/82/6 82/119/36 60/96/19
f 45/87/11 58/77/1 84/79/3
f 82/119/36 77/127/38 50/120/7
f 49/123/31 78/91/15 80/90/14
f 62/81/5 63/138/27 82/119/36
f 82/119/36 63/138/27 51/126/35
f 74/98/21 73/100/23 65/128/26
f 77/130/38 51/139/35 54/131/34
f 53/85/9 79/84/8 80/90/14
f 46/132/40 76/80/4 81/82/6
f 84/79/3 85/78/2 56/133/41
f 56/135/41 85/93/2 76/80/4
f 61/140/20 52/141/16 86/142/43
f 44/143/18 57/144/42 64/145/25
f 57/144/42 56/146/41 61/140/20
f 56/146/41 46/147/40 61/140/20
f 61/140/20 60/148/19 52/141/16
f 60/148/19 50/149/7 53/150/9
f 52/141/16 60/148/19 53/150/9
f 52/141/16 48/151/39 65/152/26
f 65/152/26 64/145/25 52/141/16
f 64/145/25 57/144/42 86/142/43
f 52/141/16 64/145/25 86/142/43
f 57/144/42 61/140/20 86/142/43
