# Blender v3.0.0 OBJ File: ''
# www.blender.org
mtllib Barrier-Blue-five.mtl
o Barrier_Cube.001
v -0.352479 0.006025 1.000000
v -0.352479 0.006024 -1.000000
v 0.352479 0.006024 -1.000000
v 0.352479 0.006025 1.000000
v -0.138663 1.045116 0.999999
v -0.138663 1.045115 -1.000001
v 0.138663 1.045115 -1.000000
v 0.138663 1.045116 1.000000
v -0.352479 0.288545 1.000000
v -0.154105 0.877725 0.999999
v -0.352479 0.288545 -1.000000
v -0.154104 0.877725 -1.000001
v 0.352479 0.288545 -1.000000
v 0.154105 0.877725 -1.000000
v 0.352479 0.288545 1.000000
v 0.154105 0.877725 1.000000
v 0.352479 0.006025 0.673196
v -0.352479 0.006025 0.673196
v 0.352479 0.113993 0.673196
v -0.352479 0.113993 0.673196
v 0.352479 0.006024 -0.168723
v -0.352479 0.006024 -0.168723
v 0.352479 0.006024 -0.663802
v 0.352479 0.113993 -0.168723
v -0.352479 0.113993 -0.168723
v 0.352479 0.113993 -0.663802
v -0.352479 0.006024 -0.663802
v -0.352479 0.113993 -0.663802
v 0.352479 0.113993 0.178117
v -0.352479 0.006025 0.178117
v -0.352479 0.113993 0.178117
v 0.352479 0.006025 0.178117
v -0.346002 0.006025 3.440436
v -0.358971 0.006025 1.440478
v 0.345972 0.006025 1.435907
v 0.358941 0.006025 3.435865
v -0.132191 1.045116 3.439049
v -0.145160 1.045116 1.439091
v 0.132161 1.045116 1.437294
v 0.145129 1.045116 3.437251
v -0.346002 0.288546 3.440436
v -0.147632 0.877725 3.439149
v -0.358971 0.288545 1.440478
v -0.160601 0.877725 1.439191
v 0.345972 0.288545 1.435907
v 0.147602 0.877725 1.437194
v 0.358941 0.288546 3.435865
v 0.160571 0.877725 3.437151
v 0.356821 0.006025 3.109068
v -0.348121 0.006025 3.113639
v 0.356821 0.113994 3.109068
v -0.348121 0.113994 3.113639
v 0.351362 0.006025 2.267166
v -0.353581 0.006025 2.271738
v 0.348152 0.006025 1.772098
v 0.351362 0.113994 2.267166
v -0.353581 0.113994 2.271738
v 0.348152 0.113994 1.772098
v -0.356791 0.006025 1.776669
v -0.356791 0.113994 1.776669
v 0.353611 0.113994 2.614000
v -0.351332 0.006025 2.618571
v -0.351332 0.113994 2.618571
v 0.353611 0.006025 2.614000
v -0.320429 0.006024 -1.655505
v -0.384319 0.006024 -3.654484
v 0.320278 0.006024 -3.677004
v 0.384169 0.006024 -1.678025
v -0.106722 1.045115 -1.662336
v -0.170613 1.045115 -3.661315
v 0.106572 1.045115 -3.670174
v 0.170463 1.045115 -1.671195
v -0.320429 0.288545 -1.655505
v -0.122156 0.877725 -1.661843
v -0.384319 0.288544 -3.654485
v -0.186046 0.877724 -3.660822
v 0.320279 0.288544 -3.677004
v 0.122006 0.877724 -3.670667
v 0.384169 0.288545 -1.678025
v 0.185896 0.877725 -1.671688
v 0.373729 0.006024 -2.004663
v -0.330868 0.006024 -1.982142
v 0.373729 0.113993 -2.004663
v -0.330868 0.113993 -1.982142
v 0.346834 0.006024 -2.846152
v -0.357764 0.006024 -2.823632
v 0.331019 0.006024 -3.340978
v 0.346834 0.113993 -2.846152
v -0.357764 0.113993 -2.823632
v 0.331018 0.113993 -3.340978
v -0.373579 0.006024 -3.318458
v -0.373579 0.113993 -3.318458
v 0.357914 0.113993 -2.499488
v -0.346684 0.006024 -2.476968
v -0.346684 0.113993 -2.476968
v 0.357914 0.006024 -2.499488
v -0.352479 0.006025 5.880255
v -0.352479 0.006025 3.880255
v 0.352479 0.006025 3.880255
v 0.352479 0.006025 5.880256
v -0.138663 1.045117 5.880254
v -0.138663 1.045116 3.880255
v 0.138663 1.045116 3.880255
v 0.138663 1.045117 5.880255
v -0.352479 0.288546 5.880254
v -0.154105 0.877726 5.880254
v -0.352479 0.288546 3.880255
v -0.154104 0.877726 3.880255
v 0.352479 0.288546 3.880255
v 0.154105 0.877726 3.880255
v 0.352479 0.288546 5.880256
v 0.154105 0.877726 5.880256
v 0.352479 0.006025 5.553451
v -0.352479 0.006025 5.553451
v 0.352479 0.113994 5.553451
v -0.352479 0.113994 5.553451
v 0.352479 0.006025 4.711532
v -0.352479 0.006025 4.711532
v 0.352479 0.006025 4.216454
v 0.352479 0.113994 4.711532
v -0.352479 0.113994 4.711532
v 0.352479 0.113994 4.216454
v -0.352479 0.006025 4.216454
v -0.352479 0.113994 4.216454
v 0.352479 0.113994 5.058372
v -0.352479 0.006025 5.058372
v -0.352479 0.113994 5.058372
v 0.352479 0.006025 5.058372
v -0.352479 0.006024 -4.155759
v -0.352479 0.006023 -6.155758
v 0.352479 0.006023 -6.155758
v 0.352479 0.006024 -4.155759
v -0.138663 1.045115 -4.155759
v -0.138663 1.045115 -6.155760
v 0.138663 1.045115 -6.155758
v 0.138663 1.045115 -4.155759
v -0.352479 0.288544 -4.155759
v -0.154105 0.877724 -4.155759
v -0.352479 0.288544 -6.155758
v -0.154104 0.877724 -6.155759
v 0.352479 0.288544 -6.155758
v 0.154105 0.877724 -6.155758
v 0.352479 0.288544 -4.155759
v 0.154105 0.877724 -4.155759
v 0.352479 0.006024 -4.482563
v -0.352479 0.006024 -4.482563
v 0.352479 0.113993 -4.482563
v -0.352479 0.113993 -4.482563
v 0.352479 0.006024 -5.324481
v -0.352479 0.006024 -5.324481
v 0.352479 0.006024 -5.819561
v 0.352479 0.113992 -5.324481
v -0.352479 0.113992 -5.324481
v 0.352479 0.113992 -5.819561
v -0.352479 0.006024 -5.819561
v -0.352479 0.113992 -5.819561
v 0.352479 0.113992 -4.977642
v -0.352479 0.006024 -4.977641
v -0.352479 0.113992 -4.977642
v 0.352479 0.006024 -4.977642
vt 0.732229 0.419085
vt 0.732229 0.428987
vt 0.710550 0.428987
vt 0.710550 0.419085
vt 0.732516 0.492121
vt 0.732516 0.503191
vt 0.583989 0.503191
vt 0.583989 0.492121
vt 0.732501 0.492624
vt 0.732501 0.503115
vt 0.583989 0.503115
vt 0.583989 0.492624
vt 0.646086 0.503190
vt 0.646086 0.489866
vt 0.672282 0.489866
vt 0.672282 0.503190
vt 0.732501 0.492624
vt 0.732501 0.502730
vt 0.583989 0.502730
vt 0.583989 0.492624
vt 0.647460 0.431227
vt 0.647460 0.418029
vt 0.672163 0.418029
vt 0.672163 0.431227
vt 0.646086 0.503190
vt 0.646086 0.489866
vt 0.672282 0.489866
vt 0.672282 0.503190
vt 0.648943 0.492674
vt 0.670280 0.492674
vt 0.732501 0.418567
vt 0.732501 0.431050
vt 0.583989 0.431050
vt 0.583989 0.417094
vt 0.609711 0.417342
vt 0.609711 0.427352
vt 0.647460 0.427510
vt 0.647460 0.417706
vt 0.672163 0.417962
vt 0.672163 0.428284
vt 0.708876 0.428442
vt 0.708978 0.418327
vt 0.672163 0.418029
vt 0.672163 0.431227
vt 0.647460 0.431227
vt 0.647460 0.418029
vt 0.648088 0.492674
vt 0.647460 0.431227
vt 0.672163 0.431227
vt 0.671135 0.492674
vt 0.732501 0.418567
vt 0.732501 0.431050
vt 0.583989 0.431050
vt 0.583989 0.417094
vt 0.609711 0.417342
vt 0.609711 0.427352
vt 0.647460 0.427510
vt 0.647460 0.417706
vt 0.672163 0.417962
vt 0.672163 0.428284
vt 0.708876 0.428442
vt 0.708978 0.418327
vt 0.732229 0.419085
vt 0.732229 0.428987
vt 0.710550 0.428987
vt 0.710550 0.419085
vt 0.732229 0.419085
vt 0.732229 0.428987
vt 0.710550 0.428987
vt 0.710550 0.419085
vt 0.732229 0.419085
vt 0.732229 0.428987
vt 0.710550 0.428987
vt 0.710550 0.419085
vt 0.732229 0.419085
vt 0.732229 0.428987
vt 0.710550 0.428987
vt 0.710550 0.419085
vt 0.732229 0.419085
vt 0.732229 0.428987
vt 0.710550 0.419085
vt 0.732229 0.419085
vt 0.732229 0.428987
vt 0.710550 0.428987
vt 0.710550 0.419085
vt 0.732229 0.419085
vt 0.732229 0.428987
vt 0.710550 0.428987
vt 0.710550 0.419085
vt 0.732229 0.419085
vt 0.732229 0.428987
vt 0.710550 0.428987
vt 0.710550 0.419085
vt 0.732229 0.419085
vt 0.732229 0.428987
vt 0.710550 0.428987
vt 0.710550 0.419085
vt 0.732516 0.492121
vt 0.732516 0.503191
vt 0.583989 0.503191
vt 0.583989 0.492121
vt 0.732501 0.492624
vt 0.732501 0.503115
vt 0.583989 0.503115
vt 0.583989 0.492624
vt 0.646086 0.503190
vt 0.646086 0.489866
vt 0.672282 0.489866
vt 0.672282 0.503190
vt 0.732501 0.492624
vt 0.732501 0.502730
vt 0.583989 0.502730
vt 0.583989 0.492624
vt 0.647460 0.431227
vt 0.647460 0.418029
vt 0.672163 0.418029
vt 0.672163 0.431227
vt 0.646086 0.503190
vt 0.646086 0.489866
vt 0.672282 0.489866
vt 0.672282 0.503190
vt 0.648943 0.492674
vt 0.670280 0.492674
vt 0.732501 0.418567
vt 0.732501 0.431050
vt 0.583989 0.431050
vt 0.583989 0.417094
vt 0.609711 0.417342
vt 0.609711 0.427352
vt 0.647460 0.427510
vt 0.647460 0.417706
vt 0.672163 0.417962
vt 0.672163 0.428284
vt 0.708876 0.428442
vt 0.708978 0.418327
vt 0.672163 0.418029
vt 0.672163 0.431227
vt 0.647460 0.431227
vt 0.647460 0.418029
vt 0.648088 0.492674
vt 0.647460 0.431227
vt 0.672163 0.431227
vt 0.671135 0.492674
vt 0.732501 0.418567
vt 0.732501 0.431050
vt 0.583989 0.431050
vt 0.583989 0.417094
vt 0.609711 0.417342
vt 0.609711 0.427352
vt 0.647460 0.427510
vt 0.647460 0.417706
vt 0.672163 0.417962
vt 0.672163 0.428284
vt 0.708876 0.428442
vt 0.708978 0.418327
vt 0.732229 0.419085
vt 0.732229 0.428987
vt 0.710550 0.428987
vt 0.710550 0.419085
vt 0.732229 0.419085
vt 0.732229 0.428987
vt 0.710550 0.428987
vt 0.710550 0.419085
vt 0.732229 0.419085
vt 0.732229 0.428987
vt 0.710550 0.428987
vt 0.710550 0.419085
vt 0.732229 0.419085
vt 0.732229 0.428987
vt 0.710550 0.428987
vt 0.710550 0.419085
vt 0.732229 0.419085
vt 0.732229 0.428987
vt 0.710550 0.419085
vt 0.732229 0.419085
vt 0.732229 0.428987
vt 0.710550 0.428987
vt 0.710550 0.419085
vt 0.732229 0.419085
vt 0.732229 0.428987
vt 0.710550 0.428987
vt 0.710550 0.419085
vt 0.732229 0.419085
vt 0.732229 0.428987
vt 0.710550 0.428987
vt 0.710550 0.419085
vt 0.732229 0.419085
vt 0.732229 0.428987
vt 0.710550 0.428987
vt 0.710550 0.419085
vt 0.732516 0.492121
vt 0.732516 0.503191
vt 0.583989 0.503191
vt 0.583989 0.492121
vt 0.732501 0.492624
vt 0.732501 0.503115
vt 0.583989 0.503115
vt 0.583989 0.492624
vt 0.646086 0.503190
vt 0.646086 0.489866
vt 0.672282 0.489866
vt 0.672282 0.503190
vt 0.732501 0.492624
vt 0.732501 0.502730
vt 0.583989 0.502730
vt 0.583989 0.492624
vt 0.647460 0.431227
vt 0.647460 0.418029
vt 0.672163 0.418029
vt 0.672163 0.431227
vt 0.646086 0.503190
vt 0.646086 0.489866
vt 0.672282 0.489866
vt 0.672282 0.503190
vt 0.648943 0.492674
vt 0.670280 0.492674
vt 0.732501 0.418567
vt 0.732501 0.431050
vt 0.583989 0.431050
vt 0.583989 0.417094
vt 0.609711 0.417342
vt 0.609711 0.427352
vt 0.647460 0.427510
vt 0.647460 0.417706
vt 0.672163 0.417962
vt 0.672163 0.428284
vt 0.708876 0.428442
vt 0.708978 0.418327
vt 0.672163 0.418029
vt 0.672163 0.431227
vt 0.647460 0.431227
vt 0.647460 0.418029
vt 0.648088 0.492674
vt 0.647460 0.431227
vt 0.672163 0.431227
vt 0.671135 0.492674
vt 0.732501 0.418567
vt 0.732501 0.431050
vt 0.583989 0.431050
vt 0.583989 0.417094
vt 0.609711 0.417342
vt 0.609711 0.427352
vt 0.647460 0.427510
vt 0.647460 0.417706
vt 0.672163 0.417962
vt 0.672163 0.428284
vt 0.708876 0.428442
vt 0.708978 0.418327
vt 0.732229 0.419085
vt 0.732229 0.428987
vt 0.710550 0.428987
vt 0.710550 0.419085
vt 0.732229 0.419085
vt 0.732229 0.428987
vt 0.710550 0.428987
vt 0.710550 0.419085
vt 0.732229 0.419085
vt 0.732229 0.428987
vt 0.710550 0.428987
vt 0.710550 0.419085
vt 0.732229 0.419085
vt 0.732229 0.428987
vt 0.710550 0.428987
vt 0.710550 0.419085
vt 0.732229 0.419085
vt 0.732229 0.428987
vt 0.710550 0.419085
vt 0.732229 0.419085
vt 0.732229 0.428987
vt 0.710550 0.428987
vt 0.710550 0.419085
vt 0.732229 0.419085
vt 0.732229 0.428987
vt 0.710550 0.428987
vt 0.710550 0.419085
vt 0.732229 0.419085
vt 0.732229 0.428987
vt 0.710550 0.428987
vt 0.710550 0.419085
vt 0.732229 0.419085
vt 0.732229 0.428987
vt 0.710550 0.428987
vt 0.710550 0.419085
vt 0.732516 0.492121
vt 0.732516 0.503191
vt 0.583989 0.503191
vt 0.583989 0.492121
vt 0.732501 0.492624
vt 0.732501 0.503115
vt 0.583989 0.503115
vt 0.583989 0.492624
vt 0.646086 0.503190
vt 0.646086 0.489866
vt 0.672282 0.489866
vt 0.672282 0.503190
vt 0.732501 0.492624
vt 0.732501 0.502730
vt 0.583989 0.502730
vt 0.583989 0.492624
vt 0.647460 0.431227
vt 0.647460 0.418029
vt 0.672163 0.418029
vt 0.672163 0.431227
vt 0.646086 0.503190
vt 0.646086 0.489866
vt 0.672282 0.489866
vt 0.672282 0.503190
vt 0.648943 0.492674
vt 0.670280 0.492674
vt 0.732501 0.418567
vt 0.732501 0.431050
vt 0.583989 0.431050
vt 0.583989 0.417094
vt 0.609711 0.417342
vt 0.609711 0.427352
vt 0.647460 0.427510
vt 0.647460 0.417706
vt 0.672163 0.417962
vt 0.672163 0.428284
vt 0.708876 0.428442
vt 0.708978 0.418327
vt 0.672163 0.418029
vt 0.672163 0.431227
vt 0.647460 0.431227
vt 0.647460 0.418029
vt 0.648088 0.492674
vt 0.647460 0.431227
vt 0.672163 0.431227
vt 0.671135 0.492674
vt 0.732501 0.418567
vt 0.732501 0.431050
vt 0.583989 0.431050
vt 0.583989 0.417094
vt 0.609711 0.417342
vt 0.609711 0.427352
vt 0.647460 0.427510
vt 0.647460 0.417706
vt 0.672163 0.417962
vt 0.672163 0.428284
vt 0.708876 0.428442
vt 0.708978 0.418327
vt 0.732229 0.419085
vt 0.732229 0.428987
vt 0.710550 0.428987
vt 0.710550 0.419085
vt 0.732229 0.419085
vt 0.732229 0.428987
vt 0.710550 0.428987
vt 0.710550 0.419085
vt 0.732229 0.419085
vt 0.732229 0.428987
vt 0.710550 0.428987
vt 0.710550 0.419085
vt 0.732229 0.419085
vt 0.732229 0.428987
vt 0.710550 0.428987
vt 0.710550 0.419085
vt 0.732229 0.419085
vt 0.732229 0.428987
vt 0.710550 0.419085
vt 0.732229 0.419085
vt 0.732229 0.428987
vt 0.710550 0.428987
vt 0.710550 0.419085
vt 0.732229 0.419085
vt 0.732229 0.428987
vt 0.710550 0.428987
vt 0.710550 0.419085
vt 0.732229 0.419085
vt 0.732229 0.428987
vt 0.710550 0.428987
vt 0.710550 0.419085
vt 0.732229 0.419085
vt 0.732229 0.428987
vt 0.710550 0.428987
vt 0.710550 0.419085
vt 0.732516 0.492121
vt 0.732516 0.503191
vt 0.583989 0.503191
vt 0.583989 0.492121
vt 0.732501 0.492624
vt 0.732501 0.503115
vt 0.583989 0.503115
vt 0.583989 0.492624
vt 0.646086 0.503190
vt 0.646086 0.489866
vt 0.672282 0.489866
vt 0.672282 0.503190
vt 0.732501 0.492624
vt 0.732501 0.502730
vt 0.583989 0.502730
vt 0.583989 0.492624
vt 0.647460 0.431227
vt 0.647460 0.418029
vt 0.672163 0.418029
vt 0.672163 0.431227
vt 0.646086 0.503190
vt 0.646086 0.489866
vt 0.672282 0.489866
vt 0.672282 0.503190
vt 0.648943 0.492674
vt 0.670280 0.492674
vt 0.732501 0.418567
vt 0.732501 0.431050
vt 0.583989 0.431050
vt 0.583989 0.417094
vt 0.609711 0.417342
vt 0.609711 0.427352
vt 0.647460 0.427510
vt 0.647460 0.417706
vt 0.672163 0.417962
vt 0.672163 0.428284
vt 0.708876 0.428442
vt 0.708978 0.418327
vt 0.672163 0.418029
vt 0.672163 0.431227
vt 0.647460 0.431227
vt 0.647460 0.418029
vt 0.648088 0.492674
vt 0.647460 0.431227
vt 0.672163 0.431227
vt 0.671135 0.492674
vt 0.732501 0.418567
vt 0.732501 0.431050
vt 0.583989 0.431050
vt 0.583989 0.417094
vt 0.609711 0.417342
vt 0.609711 0.427352
vt 0.647460 0.427510
vt 0.647460 0.417706
vt 0.672163 0.417962
vt 0.672163 0.428284
vt 0.708876 0.428442
vt 0.708978 0.418327
vt 0.732229 0.419085
vt 0.732229 0.428987
vt 0.710550 0.428987
vt 0.710550 0.419085
vt 0.732229 0.419085
vt 0.732229 0.428987
vt 0.710550 0.428987
vt 0.710550 0.419085
vt 0.732229 0.419085
vt 0.732229 0.428987
vt 0.710550 0.428987
vt 0.710550 0.419085
vt 0.732229 0.419085
vt 0.732229 0.428987
vt 0.710550 0.428987
vt 0.710550 0.419085
vt 0.732229 0.419085
vt 0.732229 0.428987
vt 0.710550 0.419085
vt 0.732229 0.419085
vt 0.732229 0.428987
vt 0.710550 0.428987
vt 0.710550 0.419085
vt 0.732229 0.419085
vt 0.732229 0.428987
vt 0.710550 0.428987
vt 0.710550 0.419085
vt 0.732229 0.419085
vt 0.732229 0.428987
vt 0.710550 0.428987
vt 0.710550 0.419085
vn -0.0000 -1.0000 0.0000
vn 0.0000 1.0000 -0.0000
vn -0.9958 0.0919 -0.0000
vn 0.0000 -0.0000 -1.0000
vn 0.9958 0.0919 0.0000
vn -0.0000 0.0000 1.0000
vn 1.0000 0.0000 0.0000
vn 0.9477 0.3191 -0.0000
vn -1.0000 -0.0000 -0.0000
vn -0.9477 0.3191 -0.0000
vn -0.9958 0.0919 0.0065
vn -0.0065 -0.0000 -1.0000
vn 0.9958 0.0919 -0.0065
vn 0.0065 0.0000 1.0000
vn 1.0000 -0.0000 -0.0065
vn 0.9477 0.3191 -0.0061
vn -1.0000 -0.0000 0.0065
vn -0.9477 0.3191 0.0061
vn -0.9953 0.0919 0.0318
vn -0.0319 -0.0000 -0.9995
vn 0.9953 0.0919 -0.0318
vn 0.0319 0.0000 0.9995
vn 0.9995 -0.0000 -0.0319
vn 0.9472 0.3191 -0.0303
vn -0.9995 0.0000 0.0319
vn -0.9472 0.3191 0.0303
usemtl Crane
s 1
f 1/1/1 18/2/1 17/3/1 4/4/1
f 5/5/2 8/6/2 7/7/2 6/8/2
f 10/9/3 5/10/3 6/11/3 12/12/3
f 12/13/4 6/14/4 7/15/4 14/16/4
f 14/17/5 7/18/5 8/19/5 16/20/5
f 9/21/6 1/22/6 4/23/6 15/24/6
f 5/25/6 10/26/6 16/27/6 8/28/6
f 10/29/6 9/21/6 15/24/6 16/30/6
f 3/31/7 13/32/7 15/33/7 4/34/7 17/35/7 19/36/7 29/37/7 32/38/7 21/39/7 24/40/7 26/41/7 23/42/7
f 13/32/8 14/17/8 16/20/8 15/33/8
f 2/43/4 11/44/4 13/45/4 3/46/4
f 11/47/4 12/48/4 14/49/4 13/50/4
f 1/51/9 9/52/9 11/53/9 2/54/9 27/55/9 28/56/9 25/57/9 22/58/9 30/59/9 31/60/9 20/61/9 18/62/9
f 9/52/10 10/9/10 12/12/10 11/53/10
f 26/63/6 28/64/6 27/65/6 23/66/6
f 25/67/4 24/68/4 21/69/4 22/70/4
f 31/71/1 29/72/1 19/73/1 20/74/1
f 29/75/6 31/76/6 30/77/6 32/78/6
f 20/79/4 19/80/4 17/3/4 18/81/4
f 32/82/1 30/83/1 22/84/1 21/85/1
f 23/86/1 27/87/1 2/88/1 3/89/1
f 28/90/1 26/91/1 24/92/1 25/93/1
f 33/94/1 50/95/1 49/96/1 36/97/1
f 37/98/2 40/99/2 39/100/2 38/101/2
f 42/102/11 37/103/11 38/104/11 44/105/11
f 44/106/12 38/107/12 39/108/12 46/109/12
f 46/110/13 39/111/13 40/112/13 48/113/13
f 41/114/14 33/115/14 36/116/14 47/117/14
f 37/118/14 42/119/14 48/120/14 40/121/14
f 42/122/14 41/114/14 47/117/14 48/123/14
f 35/124/15 45/125/15 47/126/15 36/127/15 49/128/15 51/129/15 61/130/15 64/131/15 53/132/15 56/133/15 58/134/15 55/135/15
f 45/125/16 46/110/16 48/113/16 47/126/16
f 34/136/12 43/137/12 45/138/12 35/139/12
f 43/140/12 44/141/12 46/142/12 45/143/12
f 33/144/17 41/145/17 43/146/17 34/147/17 59/148/17 60/149/17 57/150/17 54/151/17 62/152/17 63/153/17 52/154/17 50/155/17
f 41/145/18 42/102/18 44/105/18 43/146/18
f 58/156/14 60/157/14 59/158/14 55/159/14
f 57/160/12 56/161/12 53/162/12 54/163/12
f 63/164/1 61/165/1 51/166/1 52/167/1
f 61/168/14 63/169/14 62/170/14 64/171/14
f 52/172/12 51/173/12 49/96/12 50/174/12
f 64/175/1 62/176/1 54/177/1 53/178/1
f 55/179/1 59/180/1 34/181/1 35/182/1
f 60/183/1 58/184/1 56/185/1 57/186/1
f 65/187/1 82/188/1 81/189/1 68/190/1
f 69/191/2 72/192/2 71/193/2 70/194/2
f 74/195/19 69/196/19 70/197/19 76/198/19
f 76/199/20 70/200/20 71/201/20 78/202/20
f 78/203/21 71/204/21 72/205/21 80/206/21
f 73/207/22 65/208/22 68/209/22 79/210/22
f 69/211/22 74/212/22 80/213/22 72/214/22
f 74/215/22 73/207/22 79/210/22 80/216/22
f 67/217/23 77/218/23 79/219/23 68/220/23 81/221/23 83/222/23 93/223/23 96/224/23 85/225/23 88/226/23 90/227/23 87/228/23
f 77/218/24 78/203/24 80/206/24 79/219/24
f 66/229/20 75/230/20 77/231/20 67/232/20
f 75/233/20 76/234/20 78/235/20 77/236/20
f 65/237/25 73/238/25 75/239/25 66/240/25 91/241/25 92/242/25 89/243/25 86/244/25 94/245/25 95/246/25 84/247/25 82/248/25
f 73/238/26 74/195/26 76/198/26 75/239/26
f 90/249/22 92/250/22 91/251/22 87/252/22
f 89/253/20 88/254/20 85/255/20 86/256/20
f 95/257/1 93/258/1 83/259/1 84/260/1
f 93/261/22 95/262/22 94/263/22 96/264/22
f 84/265/20 83/266/20 81/189/20 82/267/20
f 96/268/1 94/269/1 86/270/1 85/271/1
f 87/272/1 91/273/1 66/274/1 67/275/1
f 92/276/1 90/277/1 88/278/1 89/279/1
f 97/280/1 114/281/1 113/282/1 100/283/1
f 101/284/2 104/285/2 103/286/2 102/287/2
f 106/288/3 101/289/3 102/290/3 108/291/3
f 108/292/4 102/293/4 103/294/4 110/295/4
f 110/296/5 103/297/5 104/298/5 112/299/5
f 105/300/6 97/301/6 100/302/6 111/303/6
f 101/304/6 106/305/6 112/306/6 104/307/6
f 106/308/6 105/300/6 111/303/6 112/309/6
f 99/310/7 109/311/7 111/312/7 100/313/7 113/314/7 115/315/7 125/316/7 128/317/7 117/318/7 120/319/7 122/320/7 119/321/7
f 109/311/8 110/296/8 112/299/8 111/312/8
f 98/322/4 107/323/4 109/324/4 99/325/4
f 107/326/4 108/327/4 110/328/4 109/329/4
f 97/330/9 105/331/9 107/332/9 98/333/9 123/334/9 124/335/9 121/336/9 118/337/9 126/338/9 127/339/9 116/340/9 114/341/9
f 105/331/10 106/288/10 108/291/10 107/332/10
f 122/342/6 124/343/6 123/344/6 119/345/6
f 121/346/4 120/347/4 117/348/4 118/349/4
f 127/350/1 125/351/1 115/352/1 116/353/1
f 125/354/6 127/355/6 126/356/6 128/357/6
f 116/358/4 115/359/4 113/282/4 114/360/4
f 128/361/1 126/362/1 118/363/1 117/364/1
f 119/365/1 123/366/1 98/367/1 99/368/1
f 124/369/1 122/370/1 120/371/1 121/372/1
f 129/373/1 146/374/1 145/375/1 132/376/1
f 133/377/2 136/378/2 135/379/2 134/380/2
f 138/381/3 133/382/3 134/383/3 140/384/3
f 140/385/4 134/386/4 135/387/4 142/388/4
f 142/389/5 135/390/5 136/391/5 144/392/5
f 137/393/6 129/394/6 132/395/6 143/396/6
f 133/397/6 138/398/6 144/399/6 136/400/6
f 138/401/6 137/393/6 143/396/6 144/402/6
f 131/403/7 141/404/7 143/405/7 132/406/7 145/407/7 147/408/7 157/409/7 160/410/7 149/411/7 152/412/7 154/413/7 151/414/7
f 141/404/8 142/389/8 144/392/8 143/405/8
f 130/415/4 139/416/4 141/417/4 131/418/4
f 139/419/4 140/420/4 142/421/4 141/422/4
f 129/423/9 137/424/9 139/425/9 130/426/9 155/427/9 156/428/9 153/429/9 150/430/9 158/431/9 159/432/9 148/433/9 146/434/9
f 137/424/10 138/381/10 140/384/10 139/425/10
f 154/435/6 156/436/6 155/437/6 151/438/6
f 153/439/4 152/440/4 149/441/4 150/442/4
f 159/443/1 157/444/1 147/445/1 148/446/1
f 157/447/6 159/448/6 158/449/6 160/450/6
f 148/451/4 147/452/4 145/375/4 146/453/4
f 160/454/1 158/455/1 150/456/1 149/457/1
f 151/458/1 155/459/1 130/460/1 131/461/1
f 156/462/1 154/463/1 152/464/1 153/465/1
