# Blender v3.0.0 OBJ File: ''
# www.blender.org
mtllib StartGrid.mtl
o Plane
v 2.507723 0.010002 11.085708
v 5.792285 0.010002 11.085707
v 2.507722 0.010002 9.782655
v 5.792284 0.010002 9.782654
v 2.735778 0.010002 11.085708
v 5.564229 0.010002 11.085707
v 2.735778 0.010002 9.985622
v 5.564229 0.010002 9.985621
v -8.700000 0.010000 -0.130581
v 8.700000 0.010000 -0.130587
v -8.700000 0.010000 0.072386
v 8.700000 0.010000 0.072380
v 2.507762 0.010021 131.085709
v 5.792324 0.010021 131.085709
v 2.507761 0.010021 129.782654
v 5.792324 0.010021 129.782654
v 2.735817 0.010021 131.085709
v 5.564268 0.010021 131.085709
v 2.735817 0.010021 129.985626
v 5.564268 0.010021 129.985626
v -5.792241 0.010020 121.085709
v -2.507680 0.010020 121.085709
v -5.792242 0.010019 119.782654
v -2.507680 0.010019 119.782654
v -5.564186 0.010020 121.085709
v -2.735736 0.010020 121.085709
v -5.564186 0.010020 119.985619
v -2.735736 0.010020 119.985619
v 2.507756 0.010018 111.085709
v 5.792317 0.010018 111.085709
v 2.507755 0.010018 109.782654
v 5.792317 0.010018 109.782654
v 2.735811 0.010018 111.085709
v 5.564261 0.010018 111.085709
v 2.735811 0.010018 109.985626
v 5.564261 0.010018 109.985626
v -5.792248 0.010016 101.085709
v -2.507687 0.010016 101.085709
v -5.792248 0.010016 99.782654
v -2.507687 0.010016 99.782654
v -5.564192 0.010016 101.085709
v -2.735742 0.010016 101.085709
v -5.564193 0.010016 99.985626
v -2.735742 0.010016 99.985626
v 2.507749 0.010015 91.085709
v 5.792311 0.010015 91.085709
v 2.507749 0.010015 89.782654
v 5.792310 0.010015 89.782654
v 2.735804 0.010015 91.085709
v 5.564255 0.010015 91.085709
v 2.735804 0.010015 89.985626
v 5.564254 0.010015 89.985626
v -5.792254 0.010013 81.085709
v -2.507693 0.010013 81.085709
v -5.792254 0.010013 79.782654
v -2.507694 0.010013 79.782654
v -5.564199 0.010013 81.085709
v -2.735749 0.010013 81.085709
v -5.564199 0.010013 79.985626
v -2.735749 0.010013 79.985626
v 2.507742 0.010012 71.085709
v 5.792305 0.010012 71.085709
v 2.507742 0.010011 69.782654
v 5.792304 0.010011 69.782654
v 2.735798 0.010012 71.085709
v 5.564249 0.010012 71.085709
v 2.735798 0.010011 69.985626
v 5.564248 0.010011 69.985626
v -5.792261 0.010010 61.085705
v -2.507700 0.010010 61.085705
v -5.792261 0.010010 59.782654
v -2.507700 0.010010 59.782654
v -5.564206 0.010010 61.085705
v -2.735755 0.010010 61.085705
v -5.564206 0.010010 59.985619
v -2.735755 0.010010 59.985619
v 2.507736 0.010008 51.085709
v 5.792298 0.010008 51.085709
v 2.507735 0.010008 49.782654
v 5.792297 0.010008 49.782654
v 2.735792 0.010008 51.085709
v 5.564242 0.010008 51.085709
v 2.735791 0.010008 49.985619
v 5.564241 0.010008 49.985619
v -5.792267 0.010007 41.085709
v -2.507706 0.010007 41.085709
v -5.792268 0.010006 39.782654
v -2.507707 0.010006 39.782654
v -5.564212 0.010007 41.085709
v -2.735762 0.010007 41.085709
v -5.564212 0.010006 39.985622
v -2.735762 0.010006 39.985622
v 2.507729 0.010005 31.085707
v 5.792291 0.010005 31.085705
v 2.507729 0.010005 29.782656
v 5.792291 0.010005 29.782654
v 2.735785 0.010005 31.085707
v 5.564235 0.010005 31.085705
v 2.735785 0.010005 29.985622
v 5.564234 0.010005 29.985619
v -5.792274 0.010003 21.085711
v -2.507713 0.010003 21.085707
v -5.792274 0.010003 19.782658
v -2.507713 0.010003 19.782656
v -5.564219 0.010003 21.085711
v -2.735768 0.010003 21.085707
v -5.564219 0.010003 19.985622
v -2.735768 0.010003 19.985622
v -0.000000 0.010000 -0.130584
v 0.000000 0.010000 0.072383
vt 0.264190 0.000000
vt 0.264190 1.000000
vt -0.079401 1.000000
vt -0.025637 0.000000
vt 0.638763 1.000003
vt 0.638763 0.000082
vt 0.954532 0.000083
vt 0.999918 0.999997
vt 0.057438 0.000091
vt 0.768680 0.000098
vt 0.826027 0.999909
vt 0.000091 0.999909
vt 0.000000 0.000095
vt 1.000000 0.000098
vt 1.000000 0.999909
vt 0.000000 0.999909
vt 0.264190 0.000000
vt 0.264190 1.000000
vt -0.079401 1.000000
vt -0.025637 0.000000
vt 0.638763 1.000003
vt 0.638763 0.000082
vt 0.954532 0.000083
vt 0.999918 0.999997
vt 0.057438 0.000091
vt 0.768680 0.000098
vt 0.826027 0.999909
vt 0.000091 0.999909
vt 0.264190 0.000000
vt 0.264190 1.000000
vt -0.079401 1.000000
vt -0.025637 0.000000
vt 0.638763 1.000003
vt 0.638763 0.000082
vt 0.954532 0.000083
vt 0.999918 0.999997
vt 0.057438 0.000091
vt 0.768680 0.000098
vt 0.826027 0.999909
vt 0.000091 0.999909
vt 0.264190 0.000000
vt 0.264190 1.000000
vt -0.079401 1.000000
vt -0.025637 0.000000
vt 0.638763 1.000003
vt 0.638763 0.000082
vt 0.954532 0.000083
vt 0.999918 0.999997
vt 0.057438 0.000091
vt 0.768680 0.000098
vt 0.826027 0.999909
vt 0.000091 0.999909
vt 0.264190 0.000000
vt 0.264190 1.000000
vt -0.079401 1.000000
vt -0.025637 0.000000
vt 0.638763 1.000003
vt 0.638763 0.000082
vt 0.954532 0.000083
vt 0.999918 0.999997
vt 0.057438 0.000091
vt 0.768680 0.000098
vt 0.826027 0.999909
vt 0.000091 0.999909
vt 0.264190 0.000000
vt 0.264190 1.000000
vt -0.079401 1.000000
vt -0.025637 0.000000
vt 0.638763 1.000003
vt 0.638763 0.000082
vt 0.954532 0.000083
vt 0.999918 0.999997
vt 0.057438 0.000091
vt 0.768680 0.000098
vt 0.826027 0.999909
vt 0.000091 0.999909
vt 0.264190 0.000000
vt 0.264190 1.000000
vt -0.079401 1.000000
vt -0.025637 0.000000
vt 0.638763 1.000003
vt 0.638763 0.000082
vt 0.954532 0.000083
vt 0.999918 0.999997
vt 0.057438 0.000091
vt 0.768680 0.000098
vt 0.826027 0.999909
vt 0.000091 0.999909
vt 0.264190 0.000000
vt 0.264190 1.000000
vt -0.079401 1.000000
vt -0.025637 0.000000
vt 0.638763 1.000003
vt 0.638763 0.000082
vt 0.954532 0.000083
vt 0.999918 0.999997
vt 0.057438 0.000091
vt 0.768680 0.000098
vt 0.826027 0.999909
vt 0.000091 0.999909
vt 0.264190 0.000000
vt 0.264190 1.000000
vt -0.079401 1.000000
vt -0.025637 0.000000
vt 0.638763 1.000003
vt 0.638763 0.000082
vt 0.954532 0.000083
vt 0.999918 0.999997
vt 0.057438 0.000091
vt 0.768680 0.000098
vt 0.826027 0.999909
vt 0.000091 0.999909
vt 0.264190 0.000000
vt 0.264190 1.000000
vt -0.079401 1.000000
vt -0.025637 0.000000
vt 0.638763 1.000003
vt 0.638763 0.000082
vt 0.954532 0.000083
vt 0.999918 0.999997
vt 0.057438 0.000091
vt 0.768680 0.000098
vt 0.826027 0.999909
vt 0.000091 0.999909
vt 0.264190 0.000000
vt 0.264190 1.000000
vt -0.079401 1.000000
vt -0.025637 0.000000
vt 0.638763 1.000003
vt 0.638763 0.000082
vt 0.954532 0.000083
vt 0.999918 0.999997
vt 0.057438 0.000091
vt 0.768680 0.000098
vt 0.826027 0.999909
vt 0.000091 0.999909
vt 0.264190 0.000000
vt 0.264190 1.000000
vt -0.079401 1.000000
vt -0.025637 0.000000
vt 0.638763 1.000003
vt 0.638763 0.000082
vt 0.954532 0.000083
vt 0.999918 0.999997
vt 0.057438 0.000091
vt 0.768680 0.000098
vt 0.826027 0.999909
vt 0.000091 0.999909
vt 0.264190 0.000000
vt 0.264190 1.000000
vt -0.079401 1.000000
vt -0.025637 0.000000
vt 0.638763 1.000003
vt 0.638763 0.000082
vt 0.954532 0.000083
vt 0.999918 0.999997
vt 0.057438 0.000091
vt 0.768680 0.000098
vt 0.826027 0.999909
vt 0.000091 0.999909
vt 0.000000 0.000091
vt 1.000000 0.000095
vt 1.000000 0.999909
vt 0.000000 0.999909
vn 0.0000 1.0000 -0.0000
usemtl Strip
s 1
f 6/1/1 2/2/1 4/3/1 8/4/1
f 1/5/1 5/6/1 7/7/1 3/8/1
f 7/9/1 8/10/1 4/11/1 3/12/1
f 110/13/1 12/14/1 10/15/1 109/16/1
f 18/17/1 14/18/1 16/19/1 20/20/1
f 13/21/1 17/22/1 19/23/1 15/24/1
f 19/25/1 20/26/1 16/27/1 15/28/1
f 26/29/1 22/30/1 24/31/1 28/32/1
f 21/33/1 25/34/1 27/35/1 23/36/1
f 27/37/1 28/38/1 24/39/1 23/40/1
f 34/41/1 30/42/1 32/43/1 36/44/1
f 29/45/1 33/46/1 35/47/1 31/48/1
f 35/49/1 36/50/1 32/51/1 31/52/1
f 42/53/1 38/54/1 40/55/1 44/56/1
f 37/57/1 41/58/1 43/59/1 39/60/1
f 43/61/1 44/62/1 40/63/1 39/64/1
f 50/65/1 46/66/1 48/67/1 52/68/1
f 45/69/1 49/70/1 51/71/1 47/72/1
f 51/73/1 52/74/1 48/75/1 47/76/1
f 58/77/1 54/78/1 56/79/1 60/80/1
f 53/81/1 57/82/1 59/83/1 55/84/1
f 59/85/1 60/86/1 56/87/1 55/88/1
f 66/89/1 62/90/1 64/91/1 68/92/1
f 61/93/1 65/94/1 67/95/1 63/96/1
f 67/97/1 68/98/1 64/99/1 63/100/1
f 74/101/1 70/102/1 72/103/1 76/104/1
f 69/105/1 73/106/1 75/107/1 71/108/1
f 75/109/1 76/110/1 72/111/1 71/112/1
f 82/113/1 78/114/1 80/115/1 84/116/1
f 77/117/1 81/118/1 83/119/1 79/120/1
f 83/121/1 84/122/1 80/123/1 79/124/1
f 90/125/1 86/126/1 88/127/1 92/128/1
f 85/129/1 89/130/1 91/131/1 87/132/1
f 91/133/1 92/134/1 88/135/1 87/136/1
f 98/137/1 94/138/1 96/139/1 100/140/1
f 93/141/1 97/142/1 99/143/1 95/144/1
f 99/145/1 100/146/1 96/147/1 95/148/1
f 106/149/1 102/150/1 104/151/1 108/152/1
f 101/153/1 105/154/1 107/155/1 103/156/1
f 107/157/1 108/158/1 104/159/1 103/160/1
f 11/161/1 110/162/1 109/163/1 9/164/1
